<?xml version="1.0" encoding="UTF-8" standalone="no"?><svg xmlns="http://www.w3.org/2000/svg" xmlns:xlink="http://www.w3.org/1999/xlink" contentScriptType="application/ecmascript" contentStyleType="text/css" height="295px" preserveAspectRatio="none" style="width:354px;height:295px;background:#777777;" version="1.1" viewBox="0 0 354 295" width="354px" zoomAndPan="magnify"><defs><filter height="300%" id="fv37gle9fbyj1" width="300%" x="-1" y="-1"><feGaussianBlur result="blurOut" stdDeviation="2.0"/><feColorMatrix in="blurOut" result="blurOut2" type="matrix" values="0 0 0 0 0 0 0 0 0 0 0 0 0 0 0 0 0 0 .4 0"/><feOffset dx="4.0" dy="4.0" in="blurOut2" result="blurOut3"/><feBlend in="SourceGraphic" in2="blurOut3" mode="normal"/></filter></defs><g><!--MD5=[0ba5ee7700168656dc1b457c6fe9fdac]
entity Client--><rect fill="#556B2F" filter="url(#fv37gle9fbyj1)" height="33.3687" style="stroke: #1B1B1B; stroke-width: 1.5;" width="53" x="20" y="24"/><text fill="#FFFFFF" font-family="Verdana" font-size="11" lengthAdjust="spacingAndGlyphs" textLength="33" x="30" y="45.0591">Client</text><!--MD5=[b2a7805015dde1c61455fb97a8caa40b]
class ProtoType--><rect fill="#2E2E2E" filter="url(#fv37gle9fbyj1)" height="64.978" id="ProtoType" style="stroke: #1B1B1B; stroke-width: 1.5;" width="84" x="149.5" y="8"/><ellipse cx="161.5" cy="26.0867" fill="#A9DCDF" rx="8" ry="8" style="stroke: #1B1B1B; stroke-width: 1.0;"/><path d="M165.4063,29.5867 L163.2813,29.5867 L162.7188,27.9773 L159.7656,27.9773 L159.2031,29.5867 L157.125,29.5867 L160.0781,21.5867 L162.4531,21.5867 L165.4063,29.5867 Z M162.2188,26.5085 L161.25,23.6335 L160.2656,26.5085 L162.2188,26.5085 Z "/><text fill="#AAAAAA" font-family="sans-serif" font-size="11" font-style="italic" lengthAdjust="spacingAndGlyphs" textLength="53" x="175" y="23.2104">«Animal»</text><text fill="#FFFFFF" font-family="Verdana" font-size="11" font-style="italic" lengthAdjust="spacingAndGlyphs" textLength="58" x="172.5" y="36.8638">ProtoType</text><line style="stroke: #1B1B1B; stroke-width: 1.5;" x1="150.5" x2="232.5" y1="44.1733" y2="44.1733"/><line style="stroke: #1B1B1B; stroke-width: 1.5;" x1="150.5" x2="232.5" y1="52.1733" y2="52.1733"/><ellipse cx="160.5" cy="63.1733" fill="#84BE84" rx="3" ry="3" style="stroke: #038048; stroke-width: 1.0;"/><text fill="#AAAAAA" font-family="sans-serif" font-size="11" font-style="italic" lengthAdjust="spacingAndGlyphs" textLength="42" x="166.5" y="66.3838">clone();</text><!--MD5=[760517030de0127f130a406891c62ada]
class ConcreateProtoTypeA--><rect fill="#2E2E2E" filter="url(#fv37gle9fbyj1)" height="64.978" id="ConcreateProtoTypeA" style="stroke: #1B1B1B; stroke-width: 1.5;" width="151" x="6" y="134"/><ellipse cx="18" cy="152.0867" fill="#BB6600" rx="8" ry="8" style="stroke: #1B1B1B; stroke-width: 1.0;"/><path d="M18.6406,156.2429 Q17.75,156.2429 16.9844,155.9773 Q16.2344,155.7117 15.6875,155.196 Q15.1563,154.6804 14.8438,153.8992 Q14.5469,153.1179 14.5469,152.1023 Q14.5469,151.1492 14.8281,150.3835 Q15.125,149.6023 15.6719,149.0398 Q16.1875,148.5085 16.9531,148.2273 Q17.7344,147.9304 18.6406,147.9304 Q19.1406,147.9304 19.5469,147.9929 Q19.9531,148.0398 20.2969,148.1335 Q20.6563,148.2429 20.9531,148.3679 Q21.25,148.4929 21.4688,148.6023 L21.4688,150.5398 L21.2344,150.5398 Q21.0781,150.4148 20.8438,150.2429 Q20.625,150.0554 20.3281,149.8835 Q20.0313,149.7117 19.6875,149.6023 Q19.3438,149.4773 18.9531,149.4773 Q18.5156,149.4773 18.125,149.6179 Q17.7344,149.7429 17.4063,150.071 Q17.0938,150.3679 16.8906,150.8835 Q16.7031,151.3835 16.7031,152.1023 Q16.7031,152.8523 16.9063,153.3679 Q17.125,153.8679 17.4375,154.1492 Q17.7656,154.446 18.1719,154.571 Q18.5781,154.696 18.9688,154.696 Q19.3438,154.696 19.7031,154.5867 Q20.0781,154.4773 20.3906,154.2742 Q20.6563,154.1335 20.875,153.9617 Q21.1094,153.7742 21.25,153.6492 L21.4688,153.6492 L21.4688,155.5554 Q21.1719,155.696 20.8906,155.821 Q20.625,155.9304 20.3125,156.0085 Q19.9219,156.1179 19.5781,156.1804 Q19.2344,156.2429 18.6406,156.2429 Z "/><text fill="#AAAAAA" font-family="sans-serif" font-size="11" font-style="italic" lengthAdjust="spacingAndGlyphs" textLength="38" x="72.5" y="149.2104">«Wild»</text><text fill="#FFFFFF" font-family="Verdana" font-size="11" lengthAdjust="spacingAndGlyphs" textLength="125" x="29" y="162.8638">ConcreateProtoTypeA</text><line style="stroke: #1B1B1B; stroke-width: 1.5;" x1="7" x2="156" y1="170.1733" y2="170.1733"/><line style="stroke: #1B1B1B; stroke-width: 1.5;" x1="7" x2="156" y1="178.1733" y2="178.1733"/><ellipse cx="17" cy="189.1733" fill="#84BE84" rx="3" ry="3" style="stroke: #038048; stroke-width: 1.0;"/><text fill="#AAAAAA" font-family="sans-serif" font-size="11" lengthAdjust="spacingAndGlyphs" textLength="42" x="23" y="192.3838">clone();</text><!--MD5=[a3620a7cc0203f1ca054f90cadc69470]
class ConcreateProtoTypeB--><rect fill="#2E2E2E" filter="url(#fv37gle9fbyj1)" height="64.978" id="ConcreateProtoTypeB" style="stroke: #1B1B1B; stroke-width: 1.5;" width="151" x="192" y="134"/><ellipse cx="204" cy="152.0867" fill="#BB6600" rx="8" ry="8" style="stroke: #1B1B1B; stroke-width: 1.0;"/><path d="M204.6406,156.2429 Q203.75,156.2429 202.9844,155.9773 Q202.2344,155.7117 201.6875,155.196 Q201.1563,154.6804 200.8438,153.8992 Q200.5469,153.1179 200.5469,152.1023 Q200.5469,151.1492 200.8281,150.3835 Q201.125,149.6023 201.6719,149.0398 Q202.1875,148.5085 202.9531,148.2273 Q203.7344,147.9304 204.6406,147.9304 Q205.1406,147.9304 205.5469,147.9929 Q205.9531,148.0398 206.2969,148.1335 Q206.6563,148.2429 206.9531,148.3679 Q207.25,148.4929 207.4688,148.6023 L207.4688,150.5398 L207.2344,150.5398 Q207.0781,150.4148 206.8438,150.2429 Q206.625,150.0554 206.3281,149.8835 Q206.0313,149.7117 205.6875,149.6023 Q205.3438,149.4773 204.9531,149.4773 Q204.5156,149.4773 204.125,149.6179 Q203.7344,149.7429 203.4063,150.071 Q203.0938,150.3679 202.8906,150.8835 Q202.7031,151.3835 202.7031,152.1023 Q202.7031,152.8523 202.9063,153.3679 Q203.125,153.8679 203.4375,154.1492 Q203.7656,154.446 204.1719,154.571 Q204.5781,154.696 204.9688,154.696 Q205.3438,154.696 205.7031,154.5867 Q206.0781,154.4773 206.3906,154.2742 Q206.6563,154.1335 206.875,153.9617 Q207.1094,153.7742 207.25,153.6492 L207.4688,153.6492 L207.4688,155.5554 Q207.1719,155.696 206.8906,155.821 Q206.625,155.9304 206.3125,156.0085 Q205.9219,156.1179 205.5781,156.1804 Q205.2344,156.2429 204.6406,156.2429 Z "/><text fill="#AAAAAA" font-family="sans-serif" font-size="11" font-style="italic" lengthAdjust="spacingAndGlyphs" textLength="32" x="261.5" y="149.2104">«Pet»</text><text fill="#FFFFFF" font-family="Verdana" font-size="11" lengthAdjust="spacingAndGlyphs" textLength="125" x="215" y="162.8638">ConcreateProtoTypeB</text><line style="stroke: #1B1B1B; stroke-width: 1.5;" x1="193" x2="342" y1="170.1733" y2="170.1733"/><line style="stroke: #1B1B1B; stroke-width: 1.5;" x1="193" x2="342" y1="178.1733" y2="178.1733"/><ellipse cx="203" cy="189.1733" fill="#84BE84" rx="3" ry="3" style="stroke: #038048; stroke-width: 1.0;"/><text fill="#AAAAAA" font-family="sans-serif" font-size="11" lengthAdjust="spacingAndGlyphs" textLength="42" x="209" y="192.3838">clone();</text><path d="M110.5,260 L110.5,283.3687 L236.5,283.3687 L236.5,270 L226.5,260 L110.5,260 " fill="#BB6600" filter="url(#fv37gle9fbyj1)" style="stroke: #662200; stroke-width: 1.0;"/><path d="M226.5,260 L226.5,270 L236.5,270 L226.5,260 " fill="#BB6600" style="stroke: #662200; stroke-width: 1.0;"/><text fill="#FFFFFF" font-family="Verdana" font-size="11" lengthAdjust="spacingAndGlyphs" textLength="105" x="116.5" y="276.0591">return copy of self</text><!--MD5=[5686e520684a7ceb8b9578f72427dbbe]
link Client to ProtoType--><path d="M73.1,40.5 C92.93,40.5 120.56,40.5 144.14,40.5 " fill="none" id="Client-&gt;ProtoType" style="stroke: #FFFFFF; stroke-width: 1.0;"/><polygon fill="#FFFFFF" points="149.42,40.5,140.42,36.5,144.42,40.5,140.42,44.5,149.42,40.5" style="stroke: #FFFFFF; stroke-width: 1.0;"/><text fill="#BBBBBB" font-family="Verdana" font-size="11" lengthAdjust="spacingAndGlyphs" textLength="40" x="91.25" y="34.5591">clone()</text><!--MD5=[9be30f0534528904183c438de7f36f4d]
reverse link ProtoType to ConcreateProtoTypeA--><path d="M149.94,88.35 C136.43,103.58 121.77,120.11 109.49,133.95 " fill="none" id="ProtoType&lt;-ConcreateProtoTypeA" style="stroke: #FFFFFF; stroke-width: 1.0;"/><polygon fill="none" points="144.95,83.43,163.46,73.11,155.42,92.72,144.95,83.43" style="stroke: #FFFFFF; stroke-width: 1.0;"/><!--MD5=[096a8bc71646133d33e8b9ddc3b1eaec]
reverse link ProtoType to ConcreateProtoTypeB--><path d="M221.4,90.28 C230.4,104.96 240.04,120.69 248.16,133.95 " fill="none" id="ProtoType&lt;-ConcreateProtoTypeB" style="stroke: #FFFFFF; stroke-width: 1.0;"/><polygon fill="none" points="215.36,93.82,210.87,73.11,227.29,86.51,215.36,93.82" style="stroke: #FFFFFF; stroke-width: 1.0;"/><!--MD5=[3b4688adc898ef9fb1bdd182aca6f0a1]
link ConcreateProtoTypeA to N1--><path d="M109.85,199.24 C128.23,219.81 151.03,245.34 163.75,259.58 " fill="none" id="ConcreateProtoTypeA-N1" style="stroke: #FFFFFF; stroke-width: 1.0; stroke-dasharray: 7.0,7.0;"/><!--MD5=[6128b941a3e1ffaf03bf269101f6b5e3]
link ConcreateProtoTypeB to N1--><path d="M238.53,199.24 C219.76,219.81 196.46,245.34 183.46,259.58 " fill="none" id="ConcreateProtoTypeB-N1" style="stroke: #FFFFFF; stroke-width: 1.0; stroke-dasharray: 7.0,7.0;"/><!--MD5=[e2d0e0893663a24c08a63b6a3593b745]
@startuml prototype_pattern

!define DARKORANGE
!includeurl https://raw.githubusercontent.com/Drakemor/RedDress-PlantUML/master/style.puml

allow_mixing
rectangle Client #DarkOliveGreen

abstract class ProtoType <<Animal>> {
    + {abstract} clone();
}

class ConcreateProtoTypeA <<Wild>> {
    + clone();
}

class ConcreateProtoTypeB <<Pet>> {
    + clone();
}

Client -right-> ProtoType : clone()

ProtoType <|- - ConcreateProtoTypeA
ProtoType <|- - ConcreateProtoTypeB

note "return copy of self" as N1
ConcreateProtoTypeA .. N1
ConcreateProtoTypeB .. N1
@enduml

@startuml prototype_pattern










skinparam stereotypeCBackgroundColor BB6600



skinparam backgroundColor 777







skinparam circledCharacter {
  radius 8
  fontSize 11
  fontName Verdana
}

skinparam class {
    backgroundColor 2e2e2e
  borderColor 1b1b1b
    fontColor fff
  fontName Verdana
  fontSize 11
  stereotypeFontColor aaa
  stereotypeFontSize 11
    arrowColor fff
  arrowFontName Verdana
  arrowFontColor bbb
  arrowFontSize 11

  attributeFontColor aaa
  attributeFontSize 11
  attributeIconSize 11
}


skinparam actor {
    backgroundColor BB6600
  borderColor 662200
    fontColor fff
  fontName Verdana
  fontSize 11
  stereotypeFontColor aaa
  stereotypeFontSize 11
}

skinparam participant {
    backgroundColor 2e2e2e
  borderColor 1b1b1b
    fontColor fff
  fontName Verdana
  fontSize 11
  stereotypeFontColor aaa
  stereotypeFontSize 11
}

skinparam collections {
    backgroundColor 2e2e2e
  borderColor 1b1b1b
    fontColor fff
  fontName Verdana
  fontSize 11
  stereotypeFontColor aaa
  stereotypeFontSize 11
}

skinparam SequenceBox{
    backgroundColor 575757
  borderColor 767676
    fontColor fff
  fontName Verdana
  fontSize 11
  stereotypeFontColor aaa
  stereotypeFontSize 11
}


skinparam interface {
    backgroundColor BB6600
  borderColor 662200
    fontColor fff
  fontName Verdana
  fontSize 11
  stereotypeFontColor aaa
  stereotypeFontSize 11
}

skinparam component {
    backgroundColor 2e2e2e
  borderColor 1b1b1b
    fontColor fff
  fontName Verdana
  fontSize 11
  stereotypeFontColor aaa
  stereotypeFontSize 11
}

skinparam node {
    backgroundColor 2e2e2e
  borderColor 1b1b1b
    fontColor fff
  fontName Verdana
  fontSize 11
  stereotypeFontColor aaa
  stereotypeFontSize 11
}

skinparam database {
    backgroundColor 2e2e2e
  borderColor 1b1b1b
    fontColor fff
  fontName Verdana
  fontSize 11
  stereotypeFontColor aaa
  stereotypeFontSize 11
}

skinparam queue {
    backgroundColor 2e2e2e
  borderColor 1b1b1b
    fontColor fff
  fontName Verdana
  fontSize 11
  stereotypeFontColor aaa
  stereotypeFontSize 11
}


skinparam usecase {
    backgroundColor 2e2e2e
  borderColor 1b1b1b
    fontColor fff
  fontName Verdana
  fontSize 11
  stereotypeFontColor aaa
  stereotypeFontSize 11
    arrowColor fff
  arrowFontName Verdana
  arrowFontColor bbb
  arrowFontSize 11
}

skinparam activity {
    backgroundColor 2e2e2e
  borderColor 1b1b1b
    fontColor fff
  fontName Verdana
  fontSize 11
  stereotypeFontColor aaa
  stereotypeFontSize 11
    arrowColor fff
  arrowFontName Verdana
  arrowFontColor bbb
  arrowFontSize 11
}

skinparam sequence {
    fontColor fff
  fontName Verdana
  fontSize 11
  stereotypeFontColor aaa
  stereotypeFontSize 11
    arrowColor fff
  arrowFontName Verdana
  arrowFontColor bbb
  arrowFontSize 11

  lifeLineBorderColor BB6600
  lifeLineBackgroundColor 575757
}

skinparam boundary {
    backgroundColor BB6600
  borderColor 662200
    fontColor fff
  fontName Verdana
  fontSize 11
  stereotypeFontColor aaa
  stereotypeFontSize 11
}

skinparam control {
    backgroundColor BB6600
  borderColor 662200
    fontColor fff
  fontName Verdana
  fontSize 11
  stereotypeFontColor aaa
  stereotypeFontSize 11
}

skinparam entity {
    backgroundColor BB6600
  borderColor 662200
    fontColor fff
  fontName Verdana
  fontSize 11
  stereotypeFontColor aaa
  stereotypeFontSize 11
}


skinparam state {
    backgroundColor 2e2e2e
  borderColor 1b1b1b
    fontColor fff
  fontName Verdana
  fontSize 11
  stereotypeFontColor aaa
  stereotypeFontSize 11
    arrowColor fff
  arrowFontName Verdana
  arrowFontColor bbb
  arrowFontSize 11
  startColor BB6600
  endColor 662200
}


skinparam object {
    backgroundColor 2e2e2e
  borderColor 1b1b1b
    fontColor fff
  fontName Verdana
  fontSize 11
  stereotypeFontColor aaa
  stereotypeFontSize 11
    arrowColor fff
  arrowFontName Verdana
  arrowFontColor bbb
  arrowFontSize 11
}


skinparam note {
    backgroundColor BB6600
  borderColor 662200
    fontColor fff
  fontName Verdana
  fontSize 11
  stereotypeFontColor aaa
  stereotypeFontSize 11
}

skinparam cloud {
    backgroundColor 2e2e2e
  borderColor 1b1b1b
    fontColor fff
  fontName Verdana
  fontSize 11
  stereotypeFontColor aaa
  stereotypeFontSize 11
    arrowColor fff
  arrowFontName Verdana
  arrowFontColor bbb
  arrowFontSize 11
}

skinparam rectangle {
    backgroundColor 2e2e2e
  borderColor 1b1b1b
    fontColor fff
  fontName Verdana
  fontSize 11
  stereotypeFontColor aaa
  stereotypeFontSize 11
}

skinparam storage {
    backgroundColor 2e2e2e
  borderColor 1b1b1b
    fontColor fff
  fontName Verdana
  fontSize 11
  stereotypeFontColor aaa
  stereotypeFontSize 11
}


allow_mixing
rectangle Client #DarkOliveGreen

abstract class ProtoType <<Animal>> {
    + {abstract} clone();
}

class ConcreateProtoTypeA <<Wild>> {
    + clone();
}

class ConcreateProtoTypeB <<Pet>> {
    + clone();
}

Client -right-> ProtoType : clone()

ProtoType <|- - ConcreateProtoTypeA
ProtoType <|- - ConcreateProtoTypeB

note "return copy of self" as N1
ConcreateProtoTypeA .. N1
ConcreateProtoTypeB .. N1
@enduml

PlantUML version 1.2020.10(Sun May 17 15:05:57 IST 2020)
(GPL source distribution)
Java Runtime: OpenJDK Runtime Environment
JVM: OpenJDK 64-Bit Server VM
Java Version: 11.0.8+10-post-Ubuntu-0ubuntu120.04
Operating System: Linux
Default Encoding: UTF-8
Language: en
Country: IN
--></g></svg>