<?xml version="1.0" encoding="UTF-8" standalone="no"?><svg xmlns="http://www.w3.org/2000/svg" xmlns:xlink="http://www.w3.org/1999/xlink" contentScriptType="application/ecmascript" contentStyleType="text/css" height="314px" preserveAspectRatio="none" style="width:338px;height:314px;background:#777777;" version="1.1" viewBox="0 0 338 314" width="338px" zoomAndPan="magnify"><defs><filter height="300%" id="f1b0djzvlnfsyr" width="300%" x="-1" y="-1"><feGaussianBlur result="blurOut" stdDeviation="2.0"/><feColorMatrix in="blurOut" result="blurOut2" type="matrix" values="0 0 0 0 0 0 0 0 0 0 0 0 0 0 0 0 0 0 .4 0"/><feOffset dx="4.0" dy="4.0" in="blurOut2" result="blurOut3"/><feBlend in="SourceGraphic" in2="blurOut3" mode="normal"/></filter></defs><g><!--MD5=[fc07866a383d07d405a25512054a0e5c]
class Target--><rect fill="#2E2E2E" filter="url(#f1b0djzvlnfsyr)" height="64.978" id="Target" style="stroke: #1B1B1B; stroke-width: 1.5;" width="96" x="37" y="101"/><ellipse cx="49" cy="119.0867" fill="#BB6600" rx="8" ry="8" style="stroke: #1B1B1B; stroke-width: 1.0;"/><path d="M49.6406,123.2429 Q48.75,123.2429 47.9844,122.9773 Q47.2344,122.7117 46.6875,122.196 Q46.1563,121.6804 45.8438,120.8992 Q45.5469,120.1179 45.5469,119.1023 Q45.5469,118.1492 45.8281,117.3835 Q46.125,116.6023 46.6719,116.0398 Q47.1875,115.5085 47.9531,115.2273 Q48.7344,114.9304 49.6406,114.9304 Q50.1406,114.9304 50.5469,114.9929 Q50.9531,115.0398 51.2969,115.1335 Q51.6563,115.2429 51.9531,115.3679 Q52.25,115.4929 52.4688,115.6023 L52.4688,117.5398 L52.2344,117.5398 Q52.0781,117.4148 51.8438,117.2429 Q51.625,117.0554 51.3281,116.8835 Q51.0313,116.7117 50.6875,116.6023 Q50.3438,116.4773 49.9531,116.4773 Q49.5156,116.4773 49.125,116.6179 Q48.7344,116.7429 48.4063,117.071 Q48.0938,117.3679 47.8906,117.8835 Q47.7031,118.3835 47.7031,119.1023 Q47.7031,119.8523 47.9063,120.3679 Q48.125,120.8679 48.4375,121.1492 Q48.7656,121.446 49.1719,121.571 Q49.5781,121.696 49.9688,121.696 Q50.3438,121.696 50.7031,121.5867 Q51.0781,121.4773 51.3906,121.2742 Q51.6563,121.1335 51.875,120.9617 Q52.1094,120.7742 52.25,120.6492 L52.4688,120.6492 L52.4688,122.5554 Q52.1719,122.696 51.8906,122.821 Q51.625,122.9304 51.3125,123.0085 Q50.9219,123.1179 50.5781,123.1804 Q50.2344,123.2429 49.6406,123.2429 Z "/><text fill="#AAAAAA" font-family="sans-serif" font-size="11" font-style="italic" lengthAdjust="spacingAndGlyphs" textLength="74" x="58" y="116.2104">«USASocket»</text><text fill="#FFFFFF" font-family="Verdana" font-size="11" lengthAdjust="spacingAndGlyphs" textLength="37" x="76.5" y="129.8638">Target</text><line style="stroke: #1B1B1B; stroke-width: 1.5;" x1="38" x2="132" y1="137.1733" y2="137.1733"/><line style="stroke: #1B1B1B; stroke-width: 1.5;" x1="38" x2="132" y1="145.1733" y2="145.1733"/><ellipse cx="48" cy="156.1733" fill="#84BE84" rx="3" ry="3" style="stroke: #038048; stroke-width: 1.0;"/><text fill="#AAAAAA" font-family="sans-serif" font-size="11" lengthAdjust="spacingAndGlyphs" textLength="56" x="54" y="159.3838">request();</text><!--MD5=[f38a85e47f7d4f812523dd9b6d7d2c16]
class Adapter--><rect fill="#2E2E2E" filter="url(#f1b0djzvlnfsyr)" height="77.7827" id="Adapter" style="stroke: #1B1B1B; stroke-width: 1.5;" width="158" x="6" y="226"/><ellipse cx="18" cy="244.0867" fill="#BB6600" rx="8" ry="8" style="stroke: #1B1B1B; stroke-width: 1.0;"/><path d="M18.6406,248.2429 Q17.75,248.2429 16.9844,247.9773 Q16.2344,247.7117 15.6875,247.196 Q15.1563,246.6804 14.8438,245.8992 Q14.5469,245.1179 14.5469,244.1023 Q14.5469,243.1492 14.8281,242.3835 Q15.125,241.6023 15.6719,241.0398 Q16.1875,240.5085 16.9531,240.2273 Q17.7344,239.9304 18.6406,239.9304 Q19.1406,239.9304 19.5469,239.9929 Q19.9531,240.0398 20.2969,240.1335 Q20.6563,240.2429 20.9531,240.3679 Q21.25,240.4929 21.4688,240.6023 L21.4688,242.5398 L21.2344,242.5398 Q21.0781,242.4148 20.8438,242.2429 Q20.625,242.0554 20.3281,241.8835 Q20.0313,241.7117 19.6875,241.6023 Q19.3438,241.4773 18.9531,241.4773 Q18.5156,241.4773 18.125,241.6179 Q17.7344,241.7429 17.4063,242.071 Q17.0938,242.3679 16.8906,242.8835 Q16.7031,243.3835 16.7031,244.1023 Q16.7031,244.8523 16.9063,245.3679 Q17.125,245.8679 17.4375,246.1492 Q17.7656,246.446 18.1719,246.571 Q18.5781,246.696 18.9688,246.696 Q19.3438,246.696 19.7031,246.5867 Q20.0781,246.4773 20.3906,246.2742 Q20.6563,246.1335 20.875,245.9617 Q21.1094,245.7742 21.25,245.6492 L21.4688,245.6492 L21.4688,247.5554 Q21.1719,247.696 20.8906,247.821 Q20.625,247.9304 20.3125,248.0085 Q19.9219,248.1179 19.5781,248.1804 Q19.2344,248.2429 18.6406,248.2429 Z "/><text fill="#AAAAAA" font-family="sans-serif" font-size="11" font-style="italic" lengthAdjust="spacingAndGlyphs" textLength="136" x="27" y="241.2104">«USAAdapterEuropean»</text><text fill="#FFFFFF" font-family="Verdana" font-size="11" lengthAdjust="spacingAndGlyphs" textLength="45" x="72.5" y="254.8638">Adapter</text><line style="stroke: #1B1B1B; stroke-width: 1.5;" x1="7" x2="163" y1="262.1733" y2="262.1733"/><text fill="#AAAAAA" font-family="sans-serif" font-size="11" lengthAdjust="spacingAndGlyphs" textLength="100" x="12" y="276.3838">Adaptee adaptee;</text><line style="stroke: #1B1B1B; stroke-width: 1.5;" x1="7" x2="163" y1="282.978" y2="282.978"/><ellipse cx="17" cy="293.978" fill="#84BE84" rx="3" ry="3" style="stroke: #038048; stroke-width: 1.0;"/><text fill="#AAAAAA" font-family="sans-serif" font-size="11" lengthAdjust="spacingAndGlyphs" textLength="56" x="23" y="297.1885">request();</text><!--MD5=[7393b79429f23cd61e6e6a493d3a2b14]
class Adaptee--><rect fill="#2E2E2E" filter="url(#f1b0djzvlnfsyr)" height="64.978" id="Adaptee" style="stroke: #1B1B1B; stroke-width: 1.5;" width="128" x="199" y="232.5"/><ellipse cx="211.45" cy="250.5867" fill="#BB6600" rx="8" ry="8" style="stroke: #1B1B1B; stroke-width: 1.0;"/><path d="M212.0906,254.7429 Q211.2,254.7429 210.4344,254.4773 Q209.6844,254.2117 209.1375,253.696 Q208.6063,253.1804 208.2938,252.3992 Q207.9969,251.6179 207.9969,250.6023 Q207.9969,249.6492 208.2781,248.8835 Q208.575,248.1023 209.1219,247.5398 Q209.6375,247.0085 210.4031,246.7273 Q211.1844,246.4304 212.0906,246.4304 Q212.5906,246.4304 212.9969,246.4929 Q213.4031,246.5398 213.7469,246.6335 Q214.1063,246.7429 214.4031,246.8679 Q214.7,246.9929 214.9188,247.1023 L214.9188,249.0398 L214.6844,249.0398 Q214.5281,248.9148 214.2938,248.7429 Q214.075,248.5554 213.7781,248.3835 Q213.4813,248.2117 213.1375,248.1023 Q212.7938,247.9773 212.4031,247.9773 Q211.9656,247.9773 211.575,248.1179 Q211.1844,248.2429 210.8563,248.571 Q210.5438,248.8679 210.3406,249.3835 Q210.1531,249.8835 210.1531,250.6023 Q210.1531,251.3523 210.3563,251.8679 Q210.575,252.3679 210.8875,252.6492 Q211.2156,252.946 211.6219,253.071 Q212.0281,253.196 212.4188,253.196 Q212.7938,253.196 213.1531,253.0867 Q213.5281,252.9773 213.8406,252.7742 Q214.1063,252.6335 214.325,252.4617 Q214.5594,252.2742 214.7,252.1492 L214.9188,252.1492 L214.9188,254.0554 Q214.6219,254.196 214.3406,254.321 Q214.075,254.4304 213.7625,254.5085 Q213.3719,254.6179 213.0281,254.6804 Q212.6844,254.7429 212.0906,254.7429 Z "/><text fill="#AAAAAA" font-family="sans-serif" font-size="11" font-style="italic" lengthAdjust="spacingAndGlyphs" textLength="105" x="220.55" y="247.7104">«EuropeanSocket»</text><text fill="#FFFFFF" font-family="Verdana" font-size="11" lengthAdjust="spacingAndGlyphs" textLength="47" x="249.55" y="261.3638">Adaptee</text><line style="stroke: #1B1B1B; stroke-width: 1.5;" x1="200" x2="326" y1="268.6733" y2="268.6733"/><line style="stroke: #1B1B1B; stroke-width: 1.5;" x1="200" x2="326" y1="276.6733" y2="276.6733"/><ellipse cx="210" cy="287.6733" fill="#84BE84" rx="3" ry="3" style="stroke: #038048; stroke-width: 1.0;"/><text fill="#AAAAAA" font-family="sans-serif" font-size="11" lengthAdjust="spacingAndGlyphs" textLength="105" x="216" y="290.8838">specific_request();</text><!--MD5=[0ba5ee7700168656dc1b457c6fe9fdac]
entity Client--><rect fill="#556B2F" filter="url(#f1b0djzvlnfsyr)" height="33.3687" style="stroke: #1B1B1B; stroke-width: 1.5;" width="53" x="58.5" y="8"/><text fill="#FFFFFF" font-family="Verdana" font-size="11" lengthAdjust="spacingAndGlyphs" textLength="33" x="68.5" y="29.0591">Client</text><!--MD5=[431c3f1848dccc83292155c400886313]
link Client to Target--><path d="M85,41.29 C85,55.53 85,77.02 85,95.57 " fill="none" id="Client-&gt;Target" style="stroke: #FFFFFF; stroke-width: 1.0;"/><polygon fill="#FFFFFF" points="85,100.71,89,91.71,85,95.71,81,91.71,85,100.71" style="stroke: #FFFFFF; stroke-width: 1.0;"/><!--MD5=[e8afce381d6978114aa9e217ec9a4ba2]
reverse link Target to Adapter--><path d="M85,186.49 C85,199.6 85,213.43 85,225.73 " fill="none" id="Target&lt;-Adapter" style="stroke: #FFFFFF; stroke-width: 1.0;"/><polygon fill="none" points="78,186.18,85,166.18,92,186.18,78,186.18" style="stroke: #FFFFFF; stroke-width: 1.0;"/><!--MD5=[ac16be24c016d0cc1b5b2bfc6dfbddbe]
link Adapter to Adaptee--><path d="M164.27,265 C174.12,265 183.97,265 193.82,265 " fill="none" id="Adapter-&gt;Adaptee" style="stroke: #FFFFFF; stroke-width: 1.0;"/><polygon fill="#FFFFFF" points="198.98,265,189.98,261,193.98,265,189.98,269,198.98,265" style="stroke: #FFFFFF; stroke-width: 1.0;"/><!--MD5=[ab1d914ddbad033cdf5eceb90565e251]
@startuml adapter_pattern

!define DARKORANGE
!includeurl https://raw.githubusercontent.com/Drakemor/RedDress-PlantUML/master/style.puml

class Target <<USASocket>> {
    + request();
}

class Adapter <<USAAdapterEuropean>>{
    Adaptee adaptee;
    + request();
}

class Adaptee <<EuropeanSocket>>{
    + specific_request();
}

allow_mixing
rectangle Client #DarkOliveGreen
Client - -> Target 

Target <|-down- Adapter
Adapter -right-> Adaptee



@enduml

@startuml adapter_pattern










skinparam stereotypeCBackgroundColor BB6600



skinparam backgroundColor 777







skinparam circledCharacter {
  radius 8
  fontSize 11
  fontName Verdana
}

skinparam class {
    backgroundColor 2e2e2e
  borderColor 1b1b1b
    fontColor fff
  fontName Verdana
  fontSize 11
  stereotypeFontColor aaa
  stereotypeFontSize 11
    arrowColor fff
  arrowFontName Verdana
  arrowFontColor bbb
  arrowFontSize 11

  attributeFontColor aaa
  attributeFontSize 11
  attributeIconSize 11
}


skinparam actor {
    backgroundColor BB6600
  borderColor 662200
    fontColor fff
  fontName Verdana
  fontSize 11
  stereotypeFontColor aaa
  stereotypeFontSize 11
}

skinparam participant {
    backgroundColor 2e2e2e
  borderColor 1b1b1b
    fontColor fff
  fontName Verdana
  fontSize 11
  stereotypeFontColor aaa
  stereotypeFontSize 11
}

skinparam collections {
    backgroundColor 2e2e2e
  borderColor 1b1b1b
    fontColor fff
  fontName Verdana
  fontSize 11
  stereotypeFontColor aaa
  stereotypeFontSize 11
}

skinparam SequenceBox{
    backgroundColor 575757
  borderColor 767676
    fontColor fff
  fontName Verdana
  fontSize 11
  stereotypeFontColor aaa
  stereotypeFontSize 11
}


skinparam interface {
    backgroundColor BB6600
  borderColor 662200
    fontColor fff
  fontName Verdana
  fontSize 11
  stereotypeFontColor aaa
  stereotypeFontSize 11
}

skinparam component {
    backgroundColor 2e2e2e
  borderColor 1b1b1b
    fontColor fff
  fontName Verdana
  fontSize 11
  stereotypeFontColor aaa
  stereotypeFontSize 11
}

skinparam node {
    backgroundColor 2e2e2e
  borderColor 1b1b1b
    fontColor fff
  fontName Verdana
  fontSize 11
  stereotypeFontColor aaa
  stereotypeFontSize 11
}

skinparam database {
    backgroundColor 2e2e2e
  borderColor 1b1b1b
    fontColor fff
  fontName Verdana
  fontSize 11
  stereotypeFontColor aaa
  stereotypeFontSize 11
}

skinparam queue {
    backgroundColor 2e2e2e
  borderColor 1b1b1b
    fontColor fff
  fontName Verdana
  fontSize 11
  stereotypeFontColor aaa
  stereotypeFontSize 11
}


skinparam usecase {
    backgroundColor 2e2e2e
  borderColor 1b1b1b
    fontColor fff
  fontName Verdana
  fontSize 11
  stereotypeFontColor aaa
  stereotypeFontSize 11
    arrowColor fff
  arrowFontName Verdana
  arrowFontColor bbb
  arrowFontSize 11
}

skinparam activity {
    backgroundColor 2e2e2e
  borderColor 1b1b1b
    fontColor fff
  fontName Verdana
  fontSize 11
  stereotypeFontColor aaa
  stereotypeFontSize 11
    arrowColor fff
  arrowFontName Verdana
  arrowFontColor bbb
  arrowFontSize 11
}

skinparam sequence {
    fontColor fff
  fontName Verdana
  fontSize 11
  stereotypeFontColor aaa
  stereotypeFontSize 11
    arrowColor fff
  arrowFontName Verdana
  arrowFontColor bbb
  arrowFontSize 11

  lifeLineBorderColor BB6600
  lifeLineBackgroundColor 575757
}

skinparam boundary {
    backgroundColor BB6600
  borderColor 662200
    fontColor fff
  fontName Verdana
  fontSize 11
  stereotypeFontColor aaa
  stereotypeFontSize 11
}

skinparam control {
    backgroundColor BB6600
  borderColor 662200
    fontColor fff
  fontName Verdana
  fontSize 11
  stereotypeFontColor aaa
  stereotypeFontSize 11
}

skinparam entity {
    backgroundColor BB6600
  borderColor 662200
    fontColor fff
  fontName Verdana
  fontSize 11
  stereotypeFontColor aaa
  stereotypeFontSize 11
}


skinparam state {
    backgroundColor 2e2e2e
  borderColor 1b1b1b
    fontColor fff
  fontName Verdana
  fontSize 11
  stereotypeFontColor aaa
  stereotypeFontSize 11
    arrowColor fff
  arrowFontName Verdana
  arrowFontColor bbb
  arrowFontSize 11
  startColor BB6600
  endColor 662200
}


skinparam object {
    backgroundColor 2e2e2e
  borderColor 1b1b1b
    fontColor fff
  fontName Verdana
  fontSize 11
  stereotypeFontColor aaa
  stereotypeFontSize 11
    arrowColor fff
  arrowFontName Verdana
  arrowFontColor bbb
  arrowFontSize 11
}


skinparam note {
    backgroundColor BB6600
  borderColor 662200
    fontColor fff
  fontName Verdana
  fontSize 11
  stereotypeFontColor aaa
  stereotypeFontSize 11
}

skinparam cloud {
    backgroundColor 2e2e2e
  borderColor 1b1b1b
    fontColor fff
  fontName Verdana
  fontSize 11
  stereotypeFontColor aaa
  stereotypeFontSize 11
    arrowColor fff
  arrowFontName Verdana
  arrowFontColor bbb
  arrowFontSize 11
}

skinparam rectangle {
    backgroundColor 2e2e2e
  borderColor 1b1b1b
    fontColor fff
  fontName Verdana
  fontSize 11
  stereotypeFontColor aaa
  stereotypeFontSize 11
}

skinparam storage {
    backgroundColor 2e2e2e
  borderColor 1b1b1b
    fontColor fff
  fontName Verdana
  fontSize 11
  stereotypeFontColor aaa
  stereotypeFontSize 11
}


class Target <<USASocket>> {
    + request();
}

class Adapter <<USAAdapterEuropean>>{
    Adaptee adaptee;
    + request();
}

class Adaptee <<EuropeanSocket>>{
    + specific_request();
}

allow_mixing
rectangle Client #DarkOliveGreen
Client - -> Target 

Target <|-down- Adapter
Adapter -right-> Adaptee



@enduml

PlantUML version 1.2020.10(Sun May 17 15:05:57 IST 2020)
(GPL source distribution)
Java Runtime: OpenJDK Runtime Environment
JVM: OpenJDK 64-Bit Server VM
Java Version: 11.0.8+10-post-Ubuntu-0ubuntu120.04
Operating System: Linux
Default Encoding: UTF-8
Language: en
Country: IN
--></g></svg>