<?xml version="1.0" encoding="UTF-8" standalone="no"?><svg xmlns="http://www.w3.org/2000/svg" xmlns:xlink="http://www.w3.org/1999/xlink" contentScriptType="application/ecmascript" contentStyleType="text/css" height="247px" preserveAspectRatio="none" style="width:404px;height:247px;background:#777777;" version="1.1" viewBox="0 0 404 247" width="404px" zoomAndPan="magnify"><defs><filter height="300%" id="f10avgeiabzzob" width="300%" x="-1" y="-1"><feGaussianBlur result="blurOut" stdDeviation="2.0"/><feColorMatrix in="blurOut" result="blurOut2" type="matrix" values="0 0 0 0 0 0 0 0 0 0 0 0 0 0 0 0 0 0 .4 0"/><feOffset dx="4.0" dy="4.0" in="blurOut2" result="blurOut3"/><feBlend in="SourceGraphic" in2="blurOut3" mode="normal"/></filter></defs><g><!--MD5=[33915678e6473693955530c9f7f65b56]
class Abstract--><rect fill="#2E2E2E" filter="url(#f10avgeiabzzob)" height="90.5874" id="Abstract" style="stroke: #1B1B1B; stroke-width: 1.5;" width="141" x="128.5" y="8"/><ellipse cx="172" cy="26.0867" fill="#A9DCDF" rx="8" ry="8" style="stroke: #1B1B1B; stroke-width: 1.0;"/><path d="M175.9063,29.5867 L173.7813,29.5867 L173.2188,27.9773 L170.2656,27.9773 L169.7031,29.5867 L167.625,29.5867 L170.5781,21.5867 L172.9531,21.5867 L175.9063,29.5867 Z M172.7188,26.5085 L171.75,23.6335 L170.7656,26.5085 L172.7188,26.5085 Z "/><text fill="#AAAAAA" font-family="sans-serif" font-size="11" font-style="italic" lengthAdjust="spacingAndGlyphs" textLength="48" x="187.5" y="23.2104">«Game»</text><text fill="#FFFFFF" font-family="Verdana" font-size="11" font-style="italic" lengthAdjust="spacingAndGlyphs" textLength="47" x="188" y="36.8638">Abstract</text><line style="stroke: #1B1B1B; stroke-width: 1.5;" x1="129.5" x2="268.5" y1="44.1733" y2="44.1733"/><line style="stroke: #1B1B1B; stroke-width: 1.5;" x1="129.5" x2="268.5" y1="52.1733" y2="52.1733"/><ellipse cx="139.5" cy="63.1733" fill="#84BE84" rx="3" ry="3" style="stroke: #038048; stroke-width: 1.0;"/><text fill="#AAAAAA" font-family="sans-serif" font-size="11" lengthAdjust="spacingAndGlyphs" textLength="111" x="145.5" y="66.3838">template_method();</text><ellipse cx="139.5" cy="75.978" fill="#84BE84" rx="3" ry="3" style="stroke: #038048; stroke-width: 1.0;"/><text fill="#AAAAAA" font-family="sans-serif" font-size="11" font-style="italic" lengthAdjust="spacingAndGlyphs" textLength="118" x="145.5" y="79.1885">primitive_method1();</text><ellipse cx="139.5" cy="88.7827" fill="#84BE84" rx="3" ry="3" style="stroke: #038048; stroke-width: 1.0;"/><text fill="#AAAAAA" font-family="sans-serif" font-size="11" font-style="italic" lengthAdjust="spacingAndGlyphs" textLength="118" x="145.5" y="91.9932">primitive_method2();</text><!--MD5=[79abe10ec3d881e5b3877639a68811dc]
class ConcreateImplementatioA--><rect fill="#2E2E2E" filter="url(#f10avgeiabzzob)" height="77.7827" id="ConcreateImplementatioA" style="stroke: #1B1B1B; stroke-width: 1.5;" width="176" x="6" y="159"/><ellipse cx="18" cy="177.0867" fill="#BB6600" rx="8" ry="8" style="stroke: #1B1B1B; stroke-width: 1.0;"/><path d="M18.6406,181.2429 Q17.75,181.2429 16.9844,180.9773 Q16.2344,180.7117 15.6875,180.196 Q15.1563,179.6804 14.8438,178.8992 Q14.5469,178.1179 14.5469,177.1023 Q14.5469,176.1492 14.8281,175.3835 Q15.125,174.6023 15.6719,174.0398 Q16.1875,173.5085 16.9531,173.2273 Q17.7344,172.9304 18.6406,172.9304 Q19.1406,172.9304 19.5469,172.9929 Q19.9531,173.0398 20.2969,173.1335 Q20.6563,173.2429 20.9531,173.3679 Q21.25,173.4929 21.4688,173.6023 L21.4688,175.5398 L21.2344,175.5398 Q21.0781,175.4148 20.8438,175.2429 Q20.625,175.0554 20.3281,174.8835 Q20.0313,174.7117 19.6875,174.6023 Q19.3438,174.4773 18.9531,174.4773 Q18.5156,174.4773 18.125,174.6179 Q17.7344,174.7429 17.4063,175.071 Q17.0938,175.3679 16.8906,175.8835 Q16.7031,176.3835 16.7031,177.1023 Q16.7031,177.8523 16.9063,178.3679 Q17.125,178.8679 17.4375,179.1492 Q17.7656,179.446 18.1719,179.571 Q18.5781,179.696 18.9688,179.696 Q19.3438,179.696 19.7031,179.5867 Q20.0781,179.4773 20.3906,179.2742 Q20.6563,179.1335 20.875,178.9617 Q21.1094,178.7742 21.25,178.6492 L21.4688,178.6492 L21.4688,180.5554 Q21.1719,180.696 20.8906,180.821 Q20.625,180.9304 20.3125,181.0085 Q19.9219,181.1179 19.5781,181.1804 Q19.2344,181.2429 18.6406,181.2429 Z "/><text fill="#AAAAAA" font-family="sans-serif" font-size="11" font-style="italic" lengthAdjust="spacingAndGlyphs" textLength="45" x="81.5" y="174.2104">«Mario»</text><text fill="#FFFFFF" font-family="Verdana" font-size="11" lengthAdjust="spacingAndGlyphs" textLength="150" x="29" y="187.8638">ConcreateImplementatioA</text><line style="stroke: #1B1B1B; stroke-width: 1.5;" x1="7" x2="181" y1="195.1733" y2="195.1733"/><line style="stroke: #1B1B1B; stroke-width: 1.5;" x1="7" x2="181" y1="203.1733" y2="203.1733"/><ellipse cx="17" cy="214.1733" fill="#84BE84" rx="3" ry="3" style="stroke: #038048; stroke-width: 1.0;"/><text fill="#AAAAAA" font-family="sans-serif" font-size="11" lengthAdjust="spacingAndGlyphs" textLength="117" x="23" y="217.3838">primitive_method1();</text><ellipse cx="17" cy="226.978" fill="#84BE84" rx="3" ry="3" style="stroke: #038048; stroke-width: 1.0;"/><text fill="#AAAAAA" font-family="sans-serif" font-size="11" lengthAdjust="spacingAndGlyphs" textLength="117" x="23" y="230.1885">primitive_method2();</text><!--MD5=[760ae8a9b066c2503ca97b0ac745d950]
class ConcreateImplementatioB--><rect fill="#2E2E2E" filter="url(#f10avgeiabzzob)" height="77.7827" id="ConcreateImplementatioB" style="stroke: #1B1B1B; stroke-width: 1.5;" width="176" x="217" y="159"/><ellipse cx="229" cy="177.0867" fill="#BB6600" rx="8" ry="8" style="stroke: #1B1B1B; stroke-width: 1.0;"/><path d="M229.6406,181.2429 Q228.75,181.2429 227.9844,180.9773 Q227.2344,180.7117 226.6875,180.196 Q226.1563,179.6804 225.8438,178.8992 Q225.5469,178.1179 225.5469,177.1023 Q225.5469,176.1492 225.8281,175.3835 Q226.125,174.6023 226.6719,174.0398 Q227.1875,173.5085 227.9531,173.2273 Q228.7344,172.9304 229.6406,172.9304 Q230.1406,172.9304 230.5469,172.9929 Q230.9531,173.0398 231.2969,173.1335 Q231.6563,173.2429 231.9531,173.3679 Q232.25,173.4929 232.4688,173.6023 L232.4688,175.5398 L232.2344,175.5398 Q232.0781,175.4148 231.8438,175.2429 Q231.625,175.0554 231.3281,174.8835 Q231.0313,174.7117 230.6875,174.6023 Q230.3438,174.4773 229.9531,174.4773 Q229.5156,174.4773 229.125,174.6179 Q228.7344,174.7429 228.4063,175.071 Q228.0938,175.3679 227.8906,175.8835 Q227.7031,176.3835 227.7031,177.1023 Q227.7031,177.8523 227.9063,178.3679 Q228.125,178.8679 228.4375,179.1492 Q228.7656,179.446 229.1719,179.571 Q229.5781,179.696 229.9688,179.696 Q230.3438,179.696 230.7031,179.5867 Q231.0781,179.4773 231.3906,179.2742 Q231.6563,179.1335 231.875,178.9617 Q232.1094,178.7742 232.25,178.6492 L232.4688,178.6492 L232.4688,180.5554 Q232.1719,180.696 231.8906,180.821 Q231.625,180.9304 231.3125,181.0085 Q230.9219,181.1179 230.5781,181.1804 Q230.2344,181.2429 229.6406,181.2429 Z "/><text fill="#AAAAAA" font-family="sans-serif" font-size="11" font-style="italic" lengthAdjust="spacingAndGlyphs" textLength="68" x="281" y="174.2104">«TankFight»</text><text fill="#FFFFFF" font-family="Verdana" font-size="11" lengthAdjust="spacingAndGlyphs" textLength="150" x="240" y="187.8638">ConcreateImplementatioB</text><line style="stroke: #1B1B1B; stroke-width: 1.5;" x1="218" x2="392" y1="195.1733" y2="195.1733"/><line style="stroke: #1B1B1B; stroke-width: 1.5;" x1="218" x2="392" y1="203.1733" y2="203.1733"/><ellipse cx="228" cy="214.1733" fill="#84BE84" rx="3" ry="3" style="stroke: #038048; stroke-width: 1.0;"/><text fill="#AAAAAA" font-family="sans-serif" font-size="11" lengthAdjust="spacingAndGlyphs" textLength="117" x="234" y="217.3838">primitive_method1();</text><ellipse cx="228" cy="226.978" fill="#84BE84" rx="3" ry="3" style="stroke: #038048; stroke-width: 1.0;"/><text fill="#AAAAAA" font-family="sans-serif" font-size="11" lengthAdjust="spacingAndGlyphs" textLength="117" x="234" y="230.1885">primitive_method2();</text><!--MD5=[f77ce5dbcafcc89f0d6a2b62e51d3e31]
reverse link Abstract to ConcreateImplementatioA--><path d="M154.13,115.39 C143.3,130.09 132.04,145.38 122.22,158.7 " fill="none" id="Abstract&lt;-ConcreateImplementatioA" style="stroke: #FFFFFF; stroke-width: 1.0;"/><polygon fill="none" points="148.57,111.15,166.07,99.2,159.84,119.45,148.57,111.15" style="stroke: #FFFFFF; stroke-width: 1.0;"/><!--MD5=[1103249329c564f0268129591000fd6e]
reverse link Abstract to ConcreateImplementatioB--><path d="M244.3,115.39 C255.23,130.09 266.6,145.38 276.51,158.7 " fill="none" id="Abstract&lt;-ConcreateImplementatioB" style="stroke: #FFFFFF; stroke-width: 1.0;"/><polygon fill="none" points="238.57,119.42,232.25,99.2,249.8,111.07,238.57,119.42" style="stroke: #FFFFFF; stroke-width: 1.0;"/><!--MD5=[8e1758f05200ebd11ea5c46fec02837a]
@startuml template_method

!define DARKORANGE
!includeurl https://raw.githubusercontent.com/Drakemor/RedDress-PlantUML/master/style.puml

abstract class Abstract <<Game>> {
    + template_method();
    + {abstract} primitive_method1();
    + {abstract} primitive_method2();
}

class ConcreateImplementatioA <<Mario>>{
    + primitive_method1();
    + primitive_method2();
}

class ConcreateImplementatioB <<TankFight>>{
    + primitive_method1();
    + primitive_method2();
}

Abstract <|- - ConcreateImplementatioA
Abstract <|- - ConcreateImplementatioB

@enduml

@startuml template_method










skinparam stereotypeCBackgroundColor BB6600



skinparam backgroundColor 777







skinparam circledCharacter {
  radius 8
  fontSize 11
  fontName Verdana
}

skinparam class {
    backgroundColor 2e2e2e
  borderColor 1b1b1b
    fontColor fff
  fontName Verdana
  fontSize 11
  stereotypeFontColor aaa
  stereotypeFontSize 11
    arrowColor fff
  arrowFontName Verdana
  arrowFontColor bbb
  arrowFontSize 11

  attributeFontColor aaa
  attributeFontSize 11
  attributeIconSize 11
}


skinparam actor {
    backgroundColor BB6600
  borderColor 662200
    fontColor fff
  fontName Verdana
  fontSize 11
  stereotypeFontColor aaa
  stereotypeFontSize 11
}

skinparam participant {
    backgroundColor 2e2e2e
  borderColor 1b1b1b
    fontColor fff
  fontName Verdana
  fontSize 11
  stereotypeFontColor aaa
  stereotypeFontSize 11
}

skinparam collections {
    backgroundColor 2e2e2e
  borderColor 1b1b1b
    fontColor fff
  fontName Verdana
  fontSize 11
  stereotypeFontColor aaa
  stereotypeFontSize 11
}

skinparam SequenceBox{
    backgroundColor 575757
  borderColor 767676
    fontColor fff
  fontName Verdana
  fontSize 11
  stereotypeFontColor aaa
  stereotypeFontSize 11
}


skinparam interface {
    backgroundColor BB6600
  borderColor 662200
    fontColor fff
  fontName Verdana
  fontSize 11
  stereotypeFontColor aaa
  stereotypeFontSize 11
}

skinparam component {
    backgroundColor 2e2e2e
  borderColor 1b1b1b
    fontColor fff
  fontName Verdana
  fontSize 11
  stereotypeFontColor aaa
  stereotypeFontSize 11
}

skinparam node {
    backgroundColor 2e2e2e
  borderColor 1b1b1b
    fontColor fff
  fontName Verdana
  fontSize 11
  stereotypeFontColor aaa
  stereotypeFontSize 11
}

skinparam database {
    backgroundColor 2e2e2e
  borderColor 1b1b1b
    fontColor fff
  fontName Verdana
  fontSize 11
  stereotypeFontColor aaa
  stereotypeFontSize 11
}

skinparam queue {
    backgroundColor 2e2e2e
  borderColor 1b1b1b
    fontColor fff
  fontName Verdana
  fontSize 11
  stereotypeFontColor aaa
  stereotypeFontSize 11
}


skinparam usecase {
    backgroundColor 2e2e2e
  borderColor 1b1b1b
    fontColor fff
  fontName Verdana
  fontSize 11
  stereotypeFontColor aaa
  stereotypeFontSize 11
    arrowColor fff
  arrowFontName Verdana
  arrowFontColor bbb
  arrowFontSize 11
}

skinparam activity {
    backgroundColor 2e2e2e
  borderColor 1b1b1b
    fontColor fff
  fontName Verdana
  fontSize 11
  stereotypeFontColor aaa
  stereotypeFontSize 11
    arrowColor fff
  arrowFontName Verdana
  arrowFontColor bbb
  arrowFontSize 11
}

skinparam sequence {
    fontColor fff
  fontName Verdana
  fontSize 11
  stereotypeFontColor aaa
  stereotypeFontSize 11
    arrowColor fff
  arrowFontName Verdana
  arrowFontColor bbb
  arrowFontSize 11

  lifeLineBorderColor BB6600
  lifeLineBackgroundColor 575757
}

skinparam boundary {
    backgroundColor BB6600
  borderColor 662200
    fontColor fff
  fontName Verdana
  fontSize 11
  stereotypeFontColor aaa
  stereotypeFontSize 11
}

skinparam control {
    backgroundColor BB6600
  borderColor 662200
    fontColor fff
  fontName Verdana
  fontSize 11
  stereotypeFontColor aaa
  stereotypeFontSize 11
}

skinparam entity {
    backgroundColor BB6600
  borderColor 662200
    fontColor fff
  fontName Verdana
  fontSize 11
  stereotypeFontColor aaa
  stereotypeFontSize 11
}


skinparam state {
    backgroundColor 2e2e2e
  borderColor 1b1b1b
    fontColor fff
  fontName Verdana
  fontSize 11
  stereotypeFontColor aaa
  stereotypeFontSize 11
    arrowColor fff
  arrowFontName Verdana
  arrowFontColor bbb
  arrowFontSize 11
  startColor BB6600
  endColor 662200
}


skinparam object {
    backgroundColor 2e2e2e
  borderColor 1b1b1b
    fontColor fff
  fontName Verdana
  fontSize 11
  stereotypeFontColor aaa
  stereotypeFontSize 11
    arrowColor fff
  arrowFontName Verdana
  arrowFontColor bbb
  arrowFontSize 11
}


skinparam note {
    backgroundColor BB6600
  borderColor 662200
    fontColor fff
  fontName Verdana
  fontSize 11
  stereotypeFontColor aaa
  stereotypeFontSize 11
}

skinparam cloud {
    backgroundColor 2e2e2e
  borderColor 1b1b1b
    fontColor fff
  fontName Verdana
  fontSize 11
  stereotypeFontColor aaa
  stereotypeFontSize 11
    arrowColor fff
  arrowFontName Verdana
  arrowFontColor bbb
  arrowFontSize 11
}

skinparam rectangle {
    backgroundColor 2e2e2e
  borderColor 1b1b1b
    fontColor fff
  fontName Verdana
  fontSize 11
  stereotypeFontColor aaa
  stereotypeFontSize 11
}

skinparam storage {
    backgroundColor 2e2e2e
  borderColor 1b1b1b
    fontColor fff
  fontName Verdana
  fontSize 11
  stereotypeFontColor aaa
  stereotypeFontSize 11
}


abstract class Abstract <<Game>> {
    + template_method();
    + {abstract} primitive_method1();
    + {abstract} primitive_method2();
}

class ConcreateImplementatioA <<Mario>>{
    + primitive_method1();
    + primitive_method2();
}

class ConcreateImplementatioB <<TankFight>>{
    + primitive_method1();
    + primitive_method2();
}

Abstract <|- - ConcreateImplementatioA
Abstract <|- - ConcreateImplementatioB

@enduml

PlantUML version 1.2020.10(Sun May 17 15:05:57 IST 2020)
(GPL source distribution)
Java Runtime: OpenJDK Runtime Environment
JVM: OpenJDK 64-Bit Server VM
Java Version: 11.0.8+10-post-Ubuntu-0ubuntu120.04
Operating System: Linux
Default Encoding: UTF-8
Language: en
Country: IN
--></g></svg>