<?xml version="1.0" encoding="UTF-8" standalone="no"?><svg xmlns="http://www.w3.org/2000/svg" xmlns:xlink="http://www.w3.org/1999/xlink" contentScriptType="application/ecmascript" contentStyleType="text/css" height="352px" preserveAspectRatio="none" style="width:310px;height:352px;background:#777777;" version="1.1" viewBox="0 0 310 352" width="310px" zoomAndPan="magnify"><defs><filter height="300%" id="f41404w3gdiho" width="300%" x="-1" y="-1"><feGaussianBlur result="blurOut" stdDeviation="2.0"/><feColorMatrix in="blurOut" result="blurOut2" type="matrix" values="0 0 0 0 0 0 0 0 0 0 0 0 0 0 0 0 0 0 .4 0"/><feOffset dx="4.0" dy="4.0" in="blurOut2" result="blurOut3"/><feBlend in="SourceGraphic" in2="blurOut3" mode="normal"/></filter></defs><g><!--MD5=[4e13963c9dc916a21a8436ef39422b32]
class Component--><rect fill="#2E2E2E" filter="url(#f41404w3gdiho)" height="64.978" id="Component" style="stroke: #1B1B1B; stroke-width: 1.5;" width="129" x="6" y="126.5"/><ellipse cx="18" cy="144.5867" fill="#A9DCDF" rx="8" ry="8" style="stroke: #1B1B1B; stroke-width: 1.0;"/><path d="M21.9063,148.0867 L19.7813,148.0867 L19.2188,146.4773 L16.2656,146.4773 L15.7031,148.0867 L13.625,148.0867 L16.5781,140.0867 L18.9531,140.0867 L21.9063,148.0867 Z M18.7188,145.0085 L17.75,142.1335 L16.7656,145.0085 L18.7188,145.0085 Z "/><text fill="#AAAAAA" font-family="sans-serif" font-size="11" font-style="italic" lengthAdjust="spacingAndGlyphs" textLength="107" x="27" y="141.7104">«SongComponent»</text><text fill="#FFFFFF" font-family="Verdana" font-size="11" font-style="italic" lengthAdjust="spacingAndGlyphs" textLength="65" x="48" y="155.3638">Component</text><line style="stroke: #1B1B1B; stroke-width: 1.5;" x1="7" x2="134" y1="162.6733" y2="162.6733"/><line style="stroke: #1B1B1B; stroke-width: 1.5;" x1="7" x2="134" y1="170.6733" y2="170.6733"/><ellipse cx="17" cy="181.6733" fill="#84BE84" rx="3" ry="3" style="stroke: #038048; stroke-width: 1.0;"/><text fill="#AAAAAA" font-family="sans-serif" font-size="11" font-style="italic" lengthAdjust="spacingAndGlyphs" textLength="66" x="23" y="184.8838">operation();</text><!--MD5=[73d251a377f173325f21997c77c25ad9]
class Composite--><rect fill="#2E2E2E" filter="url(#f41404w3gdiho)" height="116.1968" id="Composite" style="stroke: #1B1B1B; stroke-width: 1.5;" width="129" x="170" y="101"/><ellipse cx="195.5" cy="119.0867" fill="#BB6600" rx="8" ry="8" style="stroke: #1B1B1B; stroke-width: 1.0;"/><path d="M196.1406,123.2429 Q195.25,123.2429 194.4844,122.9773 Q193.7344,122.7117 193.1875,122.196 Q192.6563,121.6804 192.3438,120.8992 Q192.0469,120.1179 192.0469,119.1023 Q192.0469,118.1492 192.3281,117.3835 Q192.625,116.6023 193.1719,116.0398 Q193.6875,115.5085 194.4531,115.2273 Q195.2344,114.9304 196.1406,114.9304 Q196.6406,114.9304 197.0469,114.9929 Q197.4531,115.0398 197.7969,115.1335 Q198.1563,115.2429 198.4531,115.3679 Q198.75,115.4929 198.9688,115.6023 L198.9688,117.5398 L198.7344,117.5398 Q198.5781,117.4148 198.3438,117.2429 Q198.125,117.0554 197.8281,116.8835 Q197.5313,116.7117 197.1875,116.6023 Q196.8438,116.4773 196.4531,116.4773 Q196.0156,116.4773 195.625,116.6179 Q195.2344,116.7429 194.9063,117.071 Q194.5938,117.3679 194.3906,117.8835 Q194.2031,118.3835 194.2031,119.1023 Q194.2031,119.8523 194.4063,120.3679 Q194.625,120.8679 194.9375,121.1492 Q195.2656,121.446 195.6719,121.571 Q196.0781,121.696 196.4688,121.696 Q196.8438,121.696 197.2031,121.5867 Q197.5781,121.4773 197.8906,121.2742 Q198.1563,121.1335 198.375,120.9617 Q198.6094,120.7742 198.75,120.6492 L198.9688,120.6492 L198.9688,122.5554 Q198.6719,122.696 198.3906,122.821 Q198.125,122.9304 197.8125,123.0085 Q197.4219,123.1179 197.0781,123.1804 Q196.7344,123.2429 196.1406,123.2429 Z "/><text fill="#AAAAAA" font-family="sans-serif" font-size="11" font-style="italic" lengthAdjust="spacingAndGlyphs" textLength="77" x="207.5" y="116.2104">«SongGroup»</text><text fill="#FFFFFF" font-family="Verdana" font-size="11" lengthAdjust="spacingAndGlyphs" textLength="61" x="215.5" y="129.8638">Composite</text><line style="stroke: #1B1B1B; stroke-width: 1.5;" x1="171" x2="298" y1="137.1733" y2="137.1733"/><rect fill="none" height="6" style="stroke: #C82930; stroke-width: 1.0;" width="6" x="178" y="145.1733"/><text fill="#AAAAAA" font-family="sans-serif" font-size="11" lengthAdjust="spacingAndGlyphs" textLength="98" x="187" y="151.3838">list&lt;component&gt;</text><line style="stroke: #1B1B1B; stroke-width: 1.5;" x1="171" x2="298" y1="157.978" y2="157.978"/><ellipse cx="181" cy="168.978" fill="#84BE84" rx="3" ry="3" style="stroke: #038048; stroke-width: 1.0;"/><text fill="#AAAAAA" font-family="sans-serif" font-size="11" lengthAdjust="spacingAndGlyphs" textLength="33" x="187" y="172.1885">add();</text><ellipse cx="181" cy="181.7827" fill="#84BE84" rx="3" ry="3" style="stroke: #038048; stroke-width: 1.0;"/><text fill="#AAAAAA" font-family="sans-serif" font-size="11" lengthAdjust="spacingAndGlyphs" textLength="55" x="187" y="184.9932">remove();</text><ellipse cx="181" cy="194.5874" fill="#84BE84" rx="3" ry="3" style="stroke: #038048; stroke-width: 1.0;"/><text fill="#AAAAAA" font-family="sans-serif" font-size="11" lengthAdjust="spacingAndGlyphs" textLength="106" x="187" y="197.7979">get_components();</text><ellipse cx="181" cy="207.3921" fill="#84BE84" rx="3" ry="3" style="stroke: #038048; stroke-width: 1.0;"/><text fill="#AAAAAA" font-family="sans-serif" font-size="11" lengthAdjust="spacingAndGlyphs" textLength="66" x="187" y="210.6025">operation();</text><!--MD5=[3670a9b67b8a752f6e42da25dea7e2da]
class Leaf--><rect fill="#2E2E2E" filter="url(#f41404w3gdiho)" height="64.978" id="Leaf" style="stroke: #1B1B1B; stroke-width: 1.5;" width="89" x="26" y="277"/><ellipse cx="49.25" cy="295.0867" fill="#BB6600" rx="8" ry="8" style="stroke: #1B1B1B; stroke-width: 1.0;"/><path d="M49.8906,299.2429 Q49,299.2429 48.2344,298.9773 Q47.4844,298.7117 46.9375,298.196 Q46.4063,297.6804 46.0938,296.8992 Q45.7969,296.1179 45.7969,295.1023 Q45.7969,294.1492 46.0781,293.3835 Q46.375,292.6023 46.9219,292.0398 Q47.4375,291.5085 48.2031,291.2273 Q48.9844,290.9304 49.8906,290.9304 Q50.3906,290.9304 50.7969,290.9929 Q51.2031,291.0398 51.5469,291.1335 Q51.9063,291.2429 52.2031,291.3679 Q52.5,291.4929 52.7188,291.6023 L52.7188,293.5398 L52.4844,293.5398 Q52.3281,293.4148 52.0938,293.2429 Q51.875,293.0554 51.5781,292.8835 Q51.2813,292.7117 50.9375,292.6023 Q50.5938,292.4773 50.2031,292.4773 Q49.7656,292.4773 49.375,292.6179 Q48.9844,292.7429 48.6563,293.071 Q48.3438,293.3679 48.1406,293.8835 Q47.9531,294.3835 47.9531,295.1023 Q47.9531,295.8523 48.1563,296.3679 Q48.375,296.8679 48.6875,297.1492 Q49.0156,297.446 49.4219,297.571 Q49.8281,297.696 50.2188,297.696 Q50.5938,297.696 50.9531,297.5867 Q51.3281,297.4773 51.6406,297.2742 Q51.9063,297.1335 52.125,296.9617 Q52.3594,296.7742 52.5,296.6492 L52.7188,296.6492 L52.7188,298.5554 Q52.4219,298.696 52.1406,298.821 Q51.875,298.9304 51.5625,299.0085 Q51.1719,299.1179 50.8281,299.1804 Q50.4844,299.2429 49.8906,299.2429 Z "/><text fill="#AAAAAA" font-family="sans-serif" font-size="11" font-style="italic" lengthAdjust="spacingAndGlyphs" textLength="42" x="60.75" y="292.2104">«Song»</text><text fill="#FFFFFF" font-family="Verdana" font-size="11" lengthAdjust="spacingAndGlyphs" textLength="24" x="69.75" y="305.8638">Leaf</text><line style="stroke: #1B1B1B; stroke-width: 1.5;" x1="27" x2="114" y1="313.1733" y2="313.1733"/><line style="stroke: #1B1B1B; stroke-width: 1.5;" x1="27" x2="114" y1="321.1733" y2="321.1733"/><ellipse cx="37" cy="332.1733" fill="#84BE84" rx="3" ry="3" style="stroke: #038048; stroke-width: 1.0;"/><text fill="#AAAAAA" font-family="sans-serif" font-size="11" lengthAdjust="spacingAndGlyphs" textLength="66" x="43" y="335.3838">operation();</text><!--MD5=[0ba5ee7700168656dc1b457c6fe9fdac]
entity Client--><rect fill="#556B2F" filter="url(#f41404w3gdiho)" height="33.3687" style="stroke: #1B1B1B; stroke-width: 1.5;" width="53" x="44" y="8"/><text fill="#FFFFFF" font-family="Verdana" font-size="11" lengthAdjust="spacingAndGlyphs" textLength="33" x="54" y="29.0591">Client</text><!--MD5=[fa39e0b8b995cfad057d1e097dfd30f9]
link Client to Component--><path d="M70.5,41.22 C70.5,60.82 70.5,94.95 70.5,121.27 " fill="none" id="Client-&gt;Component" style="stroke: #FFFFFF; stroke-width: 1.0;"/><polygon fill="#FFFFFF" points="70.5,126.42,74.5,117.42,70.5,121.42,66.5,117.42,70.5,126.42" style="stroke: #FFFFFF; stroke-width: 1.0;"/><!--MD5=[d08e8c878fbc40ecc1404728b0bb96b1]
reverse link Component to Composite--><path d="M155.43,183.34 C160.2,183.24 164.96,182.89 169.72,182.3 " fill="none" id="Component&lt;-Composite" style="stroke: #FFFFFF; stroke-width: 1.0;"/><polygon fill="none" points="154.81,190.32,135.2,182.29,155.54,176.34,154.81,190.32" style="stroke: #FFFFFF; stroke-width: 1.0;"/><!--MD5=[a1391b63cd2ce982094058ba29337eac]
link Composite to Component--><path d="M169.72,135.7 C159.93,134.48 150.13,134.3 140.33,135.16 " fill="none" id="Composite-&gt;Component" style="stroke: #FFFFFF; stroke-width: 1.0;"/><polygon fill="#FFFFFF" points="135.2,135.71,144.5725,138.736,140.172,135.1814,143.7267,130.7809,135.2,135.71" style="stroke: #FFFFFF; stroke-width: 1.0;"/><text fill="#BBBBBB" font-family="Verdana" font-size="11" lengthAdjust="spacingAndGlyphs" textLength="7" x="154.8251" y="130.3234">1</text><text fill="#BBBBBB" font-family="Verdana" font-size="11" lengthAdjust="spacingAndGlyphs" textLength="22" x="140.1138" y="129.54">0..*</text><!--MD5=[2b8a550542006e17ac803e491d55f4e4]
reverse link Component to Leaf--><path d="M70.5,211.9 C70.5,233.58 70.5,258.06 70.5,276.95 " fill="none" id="Component&lt;-Leaf" style="stroke: #FFFFFF; stroke-width: 1.0;"/><polygon fill="none" points="63.5,211.86,70.5,191.86,77.5,211.86,63.5,211.86" style="stroke: #FFFFFF; stroke-width: 1.0;"/><!--MD5=[dd8be698f395572f8d9d9c7c2810c223]
@startuml composite_pattern

!define DARKORANGE
!includeurl https://raw.githubusercontent.com/Drakemor/RedDress-PlantUML/master/style.puml

abstract class Component <<SongComponent>> {
    + {abstract} operation();
}

class Composite <<SongGroup>> {
    - list<component>
    + add();
    + remove();
    + get_components();
    + operation();
}

class Leaf <<Song>> {
    + operation();
}

allow_mixing
rectangle Client #DarkOliveGreen
Client - -> Component 

Component <|-right- Composite
Component <|-down- Leaf
Composite "1" - -> "0..*" Component 


@enduml

@startuml composite_pattern










skinparam stereotypeCBackgroundColor BB6600



skinparam backgroundColor 777







skinparam circledCharacter {
  radius 8
  fontSize 11
  fontName Verdana
}

skinparam class {
    backgroundColor 2e2e2e
  borderColor 1b1b1b
    fontColor fff
  fontName Verdana
  fontSize 11
  stereotypeFontColor aaa
  stereotypeFontSize 11
    arrowColor fff
  arrowFontName Verdana
  arrowFontColor bbb
  arrowFontSize 11

  attributeFontColor aaa
  attributeFontSize 11
  attributeIconSize 11
}


skinparam actor {
    backgroundColor BB6600
  borderColor 662200
    fontColor fff
  fontName Verdana
  fontSize 11
  stereotypeFontColor aaa
  stereotypeFontSize 11
}

skinparam participant {
    backgroundColor 2e2e2e
  borderColor 1b1b1b
    fontColor fff
  fontName Verdana
  fontSize 11
  stereotypeFontColor aaa
  stereotypeFontSize 11
}

skinparam collections {
    backgroundColor 2e2e2e
  borderColor 1b1b1b
    fontColor fff
  fontName Verdana
  fontSize 11
  stereotypeFontColor aaa
  stereotypeFontSize 11
}

skinparam SequenceBox{
    backgroundColor 575757
  borderColor 767676
    fontColor fff
  fontName Verdana
  fontSize 11
  stereotypeFontColor aaa
  stereotypeFontSize 11
}


skinparam interface {
    backgroundColor BB6600
  borderColor 662200
    fontColor fff
  fontName Verdana
  fontSize 11
  stereotypeFontColor aaa
  stereotypeFontSize 11
}

skinparam component {
    backgroundColor 2e2e2e
  borderColor 1b1b1b
    fontColor fff
  fontName Verdana
  fontSize 11
  stereotypeFontColor aaa
  stereotypeFontSize 11
}

skinparam node {
    backgroundColor 2e2e2e
  borderColor 1b1b1b
    fontColor fff
  fontName Verdana
  fontSize 11
  stereotypeFontColor aaa
  stereotypeFontSize 11
}

skinparam database {
    backgroundColor 2e2e2e
  borderColor 1b1b1b
    fontColor fff
  fontName Verdana
  fontSize 11
  stereotypeFontColor aaa
  stereotypeFontSize 11
}

skinparam queue {
    backgroundColor 2e2e2e
  borderColor 1b1b1b
    fontColor fff
  fontName Verdana
  fontSize 11
  stereotypeFontColor aaa
  stereotypeFontSize 11
}


skinparam usecase {
    backgroundColor 2e2e2e
  borderColor 1b1b1b
    fontColor fff
  fontName Verdana
  fontSize 11
  stereotypeFontColor aaa
  stereotypeFontSize 11
    arrowColor fff
  arrowFontName Verdana
  arrowFontColor bbb
  arrowFontSize 11
}

skinparam activity {
    backgroundColor 2e2e2e
  borderColor 1b1b1b
    fontColor fff
  fontName Verdana
  fontSize 11
  stereotypeFontColor aaa
  stereotypeFontSize 11
    arrowColor fff
  arrowFontName Verdana
  arrowFontColor bbb
  arrowFontSize 11
}

skinparam sequence {
    fontColor fff
  fontName Verdana
  fontSize 11
  stereotypeFontColor aaa
  stereotypeFontSize 11
    arrowColor fff
  arrowFontName Verdana
  arrowFontColor bbb
  arrowFontSize 11

  lifeLineBorderColor BB6600
  lifeLineBackgroundColor 575757
}

skinparam boundary {
    backgroundColor BB6600
  borderColor 662200
    fontColor fff
  fontName Verdana
  fontSize 11
  stereotypeFontColor aaa
  stereotypeFontSize 11
}

skinparam control {
    backgroundColor BB6600
  borderColor 662200
    fontColor fff
  fontName Verdana
  fontSize 11
  stereotypeFontColor aaa
  stereotypeFontSize 11
}

skinparam entity {
    backgroundColor BB6600
  borderColor 662200
    fontColor fff
  fontName Verdana
  fontSize 11
  stereotypeFontColor aaa
  stereotypeFontSize 11
}


skinparam state {
    backgroundColor 2e2e2e
  borderColor 1b1b1b
    fontColor fff
  fontName Verdana
  fontSize 11
  stereotypeFontColor aaa
  stereotypeFontSize 11
    arrowColor fff
  arrowFontName Verdana
  arrowFontColor bbb
  arrowFontSize 11
  startColor BB6600
  endColor 662200
}


skinparam object {
    backgroundColor 2e2e2e
  borderColor 1b1b1b
    fontColor fff
  fontName Verdana
  fontSize 11
  stereotypeFontColor aaa
  stereotypeFontSize 11
    arrowColor fff
  arrowFontName Verdana
  arrowFontColor bbb
  arrowFontSize 11
}


skinparam note {
    backgroundColor BB6600
  borderColor 662200
    fontColor fff
  fontName Verdana
  fontSize 11
  stereotypeFontColor aaa
  stereotypeFontSize 11
}

skinparam cloud {
    backgroundColor 2e2e2e
  borderColor 1b1b1b
    fontColor fff
  fontName Verdana
  fontSize 11
  stereotypeFontColor aaa
  stereotypeFontSize 11
    arrowColor fff
  arrowFontName Verdana
  arrowFontColor bbb
  arrowFontSize 11
}

skinparam rectangle {
    backgroundColor 2e2e2e
  borderColor 1b1b1b
    fontColor fff
  fontName Verdana
  fontSize 11
  stereotypeFontColor aaa
  stereotypeFontSize 11
}

skinparam storage {
    backgroundColor 2e2e2e
  borderColor 1b1b1b
    fontColor fff
  fontName Verdana
  fontSize 11
  stereotypeFontColor aaa
  stereotypeFontSize 11
}


abstract class Component <<SongComponent>> {
    + {abstract} operation();
}

class Composite <<SongGroup>> {
    - list<component>
    + add();
    + remove();
    + get_components();
    + operation();
}

class Leaf <<Song>> {
    + operation();
}

allow_mixing
rectangle Client #DarkOliveGreen
Client - -> Component 

Component <|-right- Composite
Component <|-down- Leaf
Composite "1" - -> "0..*" Component 


@enduml

PlantUML version 1.2020.10(Sun May 17 15:05:57 IST 2020)
(GPL source distribution)
Java Runtime: OpenJDK Runtime Environment
JVM: OpenJDK 64-Bit Server VM
Java Version: 11.0.8+10-post-Ubuntu-0ubuntu120.04
Operating System: Linux
Default Encoding: UTF-8
Language: en
Country: IN
--></g></svg>