<?xml version="1.0" encoding="UTF-8" standalone="no"?><svg xmlns="http://www.w3.org/2000/svg" xmlns:xlink="http://www.w3.org/1999/xlink" contentScriptType="application/ecmascript" contentStyleType="text/css" height="208px" preserveAspectRatio="none" style="width:397px;height:208px;background:#777777;" version="1.1" viewBox="0 0 397 208" width="397px" zoomAndPan="magnify"><defs><filter height="300%" id="f1bdld21hn2h1o" width="300%" x="-1" y="-1"><feGaussianBlur result="blurOut" stdDeviation="2.0"/><feColorMatrix in="blurOut" result="blurOut2" type="matrix" values="0 0 0 0 0 0 0 0 0 0 0 0 0 0 0 0 0 0 .4 0"/><feOffset dx="4.0" dy="4.0" in="blurOut2" result="blurOut3"/><feBlend in="SourceGraphic" in2="blurOut3" mode="normal"/></filter></defs><g><!--MD5=[0ba5ee7700168656dc1b457c6fe9fdac]
entity Client--><rect fill="#556B2F" filter="url(#f1bdld21hn2h1o)" height="33.3687" style="stroke: #1B1B1B; stroke-width: 1.5;" width="53" x="51.5" y="24"/><text fill="#FFFFFF" font-family="Verdana" font-size="11" lengthAdjust="spacingAndGlyphs" textLength="33" x="61.5" y="45.0591">Client</text><!--MD5=[15d72c8711f4f13431e160a1a5f39dd7]
class AbstractObject--><rect fill="#2E2E2E" filter="url(#f1bdld21hn2h1o)" height="64.978" id="AbstractObject" style="stroke: #1B1B1B; stroke-width: 1.5;" width="110" x="140" y="8"/><ellipse cx="152" cy="26.0867" fill="#A9DCDF" rx="8" ry="8" style="stroke: #1B1B1B; stroke-width: 1.0;"/><path d="M155.9063,29.5867 L153.7813,29.5867 L153.2188,27.9773 L150.2656,27.9773 L149.7031,29.5867 L147.625,29.5867 L150.5781,21.5867 L152.9531,21.5867 L155.9063,29.5867 Z M152.7188,26.5085 L151.75,23.6335 L150.7656,26.5085 L152.7188,26.5085 Z "/><text fill="#AAAAAA" font-family="sans-serif" font-size="11" font-style="italic" lengthAdjust="spacingAndGlyphs" textLength="69" x="170.5" y="23.2104">«Customer»</text><text fill="#FFFFFF" font-family="Verdana" font-size="11" font-style="italic" lengthAdjust="spacingAndGlyphs" textLength="84" x="163" y="36.8638">AbstractObject</text><line style="stroke: #1B1B1B; stroke-width: 1.5;" x1="141" x2="249" y1="44.1733" y2="44.1733"/><line style="stroke: #1B1B1B; stroke-width: 1.5;" x1="141" x2="249" y1="52.1733" y2="52.1733"/><ellipse cx="151" cy="63.1733" fill="#84BE84" rx="3" ry="3" style="stroke: #038048; stroke-width: 1.0;"/><text fill="#AAAAAA" font-family="sans-serif" font-size="11" font-style="italic" lengthAdjust="spacingAndGlyphs" textLength="55" x="157" y="66.3838">request();</text><!--MD5=[d5ab480e1c5d0463859d34ed2e965a71]
class RealObject--><rect fill="#2E2E2E" filter="url(#f1bdld21hn2h1o)" height="64.978" id="RealObject" style="stroke: #1B1B1B; stroke-width: 1.5;" width="116" x="270" y="133"/><ellipse cx="282" cy="151.0867" fill="#BB6600" rx="8" ry="8" style="stroke: #1B1B1B; stroke-width: 1.0;"/><path d="M282.6406,155.2429 Q281.75,155.2429 280.9844,154.9773 Q280.2344,154.7117 279.6875,154.196 Q279.1563,153.6804 278.8438,152.8992 Q278.5469,152.1179 278.5469,151.1023 Q278.5469,150.1492 278.8281,149.3835 Q279.125,148.6023 279.6719,148.0398 Q280.1875,147.5085 280.9531,147.2273 Q281.7344,146.9304 282.6406,146.9304 Q283.1406,146.9304 283.5469,146.9929 Q283.9531,147.0398 284.2969,147.1335 Q284.6563,147.2429 284.9531,147.3679 Q285.25,147.4929 285.4688,147.6023 L285.4688,149.5398 L285.2344,149.5398 Q285.0781,149.4148 284.8438,149.2429 Q284.625,149.0554 284.3281,148.8835 Q284.0313,148.7117 283.6875,148.6023 Q283.3438,148.4773 282.9531,148.4773 Q282.5156,148.4773 282.125,148.6179 Q281.7344,148.7429 281.4063,149.071 Q281.0938,149.3679 280.8906,149.8835 Q280.7031,150.3835 280.7031,151.1023 Q280.7031,151.8523 280.9063,152.3679 Q281.125,152.8679 281.4375,153.1492 Q281.7656,153.446 282.1719,153.571 Q282.5781,153.696 282.9688,153.696 Q283.3438,153.696 283.7031,153.5867 Q284.0781,153.4773 284.3906,153.2742 Q284.6563,153.1335 284.875,152.9617 Q285.1094,152.7742 285.25,152.6492 L285.4688,152.6492 L285.4688,154.5554 Q285.1719,154.696 284.8906,154.821 Q284.625,154.9304 284.3125,155.0085 Q283.9219,155.1179 283.5781,155.1804 Q283.2344,155.2429 282.6406,155.2429 Z "/><text fill="#AAAAAA" font-family="sans-serif" font-size="11" font-style="italic" lengthAdjust="spacingAndGlyphs" textLength="94" x="291" y="148.2104">«RealCustomer»</text><text fill="#FFFFFF" font-family="Verdana" font-size="11" lengthAdjust="spacingAndGlyphs" textLength="62" x="307" y="161.8638">RealObject</text><line style="stroke: #1B1B1B; stroke-width: 1.5;" x1="271" x2="385" y1="169.1733" y2="169.1733"/><line style="stroke: #1B1B1B; stroke-width: 1.5;" x1="271" x2="385" y1="177.1733" y2="177.1733"/><ellipse cx="281" cy="188.1733" fill="#84BE84" rx="3" ry="3" style="stroke: #038048; stroke-width: 1.0;"/><text fill="#AAAAAA" font-family="sans-serif" font-size="11" lengthAdjust="spacingAndGlyphs" textLength="56" x="287" y="191.3838">request();</text><!--MD5=[3f328f99dd1f7d83dd187cf2fceb5706]
class NullObject--><rect fill="#2E2E2E" filter="url(#f1bdld21hn2h1o)" height="64.978" id="NullObject" style="stroke: #1B1B1B; stroke-width: 1.5;" width="112" x="6" y="133"/><ellipse cx="18" cy="151.0867" fill="#BB6600" rx="8" ry="8" style="stroke: #1B1B1B; stroke-width: 1.0;"/><path d="M18.6406,155.2429 Q17.75,155.2429 16.9844,154.9773 Q16.2344,154.7117 15.6875,154.196 Q15.1563,153.6804 14.8438,152.8992 Q14.5469,152.1179 14.5469,151.1023 Q14.5469,150.1492 14.8281,149.3835 Q15.125,148.6023 15.6719,148.0398 Q16.1875,147.5085 16.9531,147.2273 Q17.7344,146.9304 18.6406,146.9304 Q19.1406,146.9304 19.5469,146.9929 Q19.9531,147.0398 20.2969,147.1335 Q20.6563,147.2429 20.9531,147.3679 Q21.25,147.4929 21.4688,147.6023 L21.4688,149.5398 L21.2344,149.5398 Q21.0781,149.4148 20.8438,149.2429 Q20.625,149.0554 20.3281,148.8835 Q20.0313,148.7117 19.6875,148.6023 Q19.3438,148.4773 18.9531,148.4773 Q18.5156,148.4773 18.125,148.6179 Q17.7344,148.7429 17.4063,149.071 Q17.0938,149.3679 16.8906,149.8835 Q16.7031,150.3835 16.7031,151.1023 Q16.7031,151.8523 16.9063,152.3679 Q17.125,152.8679 17.4375,153.1492 Q17.7656,153.446 18.1719,153.571 Q18.5781,153.696 18.9688,153.696 Q19.3438,153.696 19.7031,153.5867 Q20.0781,153.4773 20.3906,153.2742 Q20.6563,153.1335 20.875,152.9617 Q21.1094,152.7742 21.25,152.6492 L21.4688,152.6492 L21.4688,154.5554 Q21.1719,154.696 20.8906,154.821 Q20.625,154.9304 20.3125,155.0085 Q19.9219,155.1179 19.5781,155.1804 Q19.2344,155.2429 18.6406,155.2429 Z "/><text fill="#AAAAAA" font-family="sans-serif" font-size="11" font-style="italic" lengthAdjust="spacingAndGlyphs" textLength="90" x="27" y="148.2104">«NullCustomer»</text><text fill="#FFFFFF" font-family="Verdana" font-size="11" lengthAdjust="spacingAndGlyphs" textLength="58" x="43" y="161.8638">NullObject</text><line style="stroke: #1B1B1B; stroke-width: 1.5;" x1="7" x2="117" y1="169.1733" y2="169.1733"/><line style="stroke: #1B1B1B; stroke-width: 1.5;" x1="7" x2="117" y1="177.1733" y2="177.1733"/><ellipse cx="17" cy="188.1733" fill="#84BE84" rx="3" ry="3" style="stroke: #038048; stroke-width: 1.0;"/><text fill="#AAAAAA" font-family="sans-serif" font-size="11" lengthAdjust="spacingAndGlyphs" textLength="56" x="23" y="191.3838">request();</text><path d="M153.5,154 L153.5,161.5 L118.2,165.5 L153.5,169.5 L153.5,177.3687 A0,0 0 0 0 153.5,177.3687 L234.5,177.3687 A0,0 0 0 0 234.5,177.3687 L234.5,164 L224.5,154 L153.5,154 A0,0 0 0 0 153.5,154 " fill="#BB6600" filter="url(#f1bdld21hn2h1o)" style="stroke: #662200; stroke-width: 1.0;"/><path d="M224.5,154 L224.5,164 L234.5,164 L224.5,154 " fill="#BB6600" style="stroke: #662200; stroke-width: 1.0;"/><text fill="#FFFFFF" font-family="Verdana" font-size="11" lengthAdjust="spacingAndGlyphs" textLength="60" x="159.5" y="170.0591">do nothing</text><!--MD5=[20d79fe11f52221d9ea174ec739465c2]
link Client to AbstractObject--><path d="M104.51,40.5 C114.54,40.5 124.58,40.5 134.61,40.5 " fill="none" id="Client-&gt;AbstractObject" style="stroke: #FFFFFF; stroke-width: 1.0;"/><polygon fill="#FFFFFF" points="139.86,40.5,130.86,36.5,134.86,40.5,130.86,44.5,139.86,40.5" style="stroke: #FFFFFF; stroke-width: 1.0;"/><!--MD5=[35f4d49faeab28430d66465050213483]
reverse link AbstractObject to RealObject--><path d="M244.17,86.97 C260.7,102.26 278.75,118.96 293.87,132.93 " fill="none" id="AbstractObject&lt;-RealObject" style="stroke: #FFFFFF; stroke-width: 1.0;"/><polygon fill="none" points="239.18,91.89,229.25,73.18,248.69,81.62,239.18,91.89" style="stroke: #FFFFFF; stroke-width: 1.0;"/><!--MD5=[64e02a41cbb144a2b6432f9fa621eadb]
reverse link AbstractObject to NullObject--><path d="M145.83,86.97 C129.3,102.26 111.25,118.96 96.13,132.93 " fill="none" id="AbstractObject&lt;-NullObject" style="stroke: #FFFFFF; stroke-width: 1.0;"/><polygon fill="none" points="141.31,81.62,160.75,73.18,150.82,91.89,141.31,81.62" style="stroke: #FFFFFF; stroke-width: 1.0;"/><!--MD5=[039b929ca4d9b2b568c189b77ab45553]
@startuml null_object_pattern

!define DARKORANGE
!includeurl https://raw.githubusercontent.com/Drakemor/RedDress-PlantUML/master/style.puml

allow_mixing
rectangle Client #DarkOliveGreen

abstract class AbstractObject <<Customer>> {
    + {abstract} request();
}

class RealObject <<RealCustomer>> {
    + request();
}

class NullObject <<NullCustomer>> {
    + request();
}

Client -right-> AbstractObject
AbstractObject <|- - RealObject
AbstractObject <|- - NullObject
note right of NullObject : do nothing

@enduml

@startuml null_object_pattern










skinparam stereotypeCBackgroundColor BB6600



skinparam backgroundColor 777







skinparam circledCharacter {
  radius 8
  fontSize 11
  fontName Verdana
}

skinparam class {
    backgroundColor 2e2e2e
  borderColor 1b1b1b
    fontColor fff
  fontName Verdana
  fontSize 11
  stereotypeFontColor aaa
  stereotypeFontSize 11
    arrowColor fff
  arrowFontName Verdana
  arrowFontColor bbb
  arrowFontSize 11

  attributeFontColor aaa
  attributeFontSize 11
  attributeIconSize 11
}


skinparam actor {
    backgroundColor BB6600
  borderColor 662200
    fontColor fff
  fontName Verdana
  fontSize 11
  stereotypeFontColor aaa
  stereotypeFontSize 11
}

skinparam participant {
    backgroundColor 2e2e2e
  borderColor 1b1b1b
    fontColor fff
  fontName Verdana
  fontSize 11
  stereotypeFontColor aaa
  stereotypeFontSize 11
}

skinparam collections {
    backgroundColor 2e2e2e
  borderColor 1b1b1b
    fontColor fff
  fontName Verdana
  fontSize 11
  stereotypeFontColor aaa
  stereotypeFontSize 11
}

skinparam SequenceBox{
    backgroundColor 575757
  borderColor 767676
    fontColor fff
  fontName Verdana
  fontSize 11
  stereotypeFontColor aaa
  stereotypeFontSize 11
}


skinparam interface {
    backgroundColor BB6600
  borderColor 662200
    fontColor fff
  fontName Verdana
  fontSize 11
  stereotypeFontColor aaa
  stereotypeFontSize 11
}

skinparam component {
    backgroundColor 2e2e2e
  borderColor 1b1b1b
    fontColor fff
  fontName Verdana
  fontSize 11
  stereotypeFontColor aaa
  stereotypeFontSize 11
}

skinparam node {
    backgroundColor 2e2e2e
  borderColor 1b1b1b
    fontColor fff
  fontName Verdana
  fontSize 11
  stereotypeFontColor aaa
  stereotypeFontSize 11
}

skinparam database {
    backgroundColor 2e2e2e
  borderColor 1b1b1b
    fontColor fff
  fontName Verdana
  fontSize 11
  stereotypeFontColor aaa
  stereotypeFontSize 11
}

skinparam queue {
    backgroundColor 2e2e2e
  borderColor 1b1b1b
    fontColor fff
  fontName Verdana
  fontSize 11
  stereotypeFontColor aaa
  stereotypeFontSize 11
}


skinparam usecase {
    backgroundColor 2e2e2e
  borderColor 1b1b1b
    fontColor fff
  fontName Verdana
  fontSize 11
  stereotypeFontColor aaa
  stereotypeFontSize 11
    arrowColor fff
  arrowFontName Verdana
  arrowFontColor bbb
  arrowFontSize 11
}

skinparam activity {
    backgroundColor 2e2e2e
  borderColor 1b1b1b
    fontColor fff
  fontName Verdana
  fontSize 11
  stereotypeFontColor aaa
  stereotypeFontSize 11
    arrowColor fff
  arrowFontName Verdana
  arrowFontColor bbb
  arrowFontSize 11
}

skinparam sequence {
    fontColor fff
  fontName Verdana
  fontSize 11
  stereotypeFontColor aaa
  stereotypeFontSize 11
    arrowColor fff
  arrowFontName Verdana
  arrowFontColor bbb
  arrowFontSize 11

  lifeLineBorderColor BB6600
  lifeLineBackgroundColor 575757
}

skinparam boundary {
    backgroundColor BB6600
  borderColor 662200
    fontColor fff
  fontName Verdana
  fontSize 11
  stereotypeFontColor aaa
  stereotypeFontSize 11
}

skinparam control {
    backgroundColor BB6600
  borderColor 662200
    fontColor fff
  fontName Verdana
  fontSize 11
  stereotypeFontColor aaa
  stereotypeFontSize 11
}

skinparam entity {
    backgroundColor BB6600
  borderColor 662200
    fontColor fff
  fontName Verdana
  fontSize 11
  stereotypeFontColor aaa
  stereotypeFontSize 11
}


skinparam state {
    backgroundColor 2e2e2e
  borderColor 1b1b1b
    fontColor fff
  fontName Verdana
  fontSize 11
  stereotypeFontColor aaa
  stereotypeFontSize 11
    arrowColor fff
  arrowFontName Verdana
  arrowFontColor bbb
  arrowFontSize 11
  startColor BB6600
  endColor 662200
}


skinparam object {
    backgroundColor 2e2e2e
  borderColor 1b1b1b
    fontColor fff
  fontName Verdana
  fontSize 11
  stereotypeFontColor aaa
  stereotypeFontSize 11
    arrowColor fff
  arrowFontName Verdana
  arrowFontColor bbb
  arrowFontSize 11
}


skinparam note {
    backgroundColor BB6600
  borderColor 662200
    fontColor fff
  fontName Verdana
  fontSize 11
  stereotypeFontColor aaa
  stereotypeFontSize 11
}

skinparam cloud {
    backgroundColor 2e2e2e
  borderColor 1b1b1b
    fontColor fff
  fontName Verdana
  fontSize 11
  stereotypeFontColor aaa
  stereotypeFontSize 11
    arrowColor fff
  arrowFontName Verdana
  arrowFontColor bbb
  arrowFontSize 11
}

skinparam rectangle {
    backgroundColor 2e2e2e
  borderColor 1b1b1b
    fontColor fff
  fontName Verdana
  fontSize 11
  stereotypeFontColor aaa
  stereotypeFontSize 11
}

skinparam storage {
    backgroundColor 2e2e2e
  borderColor 1b1b1b
    fontColor fff
  fontName Verdana
  fontSize 11
  stereotypeFontColor aaa
  stereotypeFontSize 11
}


allow_mixing
rectangle Client #DarkOliveGreen

abstract class AbstractObject <<Customer>> {
    + {abstract} request();
}

class RealObject <<RealCustomer>> {
    + request();
}

class NullObject <<NullCustomer>> {
    + request();
}

Client -right-> AbstractObject
AbstractObject <|- - RealObject
AbstractObject <|- - NullObject
note right of NullObject : do nothing

@enduml

PlantUML version 1.2020.10(Sun May 17 15:05:57 IST 2020)
(GPL source distribution)
Java Runtime: OpenJDK Runtime Environment
JVM: OpenJDK 64-Bit Server VM
Java Version: 11.0.8+10-post-Ubuntu-0ubuntu120.04
Operating System: Linux
Default Encoding: UTF-8
Language: en
Country: IN
--></g></svg>