<?xml version="1.0" encoding="UTF-8" standalone="no"?><svg xmlns="http://www.w3.org/2000/svg" xmlns:xlink="http://www.w3.org/1999/xlink" contentScriptType="application/ecmascript" contentStyleType="text/css" height="481px" preserveAspectRatio="none" style="width:532px;height:481px;background:#777777;" version="1.1" viewBox="0 0 532 481" width="532px" zoomAndPan="magnify"><defs><filter height="300%" id="f1kbs5asca7gno" width="300%" x="-1" y="-1"><feGaussianBlur result="blurOut" stdDeviation="2.0"/><feColorMatrix in="blurOut" result="blurOut2" type="matrix" values="0 0 0 0 0 0 0 0 0 0 0 0 0 0 0 0 0 0 .4 0"/><feOffset dx="4.0" dy="4.0" in="blurOut2" result="blurOut3"/><feBlend in="SourceGraphic" in2="blurOut3" mode="normal"/></filter></defs><g><!--MD5=[0ba5ee7700168656dc1b457c6fe9fdac]
entity Client--><rect fill="#556B2F" filter="url(#f1kbs5asca7gno)" height="33.3687" style="stroke: #1B1B1B; stroke-width: 1.5;" width="53" x="202.5" y="8"/><text fill="#FFFFFF" font-family="Verdana" font-size="11" lengthAdjust="spacingAndGlyphs" textLength="33" x="212.5" y="29.0591">Client</text><!--MD5=[57adcbfcd00175f9b7abe25398e7de0c]
class Director--><rect fill="#2E2E2E" filter="url(#f1kbs5asca7gno)" height="90.5874" id="Director" style="stroke: #1B1B1B; stroke-width: 1.5;" width="170" x="6" y="102"/><ellipse cx="50" cy="120.0867" fill="#BB6600" rx="8" ry="8" style="stroke: #1B1B1B; stroke-width: 1.0;"/><path d="M50.6406,124.2429 Q49.75,124.2429 48.9844,123.9773 Q48.2344,123.7117 47.6875,123.196 Q47.1563,122.6804 46.8438,121.8992 Q46.5469,121.1179 46.5469,120.1023 Q46.5469,119.1492 46.8281,118.3835 Q47.125,117.6023 47.6719,117.0398 Q48.1875,116.5085 48.9531,116.2273 Q49.7344,115.9304 50.6406,115.9304 Q51.1406,115.9304 51.5469,115.9929 Q51.9531,116.0398 52.2969,116.1335 Q52.6563,116.2429 52.9531,116.3679 Q53.25,116.4929 53.4688,116.6023 L53.4688,118.5398 L53.2344,118.5398 Q53.0781,118.4148 52.8438,118.2429 Q52.625,118.0554 52.3281,117.8835 Q52.0313,117.7117 51.6875,117.6023 Q51.3438,117.4773 50.9531,117.4773 Q50.5156,117.4773 50.125,117.6179 Q49.7344,117.7429 49.4063,118.071 Q49.0938,118.3679 48.8906,118.8835 Q48.7031,119.3835 48.7031,120.1023 Q48.7031,120.8523 48.9063,121.3679 Q49.125,121.8679 49.4375,122.1492 Q49.7656,122.446 50.1719,122.571 Q50.5781,122.696 50.9688,122.696 Q51.3438,122.696 51.7031,122.5867 Q52.0781,122.4773 52.3906,122.2742 Q52.6563,122.1335 52.875,121.9617 Q53.1094,121.7742 53.25,121.6492 L53.4688,121.6492 L53.4688,123.5554 Q53.1719,123.696 52.8906,123.821 Q52.625,123.9304 52.3125,124.0085 Q51.9219,124.1179 51.5781,124.1804 Q51.2344,124.2429 50.6406,124.2429 Z "/><text fill="#AAAAAA" font-family="sans-serif" font-size="11" font-style="italic" lengthAdjust="spacingAndGlyphs" textLength="79" x="64" y="117.2104">«CarDirector»</text><text fill="#FFFFFF" font-family="Verdana" font-size="11" lengthAdjust="spacingAndGlyphs" textLength="46" x="80.5" y="130.8638">Director</text><line style="stroke: #1B1B1B; stroke-width: 1.5;" x1="7" x2="175" y1="138.1733" y2="138.1733"/><rect fill="none" height="6" style="stroke: #C82930; stroke-width: 1.0;" width="6" x="14" y="146.1733"/><text fill="#AAAAAA" font-family="sans-serif" font-size="11" lengthAdjust="spacingAndGlyphs" textLength="87" x="23" y="152.3838">Builder builder;</text><line style="stroke: #1B1B1B; stroke-width: 1.5;" x1="7" x2="175" y1="158.978" y2="158.978"/><ellipse cx="17" cy="169.978" fill="#84BE84" rx="3" ry="3" style="stroke: #038048; stroke-width: 1.0;"/><text fill="#AAAAAA" font-family="sans-serif" font-size="11" lengthAdjust="spacingAndGlyphs" textLength="147" x="23" y="173.1885">set_builder(Builder *bldr);</text><ellipse cx="17" cy="182.7827" fill="#84BE84" rx="3" ry="3" style="stroke: #038048; stroke-width: 1.0;"/><text fill="#AAAAAA" font-family="sans-serif" font-size="11" lengthAdjust="spacingAndGlyphs" textLength="88" x="23" y="185.9932">build_product();</text><!--MD5=[a8dc8aefce085dae70bec15e302cfec9]
class Builder--><rect fill="#2E2E2E" filter="url(#f1kbs5asca7gno)" height="77.7827" id="Builder" style="stroke: #1B1B1B; stroke-width: 1.5;" width="98" x="282" y="108.5"/><ellipse cx="294.9" cy="126.5867" fill="#A9DCDF" rx="8" ry="8" style="stroke: #1B1B1B; stroke-width: 1.0;"/><path d="M298.8063,130.0867 L296.6813,130.0867 L296.1188,128.4773 L293.1656,128.4773 L292.6031,130.0867 L290.525,130.0867 L293.4781,122.0867 L295.8531,122.0867 L298.8063,130.0867 Z M295.6188,127.0085 L294.65,124.1335 L293.6656,127.0085 L295.6188,127.0085 Z "/><text fill="#AAAAAA" font-family="sans-serif" font-size="11" font-style="italic" lengthAdjust="spacingAndGlyphs" textLength="74" x="304.1" y="123.7104">«CarBuilder»</text><text fill="#FFFFFF" font-family="Verdana" font-size="11" font-style="italic" lengthAdjust="spacingAndGlyphs" textLength="40" x="321.1" y="137.3638">Builder</text><line style="stroke: #1B1B1B; stroke-width: 1.5;" x1="283" x2="379" y1="144.6733" y2="144.6733"/><line style="stroke: #1B1B1B; stroke-width: 1.5;" x1="283" x2="379" y1="152.6733" y2="152.6733"/><ellipse cx="293" cy="163.6733" fill="#84BE84" rx="3" ry="3" style="stroke: #038048; stroke-width: 1.0;"/><text fill="#AAAAAA" font-family="sans-serif" font-size="11" font-style="italic" lengthAdjust="spacingAndGlyphs" textLength="75" x="299" y="166.8838">build_part1();</text><ellipse cx="293" cy="176.478" fill="#84BE84" rx="3" ry="3" style="stroke: #038048; stroke-width: 1.0;"/><text fill="#AAAAAA" font-family="sans-serif" font-size="11" font-style="italic" lengthAdjust="spacingAndGlyphs" textLength="75" x="299" y="179.6885">build_part2();</text><!--MD5=[dda57e407e320ea59bcdebf302f3fff8]
class ConcreateBuilderA--><rect fill="#2E2E2E" filter="url(#f1kbs5asca7gno)" height="103.3921" id="ConcreateBuilderA" style="stroke: #1B1B1B; stroke-width: 1.5;" width="156" x="159" y="254"/><ellipse cx="171.45" cy="272.0867" fill="#BB6600" rx="8" ry="8" style="stroke: #1B1B1B; stroke-width: 1.0;"/><path d="M172.0906,276.2429 Q171.2,276.2429 170.4344,275.9773 Q169.6844,275.7117 169.1375,275.196 Q168.6063,274.6804 168.2938,273.8992 Q167.9969,273.1179 167.9969,272.1023 Q167.9969,271.1492 168.2781,270.3835 Q168.575,269.6023 169.1219,269.0398 Q169.6375,268.5085 170.4031,268.2273 Q171.1844,267.9304 172.0906,267.9304 Q172.5906,267.9304 172.9969,267.9929 Q173.4031,268.0398 173.7469,268.1335 Q174.1063,268.2429 174.4031,268.3679 Q174.7,268.4929 174.9188,268.6023 L174.9188,270.5398 L174.6844,270.5398 Q174.5281,270.4148 174.2938,270.2429 Q174.075,270.0554 173.7781,269.8835 Q173.4813,269.7117 173.1375,269.6023 Q172.7938,269.4773 172.4031,269.4773 Q171.9656,269.4773 171.575,269.6179 Q171.1844,269.7429 170.8563,270.071 Q170.5438,270.3679 170.3406,270.8835 Q170.1531,271.3835 170.1531,272.1023 Q170.1531,272.8523 170.3563,273.3679 Q170.575,273.8679 170.8875,274.1492 Q171.2156,274.446 171.6219,274.571 Q172.0281,274.696 172.4188,274.696 Q172.7938,274.696 173.1531,274.5867 Q173.5281,274.4773 173.8406,274.2742 Q174.1063,274.1335 174.325,273.9617 Q174.5594,273.7742 174.7,273.6492 L174.9188,273.6492 L174.9188,275.5554 Q174.6219,275.696 174.3406,275.821 Q174.075,275.9304 173.7625,276.0085 Q173.3719,276.1179 173.0281,276.1804 Q172.6844,276.2429 172.0906,276.2429 Z "/><text fill="#AAAAAA" font-family="sans-serif" font-size="11" font-style="italic" lengthAdjust="spacingAndGlyphs" textLength="133" x="180.55" y="269.2104">«PassangerCarBuilder»</text><text fill="#FFFFFF" font-family="Verdana" font-size="11" lengthAdjust="spacingAndGlyphs" textLength="107" x="193.55" y="282.8638">ConcreateBuilderA</text><line style="stroke: #1B1B1B; stroke-width: 1.5;" x1="160" x2="314" y1="290.1733" y2="290.1733"/><rect fill="none" height="6" style="stroke: #C82930; stroke-width: 1.0;" width="6" x="167" y="298.1733"/><text fill="#AAAAAA" font-family="sans-serif" font-size="11" lengthAdjust="spacingAndGlyphs" textLength="101" x="176" y="304.3838">ProductA product;</text><line style="stroke: #1B1B1B; stroke-width: 1.5;" x1="160" x2="314" y1="310.978" y2="310.978"/><ellipse cx="170" cy="321.978" fill="#84BE84" rx="3" ry="3" style="stroke: #038048; stroke-width: 1.0;"/><text fill="#AAAAAA" font-family="sans-serif" font-size="11" lengthAdjust="spacingAndGlyphs" textLength="75" x="176" y="325.1885">build_part1();</text><ellipse cx="170" cy="334.7827" fill="#84BE84" rx="3" ry="3" style="stroke: #038048; stroke-width: 1.0;"/><text fill="#AAAAAA" font-family="sans-serif" font-size="11" lengthAdjust="spacingAndGlyphs" textLength="75" x="176" y="337.9932">build_part2();</text><ellipse cx="170" cy="347.5874" fill="#84BE84" rx="3" ry="3" style="stroke: #038048; stroke-width: 1.0;"/><text fill="#AAAAAA" font-family="sans-serif" font-size="11" lengthAdjust="spacingAndGlyphs" textLength="133" x="176" y="350.7979">ProductA get_product();</text><!--MD5=[065f12071f88893829853da66a47db85]
class ConcreateBuilderB--><rect fill="#2E2E2E" filter="url(#f1kbs5asca7gno)" height="103.3921" id="ConcreateBuilderB" style="stroke: #1B1B1B; stroke-width: 1.5;" width="157" x="364.5" y="254"/><ellipse cx="387.3" cy="272.0867" fill="#BB6600" rx="8" ry="8" style="stroke: #1B1B1B; stroke-width: 1.0;"/><path d="M387.9406,276.2429 Q387.05,276.2429 386.2844,275.9773 Q385.5344,275.7117 384.9875,275.196 Q384.4563,274.6804 384.1438,273.8992 Q383.8469,273.1179 383.8469,272.1023 Q383.8469,271.1492 384.1281,270.3835 Q384.425,269.6023 384.9719,269.0398 Q385.4875,268.5085 386.2531,268.2273 Q387.0344,267.9304 387.9406,267.9304 Q388.4406,267.9304 388.8469,267.9929 Q389.2531,268.0398 389.5969,268.1335 Q389.9563,268.2429 390.2531,268.3679 Q390.55,268.4929 390.7688,268.6023 L390.7688,270.5398 L390.5344,270.5398 Q390.3781,270.4148 390.1438,270.2429 Q389.925,270.0554 389.6281,269.8835 Q389.3313,269.7117 388.9875,269.6023 Q388.6438,269.4773 388.2531,269.4773 Q387.8156,269.4773 387.425,269.6179 Q387.0344,269.7429 386.7063,270.071 Q386.3938,270.3679 386.1906,270.8835 Q386.0031,271.3835 386.0031,272.1023 Q386.0031,272.8523 386.2063,273.3679 Q386.425,273.8679 386.7375,274.1492 Q387.0656,274.446 387.4719,274.571 Q387.8781,274.696 388.2688,274.696 Q388.6438,274.696 389.0031,274.5867 Q389.3781,274.4773 389.6906,274.2742 Q389.9563,274.1335 390.175,273.9617 Q390.4094,273.7742 390.55,273.6492 L390.7688,273.6492 L390.7688,275.5554 Q390.4719,275.696 390.1906,275.821 Q389.925,275.9304 389.6125,276.0085 Q389.2219,276.1179 388.8781,276.1804 Q388.5344,276.2429 387.9406,276.2429 Z "/><text fill="#AAAAAA" font-family="sans-serif" font-size="11" font-style="italic" lengthAdjust="spacingAndGlyphs" textLength="110" x="399.2" y="269.2104">«SportsCarBuilder»</text><text fill="#FFFFFF" font-family="Verdana" font-size="11" lengthAdjust="spacingAndGlyphs" textLength="107" x="400.7" y="282.8638">ConcreateBuilderB</text><line style="stroke: #1B1B1B; stroke-width: 1.5;" x1="365.5" x2="520.5" y1="290.1733" y2="290.1733"/><rect fill="none" height="6" style="stroke: #C82930; stroke-width: 1.0;" width="6" x="372.5" y="298.1733"/><text fill="#AAAAAA" font-family="sans-serif" font-size="11" lengthAdjust="spacingAndGlyphs" textLength="102" x="381.5" y="304.3838">ProductB product;</text><line style="stroke: #1B1B1B; stroke-width: 1.5;" x1="365.5" x2="520.5" y1="310.978" y2="310.978"/><ellipse cx="375.5" cy="321.978" fill="#84BE84" rx="3" ry="3" style="stroke: #038048; stroke-width: 1.0;"/><text fill="#AAAAAA" font-family="sans-serif" font-size="11" lengthAdjust="spacingAndGlyphs" textLength="75" x="381.5" y="325.1885">build_part1();</text><ellipse cx="375.5" cy="334.7827" fill="#84BE84" rx="3" ry="3" style="stroke: #038048; stroke-width: 1.0;"/><text fill="#AAAAAA" font-family="sans-serif" font-size="11" lengthAdjust="spacingAndGlyphs" textLength="75" x="381.5" y="337.9932">build_part2();</text><ellipse cx="375.5" cy="347.5874" fill="#84BE84" rx="3" ry="3" style="stroke: #038048; stroke-width: 1.0;"/><text fill="#AAAAAA" font-family="sans-serif" font-size="11" lengthAdjust="spacingAndGlyphs" textLength="134" x="381.5" y="350.7979">ProductB get_product();</text><!--MD5=[5f2bd739ea74403c351f6842fe5c7ba2]
class ProductA--><rect fill="#2E2E2E" filter="url(#f1kbs5asca7gno)" height="52.1733" id="ProductA" style="stroke: #1B1B1B; stroke-width: 1.5;" width="115" x="179.5" y="418"/><ellipse cx="191.5" cy="436.0867" fill="#BB6600" rx="8" ry="8" style="stroke: #1B1B1B; stroke-width: 1.0;"/><path d="M192.1406,440.2429 Q191.25,440.2429 190.4844,439.9773 Q189.7344,439.7117 189.1875,439.196 Q188.6563,438.6804 188.3438,437.8992 Q188.0469,437.1179 188.0469,436.1023 Q188.0469,435.1492 188.3281,434.3835 Q188.625,433.6023 189.1719,433.0398 Q189.6875,432.5085 190.4531,432.2273 Q191.2344,431.9304 192.1406,431.9304 Q192.6406,431.9304 193.0469,431.9929 Q193.4531,432.0398 193.7969,432.1335 Q194.1563,432.2429 194.4531,432.3679 Q194.75,432.4929 194.9688,432.6023 L194.9688,434.5398 L194.7344,434.5398 Q194.5781,434.4148 194.3438,434.2429 Q194.125,434.0554 193.8281,433.8835 Q193.5313,433.7117 193.1875,433.6023 Q192.8438,433.4773 192.4531,433.4773 Q192.0156,433.4773 191.625,433.6179 Q191.2344,433.7429 190.9063,434.071 Q190.5938,434.3679 190.3906,434.8835 Q190.2031,435.3835 190.2031,436.1023 Q190.2031,436.8523 190.4063,437.3679 Q190.625,437.8679 190.9375,438.1492 Q191.2656,438.446 191.6719,438.571 Q192.0781,438.696 192.4688,438.696 Q192.8438,438.696 193.2031,438.5867 Q193.5781,438.4773 193.8906,438.2742 Q194.1563,438.1335 194.375,437.9617 Q194.6094,437.7742 194.75,437.6492 L194.9688,437.6492 L194.9688,439.5554 Q194.6719,439.696 194.3906,439.821 Q194.125,439.9304 193.8125,440.0085 Q193.4219,440.1179 193.0781,440.1804 Q192.7344,440.2429 192.1406,440.2429 Z "/><text fill="#AAAAAA" font-family="sans-serif" font-size="11" font-style="italic" lengthAdjust="spacingAndGlyphs" textLength="93" x="200.5" y="433.2104">«PassengerCar»</text><text fill="#FFFFFF" font-family="Verdana" font-size="11" lengthAdjust="spacingAndGlyphs" textLength="51" x="221.5" y="446.8638">ProductA</text><line style="stroke: #1B1B1B; stroke-width: 1.5;" x1="180.5" x2="293.5" y1="454.1733" y2="454.1733"/><line style="stroke: #1B1B1B; stroke-width: 1.5;" x1="180.5" x2="293.5" y1="462.1733" y2="462.1733"/><!--MD5=[7d8bbe38ae7838c4b875a286fbfa656f]
class ProductB--><rect fill="#2E2E2E" filter="url(#f1kbs5asca7gno)" height="52.1733" id="ProductB" style="stroke: #1B1B1B; stroke-width: 1.5;" width="92" x="397" y="418"/><ellipse cx="409" cy="436.0867" fill="#BB6600" rx="8" ry="8" style="stroke: #1B1B1B; stroke-width: 1.0;"/><path d="M409.6406,440.2429 Q408.75,440.2429 407.9844,439.9773 Q407.2344,439.7117 406.6875,439.196 Q406.1563,438.6804 405.8438,437.8992 Q405.5469,437.1179 405.5469,436.1023 Q405.5469,435.1492 405.8281,434.3835 Q406.125,433.6023 406.6719,433.0398 Q407.1875,432.5085 407.9531,432.2273 Q408.7344,431.9304 409.6406,431.9304 Q410.1406,431.9304 410.5469,431.9929 Q410.9531,432.0398 411.2969,432.1335 Q411.6563,432.2429 411.9531,432.3679 Q412.25,432.4929 412.4688,432.6023 L412.4688,434.5398 L412.2344,434.5398 Q412.0781,434.4148 411.8438,434.2429 Q411.625,434.0554 411.3281,433.8835 Q411.0313,433.7117 410.6875,433.6023 Q410.3438,433.4773 409.9531,433.4773 Q409.5156,433.4773 409.125,433.6179 Q408.7344,433.7429 408.4063,434.071 Q408.0938,434.3679 407.8906,434.8835 Q407.7031,435.3835 407.7031,436.1023 Q407.7031,436.8523 407.9063,437.3679 Q408.125,437.8679 408.4375,438.1492 Q408.7656,438.446 409.1719,438.571 Q409.5781,438.696 409.9688,438.696 Q410.3438,438.696 410.7031,438.5867 Q411.0781,438.4773 411.3906,438.2742 Q411.6563,438.1335 411.875,437.9617 Q412.1094,437.7742 412.25,437.6492 L412.4688,437.6492 L412.4688,439.5554 Q412.1719,439.696 411.8906,439.821 Q411.625,439.9304 411.3125,440.0085 Q410.9219,440.1179 410.5781,440.1804 Q410.2344,440.2429 409.6406,440.2429 Z "/><text fill="#AAAAAA" font-family="sans-serif" font-size="11" font-style="italic" lengthAdjust="spacingAndGlyphs" textLength="70" x="418" y="433.2104">«SportsCar»</text><text fill="#FFFFFF" font-family="Verdana" font-size="11" lengthAdjust="spacingAndGlyphs" textLength="51" x="427.5" y="446.8638">ProductB</text><line style="stroke: #1B1B1B; stroke-width: 1.5;" x1="398" x2="488" y1="454.1733" y2="454.1733"/><line style="stroke: #1B1B1B; stroke-width: 1.5;" x1="398" x2="488" y1="462.1733" y2="462.1733"/><!--MD5=[6ab72f33c54f40b1283a4771c3829f11]
link Client to Director--><path d="M211.24,41.07 C194.73,55.55 169.24,77.9 145.97,98.3 " fill="none" id="Client-&gt;Director" style="stroke: #FFFFFF; stroke-width: 1.0;"/><polygon fill="#FFFFFF" points="141.96,101.82,151.3617,98.8861,145.7167,98.5204,146.0824,92.8754,141.96,101.82" style="stroke: #FFFFFF; stroke-width: 1.0;"/><!--MD5=[099d1768c55d55279a298cb7fa52a6c3]
link Client to ConcreateBuilderA--><path d="M229.45,41.3 C230.58,80.49 233.54,183.66 235.4,248.58 " fill="none" id="Client-&gt;ConcreateBuilderA" style="stroke: #FFFFFF; stroke-width: 1.0; stroke-dasharray: 7.0,7.0;"/><polygon fill="#FFFFFF" points="235.55,253.97,239.2913,244.8594,235.4072,248.972,231.2946,245.0879,235.55,253.97" style="stroke: #FFFFFF; stroke-width: 1.0;"/><!--MD5=[44d92c8dc03f1a4388388daf7e6d5ed7]
link Client to ConcreateBuilderB--><path d="M255.62,30.03 C293.07,37.84 360.78,57.52 397,102 C430.65,143.32 440.78,204.43 443.33,248.7 " fill="none" id="Client-&gt;ConcreateBuilderB" style="stroke: #FFFFFF; stroke-width: 1.0; stroke-dasharray: 7.0,7.0;"/><polygon fill="#FFFFFF" points="443.59,253.74,447.1225,244.5464,443.3332,248.7466,439.133,244.9573,443.59,253.74" style="stroke: #FFFFFF; stroke-width: 1.0;"/><text fill="#BBBBBB" font-family="Verdana" font-size="11" lengthAdjust="spacingAndGlyphs" textLength="78" x="438" y="152.0591">get_product()</text><!--MD5=[35d28d2b418aef5be99c017cb2811424]
reverse link Builder to ConcreateBuilderA--><path d="M297.62,203.9 C287.83,220.15 277.17,237.83 267.57,253.77 " fill="none" id="Builder&lt;-ConcreateBuilderA" style="stroke: #FFFFFF; stroke-width: 1.0;"/><polygon fill="none" points="291.69,200.18,308.01,186.66,303.68,207.41,291.69,200.18" style="stroke: #FFFFFF; stroke-width: 1.0;"/><!--MD5=[852a59d83eca03ac1d993e1a4bf69020]
reverse link Builder to ConcreateBuilderB--><path d="M370.22,203.12 C382.03,219.58 394.95,237.57 406.58,253.77 " fill="none" id="Builder&lt;-ConcreateBuilderB" style="stroke: #FFFFFF; stroke-width: 1.0;"/><polygon fill="none" points="364.38,206.99,358.4,186.66,375.75,198.83,364.38,206.99" style="stroke: #FFFFFF; stroke-width: 1.0;"/><!--MD5=[2760341590ffd2e711ef41992cc437b9]
link Director to Builder--><path d="M188.31,147.5 C188.31,147.5 242.11,147.5 268.42,147.5 " fill="none" id="Director-Builder" style="stroke: #FFFFFF; stroke-width: 1.0;"/><polygon fill="#FFFFFF" points="281.75,147.5,272.75,143.5,276.75,147.5,272.75,151.5,281.75,147.5" style="stroke: #FFFFFF; stroke-width: 1.0;"/><line style="stroke: #FFFFFF; stroke-width: 1.0;" x1="276.75" x2="268.75" y1="147.5" y2="147.5"/><polygon fill="#777777" points="176.31,147.5,182.31,151.5,188.31,147.5,182.31,143.5,176.31,147.5" style="stroke: #FFFFFF; stroke-width: 1.0;"/><!--MD5=[5c800f7c638b16260c94e1c44f9b13f9]
link ConcreateBuilderA to ProductA--><path d="M237,357.33 C237,375.85 237,396.21 237,412.43 " fill="none" id="ConcreateBuilderA-&gt;ProductA" style="stroke: #FFFFFF; stroke-width: 1.0;"/><polygon fill="#FFFFFF" points="237,417.76,241,408.76,237,412.76,233,408.76,237,417.76" style="stroke: #FFFFFF; stroke-width: 1.0;"/><!--MD5=[dc10c3aecb69fe2e3c18799d1588b853]
link ConcreateBuilderB to ProductB--><path d="M443,357.33 C443,375.85 443,396.21 443,412.43 " fill="none" id="ConcreateBuilderB-&gt;ProductB" style="stroke: #FFFFFF; stroke-width: 1.0;"/><polygon fill="#FFFFFF" points="443,417.76,447,408.76,443,412.76,439,408.76,443,417.76" style="stroke: #FFFFFF; stroke-width: 1.0;"/><!--MD5=[2bcb1b8d587f204b3dc1ee5f64b5e253]
@startuml builder_pattern

!define DARKORANGE
!includeurl https://raw.githubusercontent.com/Drakemor/RedDress-PlantUML/master/style.puml

allow_mixing
rectangle Client #DarkOliveGreen

class Director <<CarDirector>> {
    - Builder builder;
    + set_builder(Builder *bldr);
    + build_product();
}

abstract class Builder <<CarBuilder>> {
    + {abstract} build_part1();
    + {abstract} build_part2();
}

class ConcreateBuilderA <<PassangerCarBuilder>> {
    - ProductA product;
    + build_part1();
    + build_part2();
    + ProductA get_product();
}

class ConcreateBuilderB <<SportsCarBuilder>> {
    - ProductB product;
    + build_part1();
    + build_part2();
    + ProductB get_product();
}

class ProductA <<PassengerCar>> {
}

class ProductB <<SportsCar>> {
}

Client -down-> Director
Client .down.> ConcreateBuilderA
Client .down.> ConcreateBuilderB : get_product()
Builder <|- - ConcreateBuilderA
Builder <|- - ConcreateBuilderB
Builder <-right-o Director
ConcreateBuilderA -down-> ProductA
ConcreateBuilderB -down-> ProductB

@enduml

@startuml builder_pattern










skinparam stereotypeCBackgroundColor BB6600



skinparam backgroundColor 777







skinparam circledCharacter {
  radius 8
  fontSize 11
  fontName Verdana
}

skinparam class {
    backgroundColor 2e2e2e
  borderColor 1b1b1b
    fontColor fff
  fontName Verdana
  fontSize 11
  stereotypeFontColor aaa
  stereotypeFontSize 11
    arrowColor fff
  arrowFontName Verdana
  arrowFontColor bbb
  arrowFontSize 11

  attributeFontColor aaa
  attributeFontSize 11
  attributeIconSize 11
}


skinparam actor {
    backgroundColor BB6600
  borderColor 662200
    fontColor fff
  fontName Verdana
  fontSize 11
  stereotypeFontColor aaa
  stereotypeFontSize 11
}

skinparam participant {
    backgroundColor 2e2e2e
  borderColor 1b1b1b
    fontColor fff
  fontName Verdana
  fontSize 11
  stereotypeFontColor aaa
  stereotypeFontSize 11
}

skinparam collections {
    backgroundColor 2e2e2e
  borderColor 1b1b1b
    fontColor fff
  fontName Verdana
  fontSize 11
  stereotypeFontColor aaa
  stereotypeFontSize 11
}

skinparam SequenceBox{
    backgroundColor 575757
  borderColor 767676
    fontColor fff
  fontName Verdana
  fontSize 11
  stereotypeFontColor aaa
  stereotypeFontSize 11
}


skinparam interface {
    backgroundColor BB6600
  borderColor 662200
    fontColor fff
  fontName Verdana
  fontSize 11
  stereotypeFontColor aaa
  stereotypeFontSize 11
}

skinparam component {
    backgroundColor 2e2e2e
  borderColor 1b1b1b
    fontColor fff
  fontName Verdana
  fontSize 11
  stereotypeFontColor aaa
  stereotypeFontSize 11
}

skinparam node {
    backgroundColor 2e2e2e
  borderColor 1b1b1b
    fontColor fff
  fontName Verdana
  fontSize 11
  stereotypeFontColor aaa
  stereotypeFontSize 11
}

skinparam database {
    backgroundColor 2e2e2e
  borderColor 1b1b1b
    fontColor fff
  fontName Verdana
  fontSize 11
  stereotypeFontColor aaa
  stereotypeFontSize 11
}

skinparam queue {
    backgroundColor 2e2e2e
  borderColor 1b1b1b
    fontColor fff
  fontName Verdana
  fontSize 11
  stereotypeFontColor aaa
  stereotypeFontSize 11
}


skinparam usecase {
    backgroundColor 2e2e2e
  borderColor 1b1b1b
    fontColor fff
  fontName Verdana
  fontSize 11
  stereotypeFontColor aaa
  stereotypeFontSize 11
    arrowColor fff
  arrowFontName Verdana
  arrowFontColor bbb
  arrowFontSize 11
}

skinparam activity {
    backgroundColor 2e2e2e
  borderColor 1b1b1b
    fontColor fff
  fontName Verdana
  fontSize 11
  stereotypeFontColor aaa
  stereotypeFontSize 11
    arrowColor fff
  arrowFontName Verdana
  arrowFontColor bbb
  arrowFontSize 11
}

skinparam sequence {
    fontColor fff
  fontName Verdana
  fontSize 11
  stereotypeFontColor aaa
  stereotypeFontSize 11
    arrowColor fff
  arrowFontName Verdana
  arrowFontColor bbb
  arrowFontSize 11

  lifeLineBorderColor BB6600
  lifeLineBackgroundColor 575757
}

skinparam boundary {
    backgroundColor BB6600
  borderColor 662200
    fontColor fff
  fontName Verdana
  fontSize 11
  stereotypeFontColor aaa
  stereotypeFontSize 11
}

skinparam control {
    backgroundColor BB6600
  borderColor 662200
    fontColor fff
  fontName Verdana
  fontSize 11
  stereotypeFontColor aaa
  stereotypeFontSize 11
}

skinparam entity {
    backgroundColor BB6600
  borderColor 662200
    fontColor fff
  fontName Verdana
  fontSize 11
  stereotypeFontColor aaa
  stereotypeFontSize 11
}


skinparam state {
    backgroundColor 2e2e2e
  borderColor 1b1b1b
    fontColor fff
  fontName Verdana
  fontSize 11
  stereotypeFontColor aaa
  stereotypeFontSize 11
    arrowColor fff
  arrowFontName Verdana
  arrowFontColor bbb
  arrowFontSize 11
  startColor BB6600
  endColor 662200
}


skinparam object {
    backgroundColor 2e2e2e
  borderColor 1b1b1b
    fontColor fff
  fontName Verdana
  fontSize 11
  stereotypeFontColor aaa
  stereotypeFontSize 11
    arrowColor fff
  arrowFontName Verdana
  arrowFontColor bbb
  arrowFontSize 11
}


skinparam note {
    backgroundColor BB6600
  borderColor 662200
    fontColor fff
  fontName Verdana
  fontSize 11
  stereotypeFontColor aaa
  stereotypeFontSize 11
}

skinparam cloud {
    backgroundColor 2e2e2e
  borderColor 1b1b1b
    fontColor fff
  fontName Verdana
  fontSize 11
  stereotypeFontColor aaa
  stereotypeFontSize 11
    arrowColor fff
  arrowFontName Verdana
  arrowFontColor bbb
  arrowFontSize 11
}

skinparam rectangle {
    backgroundColor 2e2e2e
  borderColor 1b1b1b
    fontColor fff
  fontName Verdana
  fontSize 11
  stereotypeFontColor aaa
  stereotypeFontSize 11
}

skinparam storage {
    backgroundColor 2e2e2e
  borderColor 1b1b1b
    fontColor fff
  fontName Verdana
  fontSize 11
  stereotypeFontColor aaa
  stereotypeFontSize 11
}


allow_mixing
rectangle Client #DarkOliveGreen

class Director <<CarDirector>> {
    - Builder builder;
    + set_builder(Builder *bldr);
    + build_product();
}

abstract class Builder <<CarBuilder>> {
    + {abstract} build_part1();
    + {abstract} build_part2();
}

class ConcreateBuilderA <<PassangerCarBuilder>> {
    - ProductA product;
    + build_part1();
    + build_part2();
    + ProductA get_product();
}

class ConcreateBuilderB <<SportsCarBuilder>> {
    - ProductB product;
    + build_part1();
    + build_part2();
    + ProductB get_product();
}

class ProductA <<PassengerCar>> {
}

class ProductB <<SportsCar>> {
}

Client -down-> Director
Client .down.> ConcreateBuilderA
Client .down.> ConcreateBuilderB : get_product()
Builder <|- - ConcreateBuilderA
Builder <|- - ConcreateBuilderB
Builder <-right-o Director
ConcreateBuilderA -down-> ProductA
ConcreateBuilderB -down-> ProductB

@enduml

PlantUML version 1.2020.10(Sun May 17 15:05:57 IST 2020)
(GPL source distribution)
Java Runtime: OpenJDK Runtime Environment
JVM: OpenJDK 64-Bit Server VM
Java Version: 11.0.8+10-post-Ubuntu-0ubuntu120.04
Operating System: Linux
Default Encoding: UTF-8
Language: en
Country: IN
--></g></svg>