<?xml version="1.0" encoding="UTF-8" standalone="no"?><svg xmlns="http://www.w3.org/2000/svg" xmlns:xlink="http://www.w3.org/1999/xlink" contentScriptType="application/ecmascript" contentStyleType="text/css" height="296px" preserveAspectRatio="none" style="width:449px;height:296px;background:#777777;" version="1.1" viewBox="0 0 449 296" width="449px" zoomAndPan="magnify"><defs><filter height="300%" id="fir9zx8qn5qls" width="300%" x="-1" y="-1"><feGaussianBlur result="blurOut" stdDeviation="2.0"/><feColorMatrix in="blurOut" result="blurOut2" type="matrix" values="0 0 0 0 0 0 0 0 0 0 0 0 0 0 0 0 0 0 .4 0"/><feOffset dx="4.0" dy="4.0" in="blurOut2" result="blurOut3"/><feBlend in="SourceGraphic" in2="blurOut3" mode="normal"/></filter></defs><g><!--MD5=[f7e5aaedf1b25aad9b447cdf8dba2a20]
class Abstraction--><rect fill="#2E2E2E" filter="url(#fir9zx8qn5qls)" height="77.7827" id="Abstraction" style="stroke: #1B1B1B; stroke-width: 1.5;" width="127" x="76.5" y="8"/><ellipse cx="105.15" cy="26.0867" fill="#A9DCDF" rx="8" ry="8" style="stroke: #1B1B1B; stroke-width: 1.0;"/><path d="M109.0563,29.5867 L106.9313,29.5867 L106.3688,27.9773 L103.4156,27.9773 L102.8531,29.5867 L100.775,29.5867 L103.7281,21.5867 L106.1031,21.5867 L109.0563,29.5867 Z M105.8688,26.5085 L104.9,23.6335 L103.9156,26.5085 L105.8688,26.5085 Z "/><text fill="#AAAAAA" font-family="sans-serif" font-size="11" font-style="italic" lengthAdjust="spacingAndGlyphs" textLength="58" x="122.85" y="23.2104">«Window»</text><text fill="#FFFFFF" font-family="Verdana" font-size="11" font-style="italic" lengthAdjust="spacingAndGlyphs" textLength="64" x="119.85" y="36.8638">Abstraction</text><line style="stroke: #1B1B1B; stroke-width: 1.5;" x1="77.5" x2="202.5" y1="44.1733" y2="44.1733"/><rect fill="none" height="6" style="stroke: #C82930; stroke-width: 1.0;" width="6" x="84.5" y="52.1733"/><text fill="#AAAAAA" font-family="sans-serif" font-size="11" lengthAdjust="spacingAndGlyphs" textLength="104" x="93.5" y="58.3838">Implementor impl;</text><line style="stroke: #1B1B1B; stroke-width: 1.5;" x1="77.5" x2="202.5" y1="64.978" y2="64.978"/><ellipse cx="87.5" cy="75.978" fill="#84BE84" rx="3" ry="3" style="stroke: #038048; stroke-width: 1.0;"/><text fill="#AAAAAA" font-family="sans-serif" font-size="11" font-style="italic" lengthAdjust="spacingAndGlyphs" textLength="57" x="93.5" y="79.1885">function();</text><!--MD5=[088b70f627ca28c8359a997d6c19ab61]
class RefinedAbstraction--><rect fill="#2E2E2E" filter="url(#fir9zx8qn5qls)" height="54.8047" id="RefinedAbstraction" style="stroke: #1B1B1B; stroke-width: 1.5;" width="133" x="63.5" y="146"/><ellipse cx="75.5" cy="159" fill="#BB6600" rx="8" ry="8" style="stroke: #1B1B1B; stroke-width: 1.0;"/><path d="M76.1406,163.1563 Q75.25,163.1563 74.4844,162.8906 Q73.7344,162.625 73.1875,162.1094 Q72.6563,161.5938 72.3438,160.8125 Q72.0469,160.0313 72.0469,159.0156 Q72.0469,158.0625 72.3281,157.2969 Q72.625,156.5156 73.1719,155.9531 Q73.6875,155.4219 74.4531,155.1406 Q75.2344,154.8438 76.1406,154.8438 Q76.6406,154.8438 77.0469,154.9063 Q77.4531,154.9531 77.7969,155.0469 Q78.1563,155.1563 78.4531,155.2813 Q78.75,155.4063 78.9688,155.5156 L78.9688,157.4531 L78.7344,157.4531 Q78.5781,157.3281 78.3438,157.1563 Q78.125,156.9688 77.8281,156.7969 Q77.5313,156.625 77.1875,156.5156 Q76.8438,156.3906 76.4531,156.3906 Q76.0156,156.3906 75.625,156.5313 Q75.2344,156.6563 74.9063,156.9844 Q74.5938,157.2813 74.3906,157.7969 Q74.2031,158.2969 74.2031,159.0156 Q74.2031,159.7656 74.4063,160.2813 Q74.625,160.7813 74.9375,161.0625 Q75.2656,161.3594 75.6719,161.4844 Q76.0781,161.6094 76.4688,161.6094 Q76.8438,161.6094 77.2031,161.5 Q77.5781,161.3906 77.8906,161.1875 Q78.1563,161.0469 78.375,160.875 Q78.6094,160.6875 78.75,160.5625 L78.9688,160.5625 L78.9688,162.4688 Q78.6719,162.6094 78.3906,162.7344 Q78.125,162.8438 77.8125,162.9219 Q77.4219,163.0313 77.0781,163.0938 Q76.7344,163.1563 76.1406,163.1563 Z "/><text fill="#FFFFFF" font-family="Verdana" font-size="11" lengthAdjust="spacingAndGlyphs" textLength="107" x="86.5" y="163.3748">RefinedAbstraction</text><line style="stroke: #1B1B1B; stroke-width: 1.5;" x1="64.5" x2="195.5" y1="172" y2="172"/><line style="stroke: #1B1B1B; stroke-width: 1.5;" x1="64.5" x2="195.5" y1="180" y2="180"/><ellipse cx="74.5" cy="191" fill="#84BE84" rx="3" ry="3" style="stroke: #038048; stroke-width: 1.0;"/><text fill="#AAAAAA" font-family="sans-serif" font-size="11" lengthAdjust="spacingAndGlyphs" textLength="57" x="80.5" y="194.2104">function();</text><!--MD5=[e122f73aad4e23bd379e5a2a2f5217b5]
class Implementor--><rect fill="#2E2E2E" filter="url(#fir9zx8qn5qls)" height="64.978" id="Implementor" style="stroke: #1B1B1B; stroke-width: 1.5;" width="123" x="243.5" y="14.5"/><ellipse cx="265.85" cy="32.5867" fill="#A9DCDF" rx="8" ry="8" style="stroke: #1B1B1B; stroke-width: 1.0;"/><path d="M269.7563,36.0867 L267.6313,36.0867 L267.0688,34.4773 L264.1156,34.4773 L263.5531,36.0867 L261.475,36.0867 L264.4281,28.0867 L266.8031,28.0867 L269.7563,36.0867 Z M266.5688,33.0085 L265.6,30.1335 L264.6156,33.0085 L266.5688,33.0085 Z "/><text fill="#AAAAAA" font-family="sans-serif" font-size="11" font-style="italic" lengthAdjust="spacingAndGlyphs" textLength="41" x="295.65" y="29.7104">«View»</text><text fill="#FFFFFF" font-family="Verdana" font-size="11" font-style="italic" lengthAdjust="spacingAndGlyphs" textLength="74" x="279.15" y="43.3638">Implementor</text><line style="stroke: #1B1B1B; stroke-width: 1.5;" x1="244.5" x2="365.5" y1="50.6733" y2="50.6733"/><line style="stroke: #1B1B1B; stroke-width: 1.5;" x1="244.5" x2="365.5" y1="58.6733" y2="58.6733"/><ellipse cx="254.5" cy="69.6733" fill="#84BE84" rx="3" ry="3" style="stroke: #038048; stroke-width: 1.0;"/><text fill="#AAAAAA" font-family="sans-serif" font-size="11" font-style="italic" lengthAdjust="spacingAndGlyphs" textLength="100" x="260.5" y="72.8838">implementation();</text><!--MD5=[f1a4d604661cb2c437f68be1667917ff]
class ConcreateImplementor--><rect fill="#2E2E2E" filter="url(#fir9zx8qn5qls)" height="54.8047" id="ConcreateImplementor" style="stroke: #1B1B1B; stroke-width: 1.5;" width="159" x="244.5" y="146"/><ellipse cx="256.5" cy="159" fill="#BB6600" rx="8" ry="8" style="stroke: #1B1B1B; stroke-width: 1.0;"/><path d="M257.1406,163.1563 Q256.25,163.1563 255.4844,162.8906 Q254.7344,162.625 254.1875,162.1094 Q253.6563,161.5938 253.3438,160.8125 Q253.0469,160.0313 253.0469,159.0156 Q253.0469,158.0625 253.3281,157.2969 Q253.625,156.5156 254.1719,155.9531 Q254.6875,155.4219 255.4531,155.1406 Q256.2344,154.8438 257.1406,154.8438 Q257.6406,154.8438 258.0469,154.9063 Q258.4531,154.9531 258.7969,155.0469 Q259.1563,155.1563 259.4531,155.2813 Q259.75,155.4063 259.9688,155.5156 L259.9688,157.4531 L259.7344,157.4531 Q259.5781,157.3281 259.3438,157.1563 Q259.125,156.9688 258.8281,156.7969 Q258.5313,156.625 258.1875,156.5156 Q257.8438,156.3906 257.4531,156.3906 Q257.0156,156.3906 256.625,156.5313 Q256.2344,156.6563 255.9063,156.9844 Q255.5938,157.2813 255.3906,157.7969 Q255.2031,158.2969 255.2031,159.0156 Q255.2031,159.7656 255.4063,160.2813 Q255.625,160.7813 255.9375,161.0625 Q256.2656,161.3594 256.6719,161.4844 Q257.0781,161.6094 257.4688,161.6094 Q257.8438,161.6094 258.2031,161.5 Q258.5781,161.3906 258.8906,161.1875 Q259.1563,161.0469 259.375,160.875 Q259.6094,160.6875 259.75,160.5625 L259.9688,160.5625 L259.9688,162.4688 Q259.6719,162.6094 259.3906,162.7344 Q259.125,162.8438 258.8125,162.9219 Q258.4219,163.0313 258.0781,163.0938 Q257.7344,163.1563 257.1406,163.1563 Z "/><text fill="#FFFFFF" font-family="Verdana" font-size="11" lengthAdjust="spacingAndGlyphs" textLength="133" x="267.5" y="163.3748">ConcreateImplementor</text><line style="stroke: #1B1B1B; stroke-width: 1.5;" x1="245.5" x2="402.5" y1="172" y2="172"/><line style="stroke: #1B1B1B; stroke-width: 1.5;" x1="245.5" x2="402.5" y1="180" y2="180"/><ellipse cx="255.5" cy="191" fill="#84BE84" rx="3" ry="3" style="stroke: #038048; stroke-width: 1.0;"/><text fill="#AAAAAA" font-family="sans-serif" font-size="11" lengthAdjust="spacingAndGlyphs" textLength="100" x="261.5" y="194.2104">implementation();</text><path d="M6,261 L6,284.3687 A0,0 0 0 0 6,284.3687 L202,284.3687 A0,0 0 0 0 202,284.3687 L202,271 L192,261 L110.83,261 L122.9,201.01 L102.83,261 L6,261 A0,0 0 0 0 6,261 " fill="#BB6600" filter="url(#fir9zx8qn5qls)" style="stroke: #662200; stroke-width: 1.0;"/><path d="M192,261 L192,271 L202,271 L192,261 " fill="#BB6600" style="stroke: #662200; stroke-width: 1.0;"/><text fill="#FFFFFF" font-family="Verdana" font-size="11" lengthAdjust="spacingAndGlyphs" textLength="175" x="12" y="277.0591">LongWindow and ShortWindow</text><path d="M237,261 L237,284.3687 A0,0 0 0 0 237,284.3687 L437,284.3687 A0,0 0 0 0 437,284.3687 L437,271 L427,261 L339.58,261 L327.55,201.01 L331.58,261 L237,261 A0,0 0 0 0 237,261 " fill="#BB6600" filter="url(#fir9zx8qn5qls)" style="stroke: #662200; stroke-width: 1.0;"/><path d="M427,261 L427,271 L437,271 L427,261 " fill="#BB6600" style="stroke: #662200; stroke-width: 1.0;"/><text fill="#FFFFFF" font-family="Verdana" font-size="11" lengthAdjust="spacingAndGlyphs" textLength="179" x="243" y="277.0591">MusicAlbumView and BookView</text><!--MD5=[9b8a9978f0a7251db28d3c357ee97f99]
reverse link Abstraction to RefinedAbstraction--><path d="M135.31,106.39 C134.2,120.16 133.08,134.18 132.15,145.75 " fill="none" id="Abstraction&lt;-RefinedAbstraction" style="stroke: #FFFFFF; stroke-width: 1.0;"/><polygon fill="none" points="128.37,105.41,136.95,86.03,142.32,106.53,128.37,105.41" style="stroke: #FFFFFF; stroke-width: 1.0;"/><!--MD5=[c75916e4ad9e92a3f89095685e2f70f1]
reverse link Implementor to ConcreateImplementor--><path d="M312.89,99.71 C315.31,115.58 317.88,132.4 319.94,145.87 " fill="none" id="Implementor&lt;-ConcreateImplementor" style="stroke: #FFFFFF; stroke-width: 1.0;"/><polygon fill="none" points="305.94,100.57,309.84,79.74,319.78,98.45,305.94,100.57" style="stroke: #FFFFFF; stroke-width: 1.0;"/><!--MD5=[07eb4876f32b0fc987fa40c9c707c0e4]
reverse link Abstraction to Implementor--><path d="M217.09,47 C225.84,47 234.59,47 243.34,47 " fill="none" id="Abstraction&lt;-Implementor" style="stroke: #FFFFFF; stroke-width: 1.0;"/><polygon fill="#777777" points="203.81,47,209.81,51,215.81,47,209.81,43,203.81,47" style="stroke: #FFFFFF; stroke-width: 1.0;"/><!--MD5=[8f6f758c9dab47573fe7fbff09b1219a]
@startuml bridge_pattern

!define DARKORANGE
!includeurl https://raw.githubusercontent.com/Drakemor/RedDress-PlantUML/master/style.puml

abstract class Abstraction <<Window>>{
    - Implementor impl;
    + {abstract} function();
}

class RefinedAbstraction {
    + function();
}

abstract class Implementor <<View>>{
    + {abstract} implementation();
}

class ConcreateImplementor {
    + implementation();
}

Abstraction <|- - RefinedAbstraction
Implementor <|- - ConcreateImplementor
Abstraction o-right- Implementor

note "LongWindow and ShortWindow" as N1
N1 .up. RefinedAbstraction
note "MusicAlbumView and BookView" as N2
N2 .up. ConcreateImplementor

@enduml

@startuml bridge_pattern










skinparam stereotypeCBackgroundColor BB6600



skinparam backgroundColor 777







skinparam circledCharacter {
  radius 8
  fontSize 11
  fontName Verdana
}

skinparam class {
    backgroundColor 2e2e2e
  borderColor 1b1b1b
    fontColor fff
  fontName Verdana
  fontSize 11
  stereotypeFontColor aaa
  stereotypeFontSize 11
    arrowColor fff
  arrowFontName Verdana
  arrowFontColor bbb
  arrowFontSize 11

  attributeFontColor aaa
  attributeFontSize 11
  attributeIconSize 11
}


skinparam actor {
    backgroundColor BB6600
  borderColor 662200
    fontColor fff
  fontName Verdana
  fontSize 11
  stereotypeFontColor aaa
  stereotypeFontSize 11
}

skinparam participant {
    backgroundColor 2e2e2e
  borderColor 1b1b1b
    fontColor fff
  fontName Verdana
  fontSize 11
  stereotypeFontColor aaa
  stereotypeFontSize 11
}

skinparam collections {
    backgroundColor 2e2e2e
  borderColor 1b1b1b
    fontColor fff
  fontName Verdana
  fontSize 11
  stereotypeFontColor aaa
  stereotypeFontSize 11
}

skinparam SequenceBox{
    backgroundColor 575757
  borderColor 767676
    fontColor fff
  fontName Verdana
  fontSize 11
  stereotypeFontColor aaa
  stereotypeFontSize 11
}


skinparam interface {
    backgroundColor BB6600
  borderColor 662200
    fontColor fff
  fontName Verdana
  fontSize 11
  stereotypeFontColor aaa
  stereotypeFontSize 11
}

skinparam component {
    backgroundColor 2e2e2e
  borderColor 1b1b1b
    fontColor fff
  fontName Verdana
  fontSize 11
  stereotypeFontColor aaa
  stereotypeFontSize 11
}

skinparam node {
    backgroundColor 2e2e2e
  borderColor 1b1b1b
    fontColor fff
  fontName Verdana
  fontSize 11
  stereotypeFontColor aaa
  stereotypeFontSize 11
}

skinparam database {
    backgroundColor 2e2e2e
  borderColor 1b1b1b
    fontColor fff
  fontName Verdana
  fontSize 11
  stereotypeFontColor aaa
  stereotypeFontSize 11
}

skinparam queue {
    backgroundColor 2e2e2e
  borderColor 1b1b1b
    fontColor fff
  fontName Verdana
  fontSize 11
  stereotypeFontColor aaa
  stereotypeFontSize 11
}


skinparam usecase {
    backgroundColor 2e2e2e
  borderColor 1b1b1b
    fontColor fff
  fontName Verdana
  fontSize 11
  stereotypeFontColor aaa
  stereotypeFontSize 11
    arrowColor fff
  arrowFontName Verdana
  arrowFontColor bbb
  arrowFontSize 11
}

skinparam activity {
    backgroundColor 2e2e2e
  borderColor 1b1b1b
    fontColor fff
  fontName Verdana
  fontSize 11
  stereotypeFontColor aaa
  stereotypeFontSize 11
    arrowColor fff
  arrowFontName Verdana
  arrowFontColor bbb
  arrowFontSize 11
}

skinparam sequence {
    fontColor fff
  fontName Verdana
  fontSize 11
  stereotypeFontColor aaa
  stereotypeFontSize 11
    arrowColor fff
  arrowFontName Verdana
  arrowFontColor bbb
  arrowFontSize 11

  lifeLineBorderColor BB6600
  lifeLineBackgroundColor 575757
}

skinparam boundary {
    backgroundColor BB6600
  borderColor 662200
    fontColor fff
  fontName Verdana
  fontSize 11
  stereotypeFontColor aaa
  stereotypeFontSize 11
}

skinparam control {
    backgroundColor BB6600
  borderColor 662200
    fontColor fff
  fontName Verdana
  fontSize 11
  stereotypeFontColor aaa
  stereotypeFontSize 11
}

skinparam entity {
    backgroundColor BB6600
  borderColor 662200
    fontColor fff
  fontName Verdana
  fontSize 11
  stereotypeFontColor aaa
  stereotypeFontSize 11
}


skinparam state {
    backgroundColor 2e2e2e
  borderColor 1b1b1b
    fontColor fff
  fontName Verdana
  fontSize 11
  stereotypeFontColor aaa
  stereotypeFontSize 11
    arrowColor fff
  arrowFontName Verdana
  arrowFontColor bbb
  arrowFontSize 11
  startColor BB6600
  endColor 662200
}


skinparam object {
    backgroundColor 2e2e2e
  borderColor 1b1b1b
    fontColor fff
  fontName Verdana
  fontSize 11
  stereotypeFontColor aaa
  stereotypeFontSize 11
    arrowColor fff
  arrowFontName Verdana
  arrowFontColor bbb
  arrowFontSize 11
}


skinparam note {
    backgroundColor BB6600
  borderColor 662200
    fontColor fff
  fontName Verdana
  fontSize 11
  stereotypeFontColor aaa
  stereotypeFontSize 11
}

skinparam cloud {
    backgroundColor 2e2e2e
  borderColor 1b1b1b
    fontColor fff
  fontName Verdana
  fontSize 11
  stereotypeFontColor aaa
  stereotypeFontSize 11
    arrowColor fff
  arrowFontName Verdana
  arrowFontColor bbb
  arrowFontSize 11
}

skinparam rectangle {
    backgroundColor 2e2e2e
  borderColor 1b1b1b
    fontColor fff
  fontName Verdana
  fontSize 11
  stereotypeFontColor aaa
  stereotypeFontSize 11
}

skinparam storage {
    backgroundColor 2e2e2e
  borderColor 1b1b1b
    fontColor fff
  fontName Verdana
  fontSize 11
  stereotypeFontColor aaa
  stereotypeFontSize 11
}


abstract class Abstraction <<Window>>{
    - Implementor impl;
    + {abstract} function();
}

class RefinedAbstraction {
    + function();
}

abstract class Implementor <<View>>{
    + {abstract} implementation();
}

class ConcreateImplementor {
    + implementation();
}

Abstraction <|- - RefinedAbstraction
Implementor <|- - ConcreateImplementor
Abstraction o-right- Implementor

note "LongWindow and ShortWindow" as N1
N1 .up. RefinedAbstraction
note "MusicAlbumView and BookView" as N2
N2 .up. ConcreateImplementor

@enduml

PlantUML version 1.2020.10(Sun May 17 15:05:57 IST 2020)
(GPL source distribution)
Java Runtime: OpenJDK Runtime Environment
JVM: OpenJDK 64-Bit Server VM
Java Version: 11.0.8+10-post-Ubuntu-0ubuntu120.04
Operating System: Linux
Default Encoding: UTF-8
Language: en
Country: IN
--></g></svg>