<?xml version="1.0" encoding="UTF-8" standalone="no"?><svg xmlns="http://www.w3.org/2000/svg" xmlns:xlink="http://www.w3.org/1999/xlink" contentScriptType="application/ecmascript" contentStyleType="text/css" height="421px" preserveAspectRatio="none" style="width:447px;height:421px;background:#777777;" version="1.1" viewBox="0 0 447 421" width="447px" zoomAndPan="magnify"><defs><filter height="300%" id="fut4a1l83dimb" width="300%" x="-1" y="-1"><feGaussianBlur result="blurOut" stdDeviation="2.0"/><feColorMatrix in="blurOut" result="blurOut2" type="matrix" values="0 0 0 0 0 0 0 0 0 0 0 0 0 0 0 0 0 0 .4 0"/><feOffset dx="4.0" dy="4.0" in="blurOut2" result="blurOut3"/><feBlend in="SourceGraphic" in2="blurOut3" mode="normal"/></filter></defs><g><!--MD5=[52f802d322969db2fe6fe6492fa3824b]
class Caretaker--><rect fill="#2E2E2E" filter="url(#fut4a1l83dimb)" height="67.6094" id="Caretaker" style="stroke: #1B1B1B; stroke-width: 1.5;" width="116" x="111" y="248"/><ellipse cx="137.4" cy="261" fill="#BB6600" rx="8" ry="8" style="stroke: #1B1B1B; stroke-width: 1.0;"/><path d="M138.0406,265.1563 Q137.15,265.1563 136.3844,264.8906 Q135.6344,264.625 135.0875,264.1094 Q134.5563,263.5938 134.2438,262.8125 Q133.9469,262.0313 133.9469,261.0156 Q133.9469,260.0625 134.2281,259.2969 Q134.525,258.5156 135.0719,257.9531 Q135.5875,257.4219 136.3531,257.1406 Q137.1344,256.8438 138.0406,256.8438 Q138.5406,256.8438 138.9469,256.9063 Q139.3531,256.9531 139.6969,257.0469 Q140.0563,257.1563 140.3531,257.2813 Q140.65,257.4063 140.8688,257.5156 L140.8688,259.4531 L140.6344,259.4531 Q140.4781,259.3281 140.2438,259.1563 Q140.025,258.9688 139.7281,258.7969 Q139.4313,258.625 139.0875,258.5156 Q138.7438,258.3906 138.3531,258.3906 Q137.9156,258.3906 137.525,258.5313 Q137.1344,258.6563 136.8063,258.9844 Q136.4938,259.2813 136.2906,259.7969 Q136.1031,260.2969 136.1031,261.0156 Q136.1031,261.7656 136.3063,262.2813 Q136.525,262.7813 136.8375,263.0625 Q137.1656,263.3594 137.5719,263.4844 Q137.9781,263.6094 138.3688,263.6094 Q138.7438,263.6094 139.1031,263.5 Q139.4781,263.3906 139.7906,263.1875 Q140.0563,263.0469 140.275,262.875 Q140.5094,262.6875 140.65,262.5625 L140.8688,262.5625 L140.8688,264.4688 Q140.5719,264.6094 140.2906,264.7344 Q140.025,264.8438 139.7125,264.9219 Q139.3219,265.0313 138.9781,265.0938 Q138.6344,265.1563 138.0406,265.1563 Z "/><text fill="#FFFFFF" font-family="Verdana" font-size="11" lengthAdjust="spacingAndGlyphs" textLength="58" x="151.6" y="265.3748">Caretaker</text><line style="stroke: #1B1B1B; stroke-width: 1.5;" x1="112" x2="226" y1="274" y2="274"/><line style="stroke: #1B1B1B; stroke-width: 1.5;" x1="112" x2="226" y1="282" y2="282"/><ellipse cx="122" cy="293" fill="#84BE84" rx="3" ry="3" style="stroke: #038048; stroke-width: 1.0;"/><text fill="#AAAAAA" font-family="sans-serif" font-size="11" lengthAdjust="spacingAndGlyphs" textLength="93" x="128" y="296.2104">add_memento();</text><ellipse cx="122" cy="305.8047" fill="#84BE84" rx="3" ry="3" style="stroke: #038048; stroke-width: 1.0;"/><text fill="#AAAAAA" font-family="sans-serif" font-size="11" lengthAdjust="spacingAndGlyphs" textLength="90" x="128" y="309.0151">get_memento();</text><!--MD5=[7741422977f4247944b44037bf409cca]
class Originator--><rect fill="#2E2E2E" filter="url(#fut4a1l83dimb)" height="67.6094" id="Originator" style="stroke: #1B1B1B; stroke-width: 1.5;" width="137" x="100.5" y="8"/><ellipse cx="137" cy="21" fill="#BB6600" rx="8" ry="8" style="stroke: #1B1B1B; stroke-width: 1.0;"/><path d="M137.6406,25.1563 Q136.75,25.1563 135.9844,24.8906 Q135.2344,24.625 134.6875,24.1094 Q134.1563,23.5938 133.8438,22.8125 Q133.5469,22.0313 133.5469,21.0156 Q133.5469,20.0625 133.8281,19.2969 Q134.125,18.5156 134.6719,17.9531 Q135.1875,17.4219 135.9531,17.1406 Q136.7344,16.8438 137.6406,16.8438 Q138.1406,16.8438 138.5469,16.9063 Q138.9531,16.9531 139.2969,17.0469 Q139.6563,17.1563 139.9531,17.2813 Q140.25,17.4063 140.4688,17.5156 L140.4688,19.4531 L140.2344,19.4531 Q140.0781,19.3281 139.8438,19.1563 Q139.625,18.9688 139.3281,18.7969 Q139.0313,18.625 138.6875,18.5156 Q138.3438,18.3906 137.9531,18.3906 Q137.5156,18.3906 137.125,18.5313 Q136.7344,18.6563 136.4063,18.9844 Q136.0938,19.2813 135.8906,19.7969 Q135.7031,20.2969 135.7031,21.0156 Q135.7031,21.7656 135.9063,22.2813 Q136.125,22.7813 136.4375,23.0625 Q136.7656,23.3594 137.1719,23.4844 Q137.5781,23.6094 137.9688,23.6094 Q138.3438,23.6094 138.7031,23.5 Q139.0781,23.3906 139.3906,23.1875 Q139.6563,23.0469 139.875,22.875 Q140.1094,22.6875 140.25,22.5625 L140.4688,22.5625 L140.4688,24.4688 Q140.1719,24.6094 139.8906,24.7344 Q139.625,24.8438 139.3125,24.9219 Q138.9219,25.0313 138.5781,25.0938 Q138.2344,25.1563 137.6406,25.1563 Z "/><text fill="#FFFFFF" font-family="Verdana" font-size="11" lengthAdjust="spacingAndGlyphs" textLength="57" x="153" y="25.3748">Originator</text><line style="stroke: #1B1B1B; stroke-width: 1.5;" x1="101.5" x2="236.5" y1="34" y2="34"/><line style="stroke: #1B1B1B; stroke-width: 1.5;" x1="101.5" x2="236.5" y1="42" y2="42"/><ellipse cx="111.5" cy="53" fill="#84BE84" rx="3" ry="3" style="stroke: #038048; stroke-width: 1.0;"/><text fill="#AAAAAA" font-family="sans-serif" font-size="11" lengthAdjust="spacingAndGlyphs" textLength="102" x="117.5" y="56.2104">store_memento();</text><ellipse cx="111.5" cy="65.8047" fill="#84BE84" rx="3" ry="3" style="stroke: #038048; stroke-width: 1.0;"/><text fill="#AAAAAA" font-family="sans-serif" font-size="11" lengthAdjust="spacingAndGlyphs" textLength="114" x="117.5" y="69.0151">restore_memento();</text><!--MD5=[b8338156e8cd96c783f5ffc7d8021ea7]
class Memento--><rect fill="#2E2E2E" filter="url(#fut4a1l83dimb)" height="67.6094" id="Memento" style="stroke: #1B1B1B; stroke-width: 1.5;" width="112" x="324" y="8"/><ellipse cx="351.3" cy="21" fill="#BB6600" rx="8" ry="8" style="stroke: #1B1B1B; stroke-width: 1.0;"/><path d="M351.9406,25.1563 Q351.05,25.1563 350.2844,24.8906 Q349.5344,24.625 348.9875,24.1094 Q348.4563,23.5938 348.1438,22.8125 Q347.8469,22.0313 347.8469,21.0156 Q347.8469,20.0625 348.1281,19.2969 Q348.425,18.5156 348.9719,17.9531 Q349.4875,17.4219 350.2531,17.1406 Q351.0344,16.8438 351.9406,16.8438 Q352.4406,16.8438 352.8469,16.9063 Q353.2531,16.9531 353.5969,17.0469 Q353.9563,17.1563 354.2531,17.2813 Q354.55,17.4063 354.7688,17.5156 L354.7688,19.4531 L354.5344,19.4531 Q354.3781,19.3281 354.1438,19.1563 Q353.925,18.9688 353.6281,18.7969 Q353.3313,18.625 352.9875,18.5156 Q352.6438,18.3906 352.2531,18.3906 Q351.8156,18.3906 351.425,18.5313 Q351.0344,18.6563 350.7063,18.9844 Q350.3938,19.2813 350.1906,19.7969 Q350.0031,20.2969 350.0031,21.0156 Q350.0031,21.7656 350.2063,22.2813 Q350.425,22.7813 350.7375,23.0625 Q351.0656,23.3594 351.4719,23.4844 Q351.8781,23.6094 352.2688,23.6094 Q352.6438,23.6094 353.0031,23.5 Q353.3781,23.3906 353.6906,23.1875 Q353.9563,23.0469 354.175,22.875 Q354.4094,22.6875 354.55,22.5625 L354.7688,22.5625 L354.7688,24.4688 Q354.4719,24.6094 354.1906,24.7344 Q353.925,24.8438 353.6125,24.9219 Q353.2219,25.0313 352.8781,25.0938 Q352.5344,25.1563 351.9406,25.1563 Z "/><text fill="#FFFFFF" font-family="Verdana" font-size="11" lengthAdjust="spacingAndGlyphs" textLength="52" x="365.7" y="25.3748">Memento</text><line style="stroke: #1B1B1B; stroke-width: 1.5;" x1="325" x2="435" y1="34" y2="34"/><line style="stroke: #1B1B1B; stroke-width: 1.5;" x1="325" x2="435" y1="42" y2="42"/><ellipse cx="335" cy="53" fill="#84BE84" rx="3" ry="3" style="stroke: #038048; stroke-width: 1.0;"/><text fill="#AAAAAA" font-family="sans-serif" font-size="11" lengthAdjust="spacingAndGlyphs" textLength="89" x="341" y="56.2104">Memento(data);</text><ellipse cx="335" cy="65.8047" fill="#84BE84" rx="3" ry="3" style="stroke: #038048; stroke-width: 1.0;"/><text fill="#AAAAAA" font-family="sans-serif" font-size="11" lengthAdjust="spacingAndGlyphs" textLength="61" x="341" y="69.0151">get_data();</text><!--MD5=[99a8f7b7d62222417991320410ebdaf2]
entity History--><rect fill="#556B2F" filter="url(#fut4a1l83dimb)" height="29.3687" style="stroke: #1B1B1B; stroke-width: 1.5;" width="56" x="143" y="381"/><rect fill="#556B2F" height="29.3687" style="stroke: #1B1B1B; stroke-width: 1.5;" width="56" x="139" y="377"/><text fill="#FFFFFF" font-family="Verdana" font-size="11" lengthAdjust="spacingAndGlyphs" textLength="40" x="147" y="396.0591">History</text><path d="M6,137 L6,187.106 L188,187.106 L188,147 L178,137 L6,137 " fill="#BB6600" filter="url(#fut4a1l83dimb)" style="stroke: #662200; stroke-width: 1.0;"/><path d="M178,137 L178,147 L188,147 L178,137 " fill="#BB6600" style="stroke: #662200; stroke-width: 1.0;"/><text fill="#FFFFFF" font-family="Verdana" font-size="11" lengthAdjust="spacingAndGlyphs" textLength="161" x="12" y="153.0591">Originator creates memento</text><text fill="#FFFFFF" font-family="Verdana" font-size="11" lengthAdjust="spacingAndGlyphs" textLength="155" x="12" y="166.4277">Caretaker stores in History</text><text fill="#FFFFFF" font-family="Verdana" font-size="11" lengthAdjust="spacingAndGlyphs" textLength="125" x="16" y="179.7964">vice-versa for restore</text><!--MD5=[71d138568cdfa7e1d586268bf66dd3c4]
link Originator to Memento--><path d="M237.75,44.67 C256.38,45.11 276.55,45.33 295.17,45 C302.71,44.87 310.63,44.67 318.47,44.43 " fill="none" id="Originator-&gt;Memento" style="stroke: #FFFFFF; stroke-width: 1.0;"/><polygon fill="#FFFFFF" points="323.88,44.26,314.7588,40.5447,318.8825,44.4171,315.0101,48.5407,323.88,44.26" style="stroke: #FFFFFF; stroke-width: 1.0;"/><!--MD5=[71d138568cdfa7e1d586268bf66dd3c4]
link Originator to Memento--><path d="M237.51,42 C263.68,42 293.33,42 318.78,42 " fill="none" id="Originator-&gt;Memento-1" style="stroke: #FFFFFF; stroke-width: 1.0; stroke-dasharray: 7.0,7.0;"/><polygon fill="#FFFFFF" points="323.81,42,314.81,38,318.81,42,314.81,46,323.81,42" style="stroke: #FFFFFF; stroke-width: 1.0;"/><text fill="#BBBBBB" font-family="Verdana" font-size="11" lengthAdjust="spacingAndGlyphs" textLength="50" x="255.75" y="36.0591">«create»</text><!--MD5=[4ec1079b01da5a0b8c52f5a6ac207612]
link Caretaker to Originator--><path d="M185.08,247.93 C192.77,230.3 201.12,207.96 205,187 C209.04,165.15 209.04,158.85 205,137 C201.46,117.84 194.17,97.53 187.07,80.72 " fill="none" id="Caretaker-&gt;Originator" style="stroke: #FFFFFF; stroke-width: 1.0;"/><polygon fill="#FFFFFF" points="185.08,76.07,184.9487,85.918,187.0496,80.6657,192.3019,82.7666,185.08,76.07" style="stroke: #FFFFFF; stroke-width: 1.0;"/><!--MD5=[c16cbe64f18338d021ece99eeda32cf7]
link Caretaker to History--><path d="M169,316.15 C169,334.25 169,356.09 169,371.77 " fill="none" id="Caretaker-&gt;History" style="stroke: #FFFFFF; stroke-width: 1.0;"/><polygon fill="#FFFFFF" points="169,376.84,173,367.84,169,371.84,165,367.84,169,376.84" style="stroke: #FFFFFF; stroke-width: 1.0;"/><!--MD5=[0a31154468d867cb004a57bcb9387070]
link N1 to Caretaker--><path d="M111.74,187.16 C122.44,204.69 137.04,228.62 148.82,247.92 " fill="none" id="N1-Caretaker" style="stroke: #FFFFFF; stroke-width: 1.0; stroke-dasharray: 7.0,7.0;"/><!--MD5=[44a734a1176a70be165ab83c7422a9ac]
link Originator to N1--><path d="M148.75,76.18 C137.02,95.41 122.51,119.18 111.85,136.67 " fill="none" id="Originator-N1" style="stroke: #FFFFFF; stroke-width: 1.0; stroke-dasharray: 7.0,7.0;"/><!--MD5=[7e4b284c081b33b5effaeb2cbd41e9eb]
@startuml memento_pattern

!define DARKORANGE
!includeurl https://raw.githubusercontent.com/Drakemor/RedDress-PlantUML/master/style.puml

class Caretaker {
    + add_memento();
    + get_memento();
}

class Originator {
    + store_memento();
    + restore_memento();
}

class Memento {
    + Memento(data);
    + get_data();
}

Originator -right-> Memento
Originator ..> Memento : <<create>>
Caretaker -right-> Originator

allow_mixing
collections History #DarkOliveGreen
Caretaker - -> History

note "Originator creates memento\nCaretaker stores in History \n vice-versa for restore" as N1
N1 .. Caretaker 
Originator .. N1
@enduml

@startuml memento_pattern










skinparam stereotypeCBackgroundColor BB6600



skinparam backgroundColor 777







skinparam circledCharacter {
  radius 8
  fontSize 11
  fontName Verdana
}

skinparam class {
    backgroundColor 2e2e2e
  borderColor 1b1b1b
    fontColor fff
  fontName Verdana
  fontSize 11
  stereotypeFontColor aaa
  stereotypeFontSize 11
    arrowColor fff
  arrowFontName Verdana
  arrowFontColor bbb
  arrowFontSize 11

  attributeFontColor aaa
  attributeFontSize 11
  attributeIconSize 11
}


skinparam actor {
    backgroundColor BB6600
  borderColor 662200
    fontColor fff
  fontName Verdana
  fontSize 11
  stereotypeFontColor aaa
  stereotypeFontSize 11
}

skinparam participant {
    backgroundColor 2e2e2e
  borderColor 1b1b1b
    fontColor fff
  fontName Verdana
  fontSize 11
  stereotypeFontColor aaa
  stereotypeFontSize 11
}

skinparam collections {
    backgroundColor 2e2e2e
  borderColor 1b1b1b
    fontColor fff
  fontName Verdana
  fontSize 11
  stereotypeFontColor aaa
  stereotypeFontSize 11
}

skinparam SequenceBox{
    backgroundColor 575757
  borderColor 767676
    fontColor fff
  fontName Verdana
  fontSize 11
  stereotypeFontColor aaa
  stereotypeFontSize 11
}


skinparam interface {
    backgroundColor BB6600
  borderColor 662200
    fontColor fff
  fontName Verdana
  fontSize 11
  stereotypeFontColor aaa
  stereotypeFontSize 11
}

skinparam component {
    backgroundColor 2e2e2e
  borderColor 1b1b1b
    fontColor fff
  fontName Verdana
  fontSize 11
  stereotypeFontColor aaa
  stereotypeFontSize 11
}

skinparam node {
    backgroundColor 2e2e2e
  borderColor 1b1b1b
    fontColor fff
  fontName Verdana
  fontSize 11
  stereotypeFontColor aaa
  stereotypeFontSize 11
}

skinparam database {
    backgroundColor 2e2e2e
  borderColor 1b1b1b
    fontColor fff
  fontName Verdana
  fontSize 11
  stereotypeFontColor aaa
  stereotypeFontSize 11
}

skinparam queue {
    backgroundColor 2e2e2e
  borderColor 1b1b1b
    fontColor fff
  fontName Verdana
  fontSize 11
  stereotypeFontColor aaa
  stereotypeFontSize 11
}


skinparam usecase {
    backgroundColor 2e2e2e
  borderColor 1b1b1b
    fontColor fff
  fontName Verdana
  fontSize 11
  stereotypeFontColor aaa
  stereotypeFontSize 11
    arrowColor fff
  arrowFontName Verdana
  arrowFontColor bbb
  arrowFontSize 11
}

skinparam activity {
    backgroundColor 2e2e2e
  borderColor 1b1b1b
    fontColor fff
  fontName Verdana
  fontSize 11
  stereotypeFontColor aaa
  stereotypeFontSize 11
    arrowColor fff
  arrowFontName Verdana
  arrowFontColor bbb
  arrowFontSize 11
}

skinparam sequence {
    fontColor fff
  fontName Verdana
  fontSize 11
  stereotypeFontColor aaa
  stereotypeFontSize 11
    arrowColor fff
  arrowFontName Verdana
  arrowFontColor bbb
  arrowFontSize 11

  lifeLineBorderColor BB6600
  lifeLineBackgroundColor 575757
}

skinparam boundary {
    backgroundColor BB6600
  borderColor 662200
    fontColor fff
  fontName Verdana
  fontSize 11
  stereotypeFontColor aaa
  stereotypeFontSize 11
}

skinparam control {
    backgroundColor BB6600
  borderColor 662200
    fontColor fff
  fontName Verdana
  fontSize 11
  stereotypeFontColor aaa
  stereotypeFontSize 11
}

skinparam entity {
    backgroundColor BB6600
  borderColor 662200
    fontColor fff
  fontName Verdana
  fontSize 11
  stereotypeFontColor aaa
  stereotypeFontSize 11
}


skinparam state {
    backgroundColor 2e2e2e
  borderColor 1b1b1b
    fontColor fff
  fontName Verdana
  fontSize 11
  stereotypeFontColor aaa
  stereotypeFontSize 11
    arrowColor fff
  arrowFontName Verdana
  arrowFontColor bbb
  arrowFontSize 11
  startColor BB6600
  endColor 662200
}


skinparam object {
    backgroundColor 2e2e2e
  borderColor 1b1b1b
    fontColor fff
  fontName Verdana
  fontSize 11
  stereotypeFontColor aaa
  stereotypeFontSize 11
    arrowColor fff
  arrowFontName Verdana
  arrowFontColor bbb
  arrowFontSize 11
}


skinparam note {
    backgroundColor BB6600
  borderColor 662200
    fontColor fff
  fontName Verdana
  fontSize 11
  stereotypeFontColor aaa
  stereotypeFontSize 11
}

skinparam cloud {
    backgroundColor 2e2e2e
  borderColor 1b1b1b
    fontColor fff
  fontName Verdana
  fontSize 11
  stereotypeFontColor aaa
  stereotypeFontSize 11
    arrowColor fff
  arrowFontName Verdana
  arrowFontColor bbb
  arrowFontSize 11
}

skinparam rectangle {
    backgroundColor 2e2e2e
  borderColor 1b1b1b
    fontColor fff
  fontName Verdana
  fontSize 11
  stereotypeFontColor aaa
  stereotypeFontSize 11
}

skinparam storage {
    backgroundColor 2e2e2e
  borderColor 1b1b1b
    fontColor fff
  fontName Verdana
  fontSize 11
  stereotypeFontColor aaa
  stereotypeFontSize 11
}


class Caretaker {
    + add_memento();
    + get_memento();
}

class Originator {
    + store_memento();
    + restore_memento();
}

class Memento {
    + Memento(data);
    + get_data();
}

Originator -right-> Memento
Originator ..> Memento : <<create>>
Caretaker -right-> Originator

allow_mixing
collections History #DarkOliveGreen
Caretaker - -> History

note "Originator creates memento\nCaretaker stores in History \n vice-versa for restore" as N1
N1 .. Caretaker 
Originator .. N1
@enduml

PlantUML version 1.2020.10(Sun May 17 15:05:57 IST 2020)
(GPL source distribution)
Java Runtime: OpenJDK Runtime Environment
JVM: OpenJDK 64-Bit Server VM
Java Version: 11.0.8+10-post-Ubuntu-0ubuntu120.04
Operating System: Linux
Default Encoding: UTF-8
Language: en
Country: IN
--></g></svg>