<?xml version="1.0" encoding="UTF-8" standalone="no"?><svg xmlns="http://www.w3.org/2000/svg" xmlns:xlink="http://www.w3.org/1999/xlink" contentScriptType="application/ecmascript" contentStyleType="text/css" height="349px" preserveAspectRatio="none" style="width:670px;height:349px;background:#777777;" version="1.1" viewBox="0 0 670 349" width="670px" zoomAndPan="magnify"><defs><filter height="300%" id="f5u2mu7n7qczx" width="300%" x="-1" y="-1"><feGaussianBlur result="blurOut" stdDeviation="2.0"/><feColorMatrix in="blurOut" result="blurOut2" type="matrix" values="0 0 0 0 0 0 0 0 0 0 0 0 0 0 0 0 0 0 .4 0"/><feOffset dx="4.0" dy="4.0" in="blurOut2" result="blurOut3"/><feBlend in="SourceGraphic" in2="blurOut3" mode="normal"/></filter></defs><g><!--MD5=[4e13963c9dc916a21a8436ef39422b32]
class Component--><rect fill="#2E2E2E" filter="url(#f5u2mu7n7qczx)" height="64.978" id="Component" style="stroke: #1B1B1B; stroke-width: 1.5;" width="91" x="285" y="8"/><ellipse cx="297" cy="26.0867" fill="#A9DCDF" rx="8" ry="8" style="stroke: #1B1B1B; stroke-width: 1.0;"/><path d="M300.9063,29.5867 L298.7813,29.5867 L298.2188,27.9773 L295.2656,27.9773 L294.7031,29.5867 L292.625,29.5867 L295.5781,21.5867 L297.9531,21.5867 L300.9063,29.5867 Z M297.7188,26.5085 L296.75,23.6335 L295.7656,26.5085 L297.7188,26.5085 Z "/><text fill="#AAAAAA" font-family="sans-serif" font-size="11" font-style="italic" lengthAdjust="spacingAndGlyphs" textLength="46" x="317.5" y="23.2104">«IPizza»</text><text fill="#FFFFFF" font-family="Verdana" font-size="11" font-style="italic" lengthAdjust="spacingAndGlyphs" textLength="65" x="308" y="36.8638">Component</text><line style="stroke: #1B1B1B; stroke-width: 1.5;" x1="286" x2="375" y1="44.1733" y2="44.1733"/><line style="stroke: #1B1B1B; stroke-width: 1.5;" x1="286" x2="375" y1="52.1733" y2="52.1733"/><ellipse cx="296" cy="63.1733" fill="#84BE84" rx="3" ry="3" style="stroke: #038048; stroke-width: 1.0;"/><text fill="#AAAAAA" font-family="sans-serif" font-size="11" font-style="italic" lengthAdjust="spacingAndGlyphs" textLength="59" x="302" y="66.3838">get_cost();</text><!--MD5=[b5bc18f2ff550a3ef28474c0b2646ebb]
class ConcreteComponent--><rect fill="#2E2E2E" filter="url(#f5u2mu7n7qczx)" height="64.978" id="ConcreteComponent" style="stroke: #1B1B1B; stroke-width: 1.5;" width="144" x="258.5" y="146"/><ellipse cx="270.5" cy="164.0867" fill="#BB6600" rx="8" ry="8" style="stroke: #1B1B1B; stroke-width: 1.0;"/><path d="M271.1406,168.2429 Q270.25,168.2429 269.4844,167.9773 Q268.7344,167.7117 268.1875,167.196 Q267.6563,166.6804 267.3438,165.8992 Q267.0469,165.1179 267.0469,164.1023 Q267.0469,163.1492 267.3281,162.3835 Q267.625,161.6023 268.1719,161.0398 Q268.6875,160.5085 269.4531,160.2273 Q270.2344,159.9304 271.1406,159.9304 Q271.6406,159.9304 272.0469,159.9929 Q272.4531,160.0398 272.7969,160.1335 Q273.1563,160.2429 273.4531,160.3679 Q273.75,160.4929 273.9688,160.6023 L273.9688,162.5398 L273.7344,162.5398 Q273.5781,162.4148 273.3438,162.2429 Q273.125,162.0554 272.8281,161.8835 Q272.5313,161.7117 272.1875,161.6023 Q271.8438,161.4773 271.4531,161.4773 Q271.0156,161.4773 270.625,161.6179 Q270.2344,161.7429 269.9063,162.071 Q269.5938,162.3679 269.3906,162.8835 Q269.2031,163.3835 269.2031,164.1023 Q269.2031,164.8523 269.4063,165.3679 Q269.625,165.8679 269.9375,166.1492 Q270.2656,166.446 270.6719,166.571 Q271.0781,166.696 271.4688,166.696 Q271.8438,166.696 272.2031,166.5867 Q272.5781,166.4773 272.8906,166.2742 Q273.1563,166.1335 273.375,165.9617 Q273.6094,165.7742 273.75,165.6492 L273.9688,165.6492 L273.9688,167.5554 Q273.6719,167.696 273.3906,167.821 Q273.125,167.9304 272.8125,168.0085 Q272.4219,168.1179 272.0781,168.1804 Q271.7344,168.2429 271.1406,168.2429 Z "/><text fill="#AAAAAA" font-family="sans-serif" font-size="11" font-style="italic" lengthAdjust="spacingAndGlyphs" textLength="97" x="292" y="161.2104">«ThinCrustPizza»</text><text fill="#FFFFFF" font-family="Verdana" font-size="11" lengthAdjust="spacingAndGlyphs" textLength="118" x="281.5" y="174.8638">ConcreteComponent</text><line style="stroke: #1B1B1B; stroke-width: 1.5;" x1="259.5" x2="401.5" y1="182.1733" y2="182.1733"/><line style="stroke: #1B1B1B; stroke-width: 1.5;" x1="259.5" x2="401.5" y1="190.1733" y2="190.1733"/><ellipse cx="269.5" cy="201.1733" fill="#84BE84" rx="3" ry="3" style="stroke: #038048; stroke-width: 1.0;"/><text fill="#AAAAAA" font-family="sans-serif" font-size="11" lengthAdjust="spacingAndGlyphs" textLength="60" x="275.5" y="204.3838">get_cost();</text><!--MD5=[321dae1e4c20a532a67879525d68ecc8]
class Decorator--><rect fill="#2E2E2E" filter="url(#f5u2mu7n7qczx)" height="90.5874" id="Decorator" style="stroke: #1B1B1B; stroke-width: 1.5;" width="221" x="438" y="133"/><ellipse cx="488" cy="151.0867" fill="#A9DCDF" rx="8" ry="8" style="stroke: #1B1B1B; stroke-width: 1.0;"/><path d="M491.9063,154.5867 L489.7813,154.5867 L489.2188,152.9773 L486.2656,152.9773 L485.7031,154.5867 L483.625,154.5867 L486.5781,146.5867 L488.9531,146.5867 L491.9063,154.5867 Z M488.7188,151.5085 L487.75,148.6335 L486.7656,151.5085 L488.7188,151.5085 Z "/><text fill="#AAAAAA" font-family="sans-serif" font-size="11" font-style="italic" lengthAdjust="spacingAndGlyphs" textLength="118" x="502" y="148.2104">«IToppingDecorator»</text><text fill="#FFFFFF" font-family="Verdana" font-size="11" font-style="italic" lengthAdjust="spacingAndGlyphs" textLength="56" x="533" y="161.8638">Decorator</text><line style="stroke: #1B1B1B; stroke-width: 1.5;" x1="439" x2="658" y1="169.1733" y2="169.1733"/><rect fill="none" height="6" style="stroke: #C82930; stroke-width: 1.0;" width="6" x="446" y="177.1733"/><text fill="#AAAAAA" font-family="sans-serif" font-size="11" lengthAdjust="spacingAndGlyphs" textLength="198" x="455" y="183.3838">Component concreate_component;</text><line style="stroke: #1B1B1B; stroke-width: 1.5;" x1="439" x2="658" y1="189.978" y2="189.978"/><ellipse cx="449" cy="200.978" fill="#84BE84" rx="3" ry="3" style="stroke: #038048; stroke-width: 1.0;"/><text fill="#AAAAAA" font-family="sans-serif" font-size="11" lengthAdjust="spacingAndGlyphs" textLength="129" x="455" y="204.1885">Decorator(Component)</text><ellipse cx="449" cy="213.7827" fill="#84BE84" rx="3" ry="3" style="stroke: #038048; stroke-width: 1.0;"/><text fill="#AAAAAA" font-family="sans-serif" font-size="11" font-style="italic" lengthAdjust="spacingAndGlyphs" textLength="59" x="455" y="216.9932">get_cost();</text><!--MD5=[904674b7671ab8d47bc62d2f5c6c0c61]
class ConcreteDecorator--><rect fill="#2E2E2E" filter="url(#f5u2mu7n7qczx)" height="54.8047" id="ConcreteDecorator" style="stroke: #1B1B1B; stroke-width: 1.5;" width="135" x="310" y="284"/><ellipse cx="322" cy="297" fill="#BB6600" rx="8" ry="8" style="stroke: #1B1B1B; stroke-width: 1.0;"/><path d="M322.6406,301.1563 Q321.75,301.1563 320.9844,300.8906 Q320.2344,300.625 319.6875,300.1094 Q319.1563,299.5938 318.8438,298.8125 Q318.5469,298.0313 318.5469,297.0156 Q318.5469,296.0625 318.8281,295.2969 Q319.125,294.5156 319.6719,293.9531 Q320.1875,293.4219 320.9531,293.1406 Q321.7344,292.8438 322.6406,292.8438 Q323.1406,292.8438 323.5469,292.9063 Q323.9531,292.9531 324.2969,293.0469 Q324.6563,293.1563 324.9531,293.2813 Q325.25,293.4063 325.4688,293.5156 L325.4688,295.4531 L325.2344,295.4531 Q325.0781,295.3281 324.8438,295.1563 Q324.625,294.9688 324.3281,294.7969 Q324.0313,294.625 323.6875,294.5156 Q323.3438,294.3906 322.9531,294.3906 Q322.5156,294.3906 322.125,294.5313 Q321.7344,294.6563 321.4063,294.9844 Q321.0938,295.2813 320.8906,295.7969 Q320.7031,296.2969 320.7031,297.0156 Q320.7031,297.7656 320.9063,298.2813 Q321.125,298.7813 321.4375,299.0625 Q321.7656,299.3594 322.1719,299.4844 Q322.5781,299.6094 322.9688,299.6094 Q323.3438,299.6094 323.7031,299.5 Q324.0781,299.3906 324.3906,299.1875 Q324.6563,299.0469 324.875,298.875 Q325.1094,298.6875 325.25,298.5625 L325.4688,298.5625 L325.4688,300.4688 Q325.1719,300.6094 324.8906,300.7344 Q324.625,300.8438 324.3125,300.9219 Q323.9219,301.0313 323.5781,301.0938 Q323.2344,301.1563 322.6406,301.1563 Z "/><text fill="#FFFFFF" font-family="Verdana" font-size="11" lengthAdjust="spacingAndGlyphs" textLength="109" x="333" y="301.3748">ConcreteDecorator</text><line style="stroke: #1B1B1B; stroke-width: 1.5;" x1="311" x2="444" y1="310" y2="310"/><line style="stroke: #1B1B1B; stroke-width: 1.5;" x1="311" x2="444" y1="318" y2="318"/><ellipse cx="321" cy="329" fill="#84BE84" rx="3" ry="3" style="stroke: #038048; stroke-width: 1.0;"/><text fill="#AAAAAA" font-family="sans-serif" font-size="11" lengthAdjust="spacingAndGlyphs" textLength="60" x="327" y="332.2104">get_cost();</text><path d="M6,300 L6,323.3687 A0,0 0 0 0 6,323.3687 L275,323.3687 A0,0 0 0 0 275,323.3687 L275,318 L309.97,311.5 L275,310 L275,310 L265,300 L6,300 A0,0 0 0 0 6,300 " fill="#BB6600" filter="url(#f5u2mu7n7qczx)" style="stroke: #662200; stroke-width: 1.0;"/><path d="M265,300 L265,310 L275,310 L265,300 " fill="#BB6600" style="stroke: #662200; stroke-width: 1.0;"/><text fill="#FFFFFF" font-family="Verdana" font-size="11" lengthAdjust="spacingAndGlyphs" textLength="248" x="12" y="316.0591">These are ToppingMozarella, ToppingSauce</text><!--MD5=[4758994e2c5b8c480b5268b073beb8b0]
reverse link Component to ConcreteComponent--><path d="M330.5,93.11 C330.5,110.78 330.5,130.02 330.5,145.66 " fill="none" id="Component&lt;-ConcreteComponent" style="stroke: #FFFFFF; stroke-width: 1.0;"/><polygon fill="none" points="323.5,93.04,330.5,73.04,337.5,93.04,323.5,93.04" style="stroke: #FFFFFF; stroke-width: 1.0;"/><!--MD5=[c50e16e7686754e8210f5940617c961a]
reverse link Component to Decorator--><path d="M393.52,80.81 C419.67,97.13 450.14,116.14 477.11,132.96 " fill="none" id="Component&lt;-Decorator" style="stroke: #FFFFFF; stroke-width: 1.0;"/><polygon fill="none" points="389.46,86.54,376.2,70.01,396.87,74.66,389.46,86.54" style="stroke: #FFFFFF; stroke-width: 1.0;"/><!--MD5=[8c93f299b55ad87ea38bcbb606154285]
reverse link Decorator to ConcreteDecorator--><path d="M473.96,236.6 C452.46,253.08 430.01,270.27 412.19,283.92 " fill="none" id="Decorator&lt;-ConcreteDecorator" style="stroke: #FFFFFF; stroke-width: 1.0;"/><polygon fill="none" points="470,230.82,490.13,224.22,478.51,241.94,470,230.82" style="stroke: #FFFFFF; stroke-width: 1.0;"/><!--MD5=[39fffdcea23c54d7f31fabde8199dde7]
reverse link Component to ConcreteDecorator--><path d="M283.74,76.52 C267.11,91.81 250.34,111.24 241.5,133 C226.28,170.47 222.03,188.55 241.5,224 C256.32,250.98 283.51,270.75 309.71,284.51 " fill="none" id="Component&lt;-ConcreteDecorator" style="stroke: #FFFFFF; stroke-width: 1.0;"/><polygon fill="#FFFFFF" points="287.5,73.12,278.1345,76.1675,283.7835,76.4648,283.4862,82.1139,287.5,73.12" style="stroke: #FFFFFF; stroke-width: 1.0;"/><!--MD5=[2797a00ed9627a45f9172a8f1e3e73b4]
@startuml decorator_pattern

!define DARKORANGE
!includeurl https://raw.githubusercontent.com/Drakemor/RedDress-PlantUML/master/style.puml

abstract class Component <<IPizza>> {
    + {abstract} get_cost();
}

class ConcreteComponent <<ThinCrustPizza>>{
    + get_cost();
}

abstract class Decorator <<IToppingDecorator>>{
    - Component concreate_component;
    + Decorator(Component)
    + {abstract} get_cost();
}

class ConcreteDecorator {
    + get_cost();
}
note "These are ToppingMozarella, ToppingSauce" as N1
N1 .right. ConcreteDecorator

Component <|- - ConcreteComponent
Component <|- - Decorator
Decorator <|- - ConcreteDecorator
Component <- - ConcreteDecorator


@enduml

@startuml decorator_pattern










skinparam stereotypeCBackgroundColor BB6600



skinparam backgroundColor 777







skinparam circledCharacter {
  radius 8
  fontSize 11
  fontName Verdana
}

skinparam class {
    backgroundColor 2e2e2e
  borderColor 1b1b1b
    fontColor fff
  fontName Verdana
  fontSize 11
  stereotypeFontColor aaa
  stereotypeFontSize 11
    arrowColor fff
  arrowFontName Verdana
  arrowFontColor bbb
  arrowFontSize 11

  attributeFontColor aaa
  attributeFontSize 11
  attributeIconSize 11
}


skinparam actor {
    backgroundColor BB6600
  borderColor 662200
    fontColor fff
  fontName Verdana
  fontSize 11
  stereotypeFontColor aaa
  stereotypeFontSize 11
}

skinparam participant {
    backgroundColor 2e2e2e
  borderColor 1b1b1b
    fontColor fff
  fontName Verdana
  fontSize 11
  stereotypeFontColor aaa
  stereotypeFontSize 11
}

skinparam collections {
    backgroundColor 2e2e2e
  borderColor 1b1b1b
    fontColor fff
  fontName Verdana
  fontSize 11
  stereotypeFontColor aaa
  stereotypeFontSize 11
}

skinparam SequenceBox{
    backgroundColor 575757
  borderColor 767676
    fontColor fff
  fontName Verdana
  fontSize 11
  stereotypeFontColor aaa
  stereotypeFontSize 11
}


skinparam interface {
    backgroundColor BB6600
  borderColor 662200
    fontColor fff
  fontName Verdana
  fontSize 11
  stereotypeFontColor aaa
  stereotypeFontSize 11
}

skinparam component {
    backgroundColor 2e2e2e
  borderColor 1b1b1b
    fontColor fff
  fontName Verdana
  fontSize 11
  stereotypeFontColor aaa
  stereotypeFontSize 11
}

skinparam node {
    backgroundColor 2e2e2e
  borderColor 1b1b1b
    fontColor fff
  fontName Verdana
  fontSize 11
  stereotypeFontColor aaa
  stereotypeFontSize 11
}

skinparam database {
    backgroundColor 2e2e2e
  borderColor 1b1b1b
    fontColor fff
  fontName Verdana
  fontSize 11
  stereotypeFontColor aaa
  stereotypeFontSize 11
}

skinparam queue {
    backgroundColor 2e2e2e
  borderColor 1b1b1b
    fontColor fff
  fontName Verdana
  fontSize 11
  stereotypeFontColor aaa
  stereotypeFontSize 11
}


skinparam usecase {
    backgroundColor 2e2e2e
  borderColor 1b1b1b
    fontColor fff
  fontName Verdana
  fontSize 11
  stereotypeFontColor aaa
  stereotypeFontSize 11
    arrowColor fff
  arrowFontName Verdana
  arrowFontColor bbb
  arrowFontSize 11
}

skinparam activity {
    backgroundColor 2e2e2e
  borderColor 1b1b1b
    fontColor fff
  fontName Verdana
  fontSize 11
  stereotypeFontColor aaa
  stereotypeFontSize 11
    arrowColor fff
  arrowFontName Verdana
  arrowFontColor bbb
  arrowFontSize 11
}

skinparam sequence {
    fontColor fff
  fontName Verdana
  fontSize 11
  stereotypeFontColor aaa
  stereotypeFontSize 11
    arrowColor fff
  arrowFontName Verdana
  arrowFontColor bbb
  arrowFontSize 11

  lifeLineBorderColor BB6600
  lifeLineBackgroundColor 575757
}

skinparam boundary {
    backgroundColor BB6600
  borderColor 662200
    fontColor fff
  fontName Verdana
  fontSize 11
  stereotypeFontColor aaa
  stereotypeFontSize 11
}

skinparam control {
    backgroundColor BB6600
  borderColor 662200
    fontColor fff
  fontName Verdana
  fontSize 11
  stereotypeFontColor aaa
  stereotypeFontSize 11
}

skinparam entity {
    backgroundColor BB6600
  borderColor 662200
    fontColor fff
  fontName Verdana
  fontSize 11
  stereotypeFontColor aaa
  stereotypeFontSize 11
}


skinparam state {
    backgroundColor 2e2e2e
  borderColor 1b1b1b
    fontColor fff
  fontName Verdana
  fontSize 11
  stereotypeFontColor aaa
  stereotypeFontSize 11
    arrowColor fff
  arrowFontName Verdana
  arrowFontColor bbb
  arrowFontSize 11
  startColor BB6600
  endColor 662200
}


skinparam object {
    backgroundColor 2e2e2e
  borderColor 1b1b1b
    fontColor fff
  fontName Verdana
  fontSize 11
  stereotypeFontColor aaa
  stereotypeFontSize 11
    arrowColor fff
  arrowFontName Verdana
  arrowFontColor bbb
  arrowFontSize 11
}


skinparam note {
    backgroundColor BB6600
  borderColor 662200
    fontColor fff
  fontName Verdana
  fontSize 11
  stereotypeFontColor aaa
  stereotypeFontSize 11
}

skinparam cloud {
    backgroundColor 2e2e2e
  borderColor 1b1b1b
    fontColor fff
  fontName Verdana
  fontSize 11
  stereotypeFontColor aaa
  stereotypeFontSize 11
    arrowColor fff
  arrowFontName Verdana
  arrowFontColor bbb
  arrowFontSize 11
}

skinparam rectangle {
    backgroundColor 2e2e2e
  borderColor 1b1b1b
    fontColor fff
  fontName Verdana
  fontSize 11
  stereotypeFontColor aaa
  stereotypeFontSize 11
}

skinparam storage {
    backgroundColor 2e2e2e
  borderColor 1b1b1b
    fontColor fff
  fontName Verdana
  fontSize 11
  stereotypeFontColor aaa
  stereotypeFontSize 11
}


abstract class Component <<IPizza>> {
    + {abstract} get_cost();
}

class ConcreteComponent <<ThinCrustPizza>>{
    + get_cost();
}

abstract class Decorator <<IToppingDecorator>>{
    - Component concreate_component;
    + Decorator(Component)
    + {abstract} get_cost();
}

class ConcreteDecorator {
    + get_cost();
}
note "These are ToppingMozarella, ToppingSauce" as N1
N1 .right. ConcreteDecorator

Component <|- - ConcreteComponent
Component <|- - Decorator
Decorator <|- - ConcreteDecorator
Component <- - ConcreteDecorator


@enduml

PlantUML version 1.2020.10(Sun May 17 15:05:57 IST 2020)
(GPL source distribution)
Java Runtime: OpenJDK Runtime Environment
JVM: OpenJDK 64-Bit Server VM
Java Version: 11.0.8+10-post-Ubuntu-0ubuntu120.04
Operating System: Linux
Default Encoding: UTF-8
Language: en
Country: IN
--></g></svg>