<?xml version="1.0" encoding="UTF-8" standalone="no"?><svg xmlns="http://www.w3.org/2000/svg" xmlns:xlink="http://www.w3.org/1999/xlink" contentScriptType="application/ecmascript" contentStyleType="text/css" height="366px" preserveAspectRatio="none" style="width:435px;height:366px;background:#777777;" version="1.1" viewBox="0 0 435 366" width="435px" zoomAndPan="magnify"><defs><filter height="300%" id="f1s5kaqnf6gnlk" width="300%" x="-1" y="-1"><feGaussianBlur result="blurOut" stdDeviation="2.0"/><feColorMatrix in="blurOut" result="blurOut2" type="matrix" values="0 0 0 0 0 0 0 0 0 0 0 0 0 0 0 0 0 0 .4 0"/><feOffset dx="4.0" dy="4.0" in="blurOut2" result="blurOut3"/><feBlend in="SourceGraphic" in2="blurOut3" mode="normal"/></filter></defs><g><!--MD5=[d0da0a299942266ebd64acf2b2e95fa4]
class Subject--><rect fill="#2E2E2E" filter="url(#f1s5kaqnf6gnlk)" height="80.4141" id="Subject" style="stroke: #1B1B1B; stroke-width: 1.5;" width="93" x="214" y="8"/><ellipse cx="237.25" cy="21" fill="#A9DCDF" rx="8" ry="8" style="stroke: #1B1B1B; stroke-width: 1.0;"/><path d="M241.1563,24.5 L239.0313,24.5 L238.4688,22.8906 L235.5156,22.8906 L234.9531,24.5 L232.875,24.5 L235.8281,16.5 L238.2031,16.5 L241.1563,24.5 Z M237.9688,21.4219 L237,18.5469 L236.0156,21.4219 L237.9688,21.4219 Z "/><text fill="#FFFFFF" font-family="Verdana" font-size="11" font-style="italic" lengthAdjust="spacingAndGlyphs" textLength="42" x="250.75" y="25.3748">Subject</text><line style="stroke: #1B1B1B; stroke-width: 1.5;" x1="215" x2="306" y1="34" y2="34"/><line style="stroke: #1B1B1B; stroke-width: 1.5;" x1="215" x2="306" y1="42" y2="42"/><ellipse cx="225" cy="53" fill="#84BE84" rx="3" ry="3" style="stroke: #038048; stroke-width: 1.0;"/><text fill="#AAAAAA" font-family="sans-serif" font-size="11" font-style="italic" lengthAdjust="spacingAndGlyphs" textLength="56" x="231" y="56.2104">register();</text><ellipse cx="225" cy="65.8047" fill="#84BE84" rx="3" ry="3" style="stroke: #038048; stroke-width: 1.0;"/><text fill="#AAAAAA" font-family="sans-serif" font-size="11" font-style="italic" lengthAdjust="spacingAndGlyphs" textLength="70" x="231" y="69.0151">unregister();</text><ellipse cx="225" cy="78.6094" fill="#84BE84" rx="3" ry="3" style="stroke: #038048; stroke-width: 1.0;"/><text fill="#AAAAAA" font-family="sans-serif" font-size="11" font-style="italic" lengthAdjust="spacingAndGlyphs" textLength="44" x="231" y="81.8198">notify();</text><!--MD5=[338c633d2814f808b68033ff739a2d89]
class ConcreateSubject--><rect fill="#2E2E2E" filter="url(#f1s5kaqnf6gnlk)" height="93.2188" id="ConcreateSubject" style="stroke: #1B1B1B; stroke-width: 1.5;" width="143" x="116" y="148"/><ellipse cx="134.75" cy="161" fill="#BB6600" rx="8" ry="8" style="stroke: #1B1B1B; stroke-width: 1.0;"/><path d="M135.3906,165.1563 Q134.5,165.1563 133.7344,164.8906 Q132.9844,164.625 132.4375,164.1094 Q131.9063,163.5938 131.5938,162.8125 Q131.2969,162.0313 131.2969,161.0156 Q131.2969,160.0625 131.5781,159.2969 Q131.875,158.5156 132.4219,157.9531 Q132.9375,157.4219 133.7031,157.1406 Q134.4844,156.8438 135.3906,156.8438 Q135.8906,156.8438 136.2969,156.9063 Q136.7031,156.9531 137.0469,157.0469 Q137.4063,157.1563 137.7031,157.2813 Q138,157.4063 138.2188,157.5156 L138.2188,159.4531 L137.9844,159.4531 Q137.8281,159.3281 137.5938,159.1563 Q137.375,158.9688 137.0781,158.7969 Q136.7813,158.625 136.4375,158.5156 Q136.0938,158.3906 135.7031,158.3906 Q135.2656,158.3906 134.875,158.5313 Q134.4844,158.6563 134.1563,158.9844 Q133.8438,159.2813 133.6406,159.7969 Q133.4531,160.2969 133.4531,161.0156 Q133.4531,161.7656 133.6563,162.2813 Q133.875,162.7813 134.1875,163.0625 Q134.5156,163.3594 134.9219,163.4844 Q135.3281,163.6094 135.7188,163.6094 Q136.0938,163.6094 136.4531,163.5 Q136.8281,163.3906 137.1406,163.1875 Q137.4063,163.0469 137.625,162.875 Q137.8594,162.6875 138,162.5625 L138.2188,162.5625 L138.2188,164.4688 Q137.9219,164.6094 137.6406,164.7344 Q137.375,164.8438 137.0625,164.9219 Q136.6719,165.0313 136.3281,165.0938 Q135.9844,165.1563 135.3906,165.1563 Z "/><text fill="#FFFFFF" font-family="Verdana" font-size="11" lengthAdjust="spacingAndGlyphs" textLength="102" x="147.25" y="165.3748">ConcreateSubject</text><line style="stroke: #1B1B1B; stroke-width: 1.5;" x1="117" x2="258" y1="174" y2="174"/><ellipse cx="127" cy="185" fill="none" rx="3" ry="3" style="stroke: #038048; stroke-width: 1.0;"/><text fill="#AAAAAA" font-family="sans-serif" font-size="11" lengthAdjust="spacingAndGlyphs" textLength="120" x="133" y="188.2104">registered_observer;</text><line style="stroke: #1B1B1B; stroke-width: 1.5;" x1="117" x2="258" y1="194.8047" y2="194.8047"/><ellipse cx="127" cy="205.8047" fill="#84BE84" rx="3" ry="3" style="stroke: #038048; stroke-width: 1.0;"/><text fill="#AAAAAA" font-family="sans-serif" font-size="11" lengthAdjust="spacingAndGlyphs" textLength="57" x="133" y="209.0151">register();</text><ellipse cx="127" cy="218.6094" fill="#84BE84" rx="3" ry="3" style="stroke: #038048; stroke-width: 1.0;"/><text fill="#AAAAAA" font-family="sans-serif" font-size="11" lengthAdjust="spacingAndGlyphs" textLength="71" x="133" y="221.8198">unregister();</text><ellipse cx="127" cy="231.4141" fill="#84BE84" rx="3" ry="3" style="stroke: #038048; stroke-width: 1.0;"/><text fill="#AAAAAA" font-family="sans-serif" font-size="11" lengthAdjust="spacingAndGlyphs" textLength="43" x="133" y="234.6245">notify();</text><!--MD5=[d40932010816485ec57b44b6eea2392a]
class Observer--><rect fill="#2E2E2E" filter="url(#f1s5kaqnf6gnlk)" height="54.8047" id="Observer" style="stroke: #1B1B1B; stroke-width: 1.5;" width="79" x="294" y="167"/><ellipse cx="306" cy="180" fill="#A9DCDF" rx="8" ry="8" style="stroke: #1B1B1B; stroke-width: 1.0;"/><path d="M309.9063,183.5 L307.7813,183.5 L307.2188,181.8906 L304.2656,181.8906 L303.7031,183.5 L301.625,183.5 L304.5781,175.5 L306.9531,175.5 L309.9063,183.5 Z M306.7188,180.4219 L305.75,177.5469 L304.7656,180.4219 L306.7188,180.4219 Z "/><text fill="#FFFFFF" font-family="Verdana" font-size="11" font-style="italic" lengthAdjust="spacingAndGlyphs" textLength="53" x="317" y="184.3748">Observer</text><line style="stroke: #1B1B1B; stroke-width: 1.5;" x1="295" x2="372" y1="193" y2="193"/><line style="stroke: #1B1B1B; stroke-width: 1.5;" x1="295" x2="372" y1="201" y2="201"/><ellipse cx="305" cy="212" fill="#84BE84" rx="3" ry="3" style="stroke: #038048; stroke-width: 1.0;"/><text fill="#AAAAAA" font-family="sans-serif" font-size="11" font-style="italic" lengthAdjust="spacingAndGlyphs" textLength="51" x="311" y="215.2104">update();</text><!--MD5=[2e86d0ae9d6de6a6b241557f2cf21f5d]
class ConcreateObserverA--><rect fill="#2E2E2E" filter="url(#f1s5kaqnf6gnlk)" height="54.8047" id="ConcreateObserverA" style="stroke: #1B1B1B; stroke-width: 1.5;" width="146" x="97.5" y="301"/><ellipse cx="109.5" cy="314" fill="#BB6600" rx="8" ry="8" style="stroke: #1B1B1B; stroke-width: 1.0;"/><path d="M110.1406,318.1563 Q109.25,318.1563 108.4844,317.8906 Q107.7344,317.625 107.1875,317.1094 Q106.6563,316.5938 106.3438,315.8125 Q106.0469,315.0313 106.0469,314.0156 Q106.0469,313.0625 106.3281,312.2969 Q106.625,311.5156 107.1719,310.9531 Q107.6875,310.4219 108.4531,310.1406 Q109.2344,309.8438 110.1406,309.8438 Q110.6406,309.8438 111.0469,309.9063 Q111.4531,309.9531 111.7969,310.0469 Q112.1563,310.1563 112.4531,310.2813 Q112.75,310.4063 112.9688,310.5156 L112.9688,312.4531 L112.7344,312.4531 Q112.5781,312.3281 112.3438,312.1563 Q112.125,311.9688 111.8281,311.7969 Q111.5313,311.625 111.1875,311.5156 Q110.8438,311.3906 110.4531,311.3906 Q110.0156,311.3906 109.625,311.5313 Q109.2344,311.6563 108.9063,311.9844 Q108.5938,312.2813 108.3906,312.7969 Q108.2031,313.2969 108.2031,314.0156 Q108.2031,314.7656 108.4063,315.2813 Q108.625,315.7813 108.9375,316.0625 Q109.2656,316.3594 109.6719,316.4844 Q110.0781,316.6094 110.4688,316.6094 Q110.8438,316.6094 111.2031,316.5 Q111.5781,316.3906 111.8906,316.1875 Q112.1563,316.0469 112.375,315.875 Q112.6094,315.6875 112.75,315.5625 L112.9688,315.5625 L112.9688,317.4688 Q112.6719,317.6094 112.3906,317.7344 Q112.125,317.8438 111.8125,317.9219 Q111.4219,318.0313 111.0781,318.0938 Q110.7344,318.1563 110.1406,318.1563 Z "/><text fill="#FFFFFF" font-family="Verdana" font-size="11" lengthAdjust="spacingAndGlyphs" textLength="120" x="120.5" y="318.3748">ConcreateObserverA</text><line style="stroke: #1B1B1B; stroke-width: 1.5;" x1="98.5" x2="242.5" y1="327" y2="327"/><line style="stroke: #1B1B1B; stroke-width: 1.5;" x1="98.5" x2="242.5" y1="335" y2="335"/><ellipse cx="108.5" cy="346" fill="#84BE84" rx="3" ry="3" style="stroke: #038048; stroke-width: 1.0;"/><text fill="#AAAAAA" font-family="sans-serif" font-size="11" lengthAdjust="spacingAndGlyphs" textLength="51" x="114.5" y="349.2104">update();</text><!--MD5=[98722f90cbb300f1346de154ed081df0]
class ConcreateObserverB--><rect fill="#2E2E2E" filter="url(#f1s5kaqnf6gnlk)" height="54.8047" id="ConcreateObserverB" style="stroke: #1B1B1B; stroke-width: 1.5;" width="146" x="278.5" y="301"/><ellipse cx="290.5" cy="314" fill="#BB6600" rx="8" ry="8" style="stroke: #1B1B1B; stroke-width: 1.0;"/><path d="M291.1406,318.1563 Q290.25,318.1563 289.4844,317.8906 Q288.7344,317.625 288.1875,317.1094 Q287.6563,316.5938 287.3438,315.8125 Q287.0469,315.0313 287.0469,314.0156 Q287.0469,313.0625 287.3281,312.2969 Q287.625,311.5156 288.1719,310.9531 Q288.6875,310.4219 289.4531,310.1406 Q290.2344,309.8438 291.1406,309.8438 Q291.6406,309.8438 292.0469,309.9063 Q292.4531,309.9531 292.7969,310.0469 Q293.1563,310.1563 293.4531,310.2813 Q293.75,310.4063 293.9688,310.5156 L293.9688,312.4531 L293.7344,312.4531 Q293.5781,312.3281 293.3438,312.1563 Q293.125,311.9688 292.8281,311.7969 Q292.5313,311.625 292.1875,311.5156 Q291.8438,311.3906 291.4531,311.3906 Q291.0156,311.3906 290.625,311.5313 Q290.2344,311.6563 289.9063,311.9844 Q289.5938,312.2813 289.3906,312.7969 Q289.2031,313.2969 289.2031,314.0156 Q289.2031,314.7656 289.4063,315.2813 Q289.625,315.7813 289.9375,316.0625 Q290.2656,316.3594 290.6719,316.4844 Q291.0781,316.6094 291.4688,316.6094 Q291.8438,316.6094 292.2031,316.5 Q292.5781,316.3906 292.8906,316.1875 Q293.1563,316.0469 293.375,315.875 Q293.6094,315.6875 293.75,315.5625 L293.9688,315.5625 L293.9688,317.4688 Q293.6719,317.6094 293.3906,317.7344 Q293.125,317.8438 292.8125,317.9219 Q292.4219,318.0313 292.0781,318.0938 Q291.7344,318.1563 291.1406,318.1563 Z "/><text fill="#FFFFFF" font-family="Verdana" font-size="11" lengthAdjust="spacingAndGlyphs" textLength="120" x="301.5" y="318.3748">ConcreateObserverB</text><line style="stroke: #1B1B1B; stroke-width: 1.5;" x1="279.5" x2="423.5" y1="327" y2="327"/><line style="stroke: #1B1B1B; stroke-width: 1.5;" x1="279.5" x2="423.5" y1="335" y2="335"/><ellipse cx="289.5" cy="346" fill="#84BE84" rx="3" ry="3" style="stroke: #038048; stroke-width: 1.0;"/><text fill="#AAAAAA" font-family="sans-serif" font-size="11" lengthAdjust="spacingAndGlyphs" textLength="51" x="295.5" y="349.2104">update();</text><path d="M6,29.5 L6,66.2373 A0,0 0 0 0 6,66.2373 L179,66.2373 A0,0 0 0 0 179,66.2373 L179,52 L213.77,48 L179,44 L179,39.5 L169,29.5 L6,29.5 A0,0 0 0 0 6,29.5 " fill="#BB6600" filter="url(#f1s5kaqnf6gnlk)" style="stroke: #662200; stroke-width: 1.0;"/><path d="M169,29.5 L169,39.5 L179,39.5 L169,29.5 " fill="#BB6600" style="stroke: #662200; stroke-width: 1.0;"/><text fill="#FFFFFF" font-family="Verdana" font-size="11" lengthAdjust="spacingAndGlyphs" textLength="152" x="12" y="45.5591">notify registered_observer</text><text fill="#FFFFFF" font-family="Verdana" font-size="11" lengthAdjust="spacingAndGlyphs" textLength="123" x="16" y="58.9277">with update() method</text><!--MD5=[b15620171e7fdefdb76f88acd4beb02e]
reverse link Subject to ConcreateSubject--><path d="M231.55,106.3 C224.56,120.14 217.18,134.75 210.5,147.96 " fill="none" id="Subject&lt;-ConcreateSubject" style="stroke: #FFFFFF; stroke-width: 1.0;"/><polygon fill="none" points="225.48,102.8,240.75,88.1,237.97,109.11,225.48,102.8" style="stroke: #FFFFFF; stroke-width: 1.0;"/><!--MD5=[7518d0f2b34a53396ed9c2f001163bb5]
reverse link Subject to Observer--><path d="M286.21,99.9 C297.59,122.42 310.51,147.99 319.97,166.71 " fill="none" id="Subject&lt;-Observer" style="stroke: #FFFFFF; stroke-width: 1.0;"/><polygon fill="#777777" points="280.25,88.1,279.3837,95.2589,285.6587,98.8119,286.525,91.6531,280.25,88.1" style="stroke: #FFFFFF; stroke-width: 1.0;"/><!--MD5=[09e8a9726cbe7b52faf201b186cfce71]
reverse link Observer to ConcreateObserverA--><path d="M284.97,234.8 C258.66,256.1 226.84,281.87 203.44,300.83 " fill="none" id="Observer&lt;-ConcreateObserverA" style="stroke: #FFFFFF; stroke-width: 1.0;"/><polygon fill="none" points="280.57,229.36,300.51,222.21,289.38,240.24,280.57,229.36" style="stroke: #FFFFFF; stroke-width: 1.0;"/><!--MD5=[50391990f1092ebeebfc73370f68ab7c]
reverse link Observer to ConcreateObserverB--><path d="M339.87,242.19 C342.55,261.85 345.57,284.02 347.86,300.83 " fill="none" id="Observer&lt;-ConcreateObserverB" style="stroke: #FFFFFF; stroke-width: 1.0;"/><polygon fill="none" points="332.91,242.97,337.14,222.21,346.78,241.08,332.91,242.97" style="stroke: #FFFFFF; stroke-width: 1.0;"/><!--MD5=[44cd3fddf2f0954cf323b39e6287bd0d]
link ConcreateSubject to ConcreateObserverA--><path d="M181.6,241.3 C179.31,259.09 176.74,279.06 174.65,295.29 " fill="none" id="ConcreateSubject-&gt;ConcreateObserverA" style="stroke: #FFFFFF; stroke-width: 1.0; stroke-dasharray: 7.0,7.0;"/><polygon fill="#FFFFFF" points="173.96,300.64,179.0604,292.2147,174.589,295.6797,171.1239,291.2083,173.96,300.64" style="stroke: #FFFFFF; stroke-width: 1.0;"/><!--MD5=[21ee3c4ee9826dc3615b87a4f08a7494]
link ConcreateSubject to ConcreateObserverB--><path d="M244.4,241.3 C267.47,259.87 293.47,280.8 314.08,297.38 " fill="none" id="ConcreateSubject-&gt;ConcreateObserverB" style="stroke: #FFFFFF; stroke-width: 1.0; stroke-dasharray: 7.0,7.0;"/><polygon fill="#FFFFFF" points="318.13,300.64,313.6127,291.8882,314.2298,297.5113,308.6068,298.1285,318.13,300.64" style="stroke: #FFFFFF; stroke-width: 1.0;"/><!--MD5=[92c500760bfb651c4e9fd60952f2e3a2]
@startuml observer_pattern

!define DARKORANGE
!includeurl https://raw.githubusercontent.com/Drakemor/RedDress-PlantUML/master/style.puml

abstract class Subject {
    + {abstract} register();
    + {abstract} unregister();
    + {abstract} notify();
}

class ConcreateSubject {
    + registered_observer;
    + register();
    + unregister();
    + notify();
}

abstract class Observer {
    + {abstract} update();
}

class ConcreateObserverA {
    + update();
}

class ConcreateObserverB {
    + update();
}

Subject <|- - ConcreateSubject
Subject o- - Observer
Observer <|- - ConcreateObserverA
Observer <|- - ConcreateObserverB
ConcreateSubject ..> ConcreateObserverA
ConcreateSubject ..> ConcreateObserverB
note left of Subject : notify registered_observer\n with update() method

@enduml

@startuml observer_pattern










skinparam stereotypeCBackgroundColor BB6600



skinparam backgroundColor 777







skinparam circledCharacter {
  radius 8
  fontSize 11
  fontName Verdana
}

skinparam class {
    backgroundColor 2e2e2e
  borderColor 1b1b1b
    fontColor fff
  fontName Verdana
  fontSize 11
  stereotypeFontColor aaa
  stereotypeFontSize 11
    arrowColor fff
  arrowFontName Verdana
  arrowFontColor bbb
  arrowFontSize 11

  attributeFontColor aaa
  attributeFontSize 11
  attributeIconSize 11
}


skinparam actor {
    backgroundColor BB6600
  borderColor 662200
    fontColor fff
  fontName Verdana
  fontSize 11
  stereotypeFontColor aaa
  stereotypeFontSize 11
}

skinparam participant {
    backgroundColor 2e2e2e
  borderColor 1b1b1b
    fontColor fff
  fontName Verdana
  fontSize 11
  stereotypeFontColor aaa
  stereotypeFontSize 11
}

skinparam collections {
    backgroundColor 2e2e2e
  borderColor 1b1b1b
    fontColor fff
  fontName Verdana
  fontSize 11
  stereotypeFontColor aaa
  stereotypeFontSize 11
}

skinparam SequenceBox{
    backgroundColor 575757
  borderColor 767676
    fontColor fff
  fontName Verdana
  fontSize 11
  stereotypeFontColor aaa
  stereotypeFontSize 11
}


skinparam interface {
    backgroundColor BB6600
  borderColor 662200
    fontColor fff
  fontName Verdana
  fontSize 11
  stereotypeFontColor aaa
  stereotypeFontSize 11
}

skinparam component {
    backgroundColor 2e2e2e
  borderColor 1b1b1b
    fontColor fff
  fontName Verdana
  fontSize 11
  stereotypeFontColor aaa
  stereotypeFontSize 11
}

skinparam node {
    backgroundColor 2e2e2e
  borderColor 1b1b1b
    fontColor fff
  fontName Verdana
  fontSize 11
  stereotypeFontColor aaa
  stereotypeFontSize 11
}

skinparam database {
    backgroundColor 2e2e2e
  borderColor 1b1b1b
    fontColor fff
  fontName Verdana
  fontSize 11
  stereotypeFontColor aaa
  stereotypeFontSize 11
}

skinparam queue {
    backgroundColor 2e2e2e
  borderColor 1b1b1b
    fontColor fff
  fontName Verdana
  fontSize 11
  stereotypeFontColor aaa
  stereotypeFontSize 11
}


skinparam usecase {
    backgroundColor 2e2e2e
  borderColor 1b1b1b
    fontColor fff
  fontName Verdana
  fontSize 11
  stereotypeFontColor aaa
  stereotypeFontSize 11
    arrowColor fff
  arrowFontName Verdana
  arrowFontColor bbb
  arrowFontSize 11
}

skinparam activity {
    backgroundColor 2e2e2e
  borderColor 1b1b1b
    fontColor fff
  fontName Verdana
  fontSize 11
  stereotypeFontColor aaa
  stereotypeFontSize 11
    arrowColor fff
  arrowFontName Verdana
  arrowFontColor bbb
  arrowFontSize 11
}

skinparam sequence {
    fontColor fff
  fontName Verdana
  fontSize 11
  stereotypeFontColor aaa
  stereotypeFontSize 11
    arrowColor fff
  arrowFontName Verdana
  arrowFontColor bbb
  arrowFontSize 11

  lifeLineBorderColor BB6600
  lifeLineBackgroundColor 575757
}

skinparam boundary {
    backgroundColor BB6600
  borderColor 662200
    fontColor fff
  fontName Verdana
  fontSize 11
  stereotypeFontColor aaa
  stereotypeFontSize 11
}

skinparam control {
    backgroundColor BB6600
  borderColor 662200
    fontColor fff
  fontName Verdana
  fontSize 11
  stereotypeFontColor aaa
  stereotypeFontSize 11
}

skinparam entity {
    backgroundColor BB6600
  borderColor 662200
    fontColor fff
  fontName Verdana
  fontSize 11
  stereotypeFontColor aaa
  stereotypeFontSize 11
}


skinparam state {
    backgroundColor 2e2e2e
  borderColor 1b1b1b
    fontColor fff
  fontName Verdana
  fontSize 11
  stereotypeFontColor aaa
  stereotypeFontSize 11
    arrowColor fff
  arrowFontName Verdana
  arrowFontColor bbb
  arrowFontSize 11
  startColor BB6600
  endColor 662200
}


skinparam object {
    backgroundColor 2e2e2e
  borderColor 1b1b1b
    fontColor fff
  fontName Verdana
  fontSize 11
  stereotypeFontColor aaa
  stereotypeFontSize 11
    arrowColor fff
  arrowFontName Verdana
  arrowFontColor bbb
  arrowFontSize 11
}


skinparam note {
    backgroundColor BB6600
  borderColor 662200
    fontColor fff
  fontName Verdana
  fontSize 11
  stereotypeFontColor aaa
  stereotypeFontSize 11
}

skinparam cloud {
    backgroundColor 2e2e2e
  borderColor 1b1b1b
    fontColor fff
  fontName Verdana
  fontSize 11
  stereotypeFontColor aaa
  stereotypeFontSize 11
    arrowColor fff
  arrowFontName Verdana
  arrowFontColor bbb
  arrowFontSize 11
}

skinparam rectangle {
    backgroundColor 2e2e2e
  borderColor 1b1b1b
    fontColor fff
  fontName Verdana
  fontSize 11
  stereotypeFontColor aaa
  stereotypeFontSize 11
}

skinparam storage {
    backgroundColor 2e2e2e
  borderColor 1b1b1b
    fontColor fff
  fontName Verdana
  fontSize 11
  stereotypeFontColor aaa
  stereotypeFontSize 11
}


abstract class Subject {
    + {abstract} register();
    + {abstract} unregister();
    + {abstract} notify();
}

class ConcreateSubject {
    + registered_observer;
    + register();
    + unregister();
    + notify();
}

abstract class Observer {
    + {abstract} update();
}

class ConcreateObserverA {
    + update();
}

class ConcreateObserverB {
    + update();
}

Subject <|- - ConcreateSubject
Subject o- - Observer
Observer <|- - ConcreateObserverA
Observer <|- - ConcreateObserverB
ConcreateSubject ..> ConcreateObserverA
ConcreateSubject ..> ConcreateObserverB
note left of Subject : notify registered_observer\n with update() method

@enduml

PlantUML version 1.2020.10(Sun May 17 15:05:57 IST 2020)
(GPL source distribution)
Java Runtime: OpenJDK Runtime Environment
JVM: OpenJDK 64-Bit Server VM
Java Version: 11.0.8+10-post-Ubuntu-0ubuntu120.04
Operating System: Linux
Default Encoding: UTF-8
Language: en
Country: IN
--></g></svg>