<?xml version="1.0" encoding="UTF-8" standalone="no"?><svg xmlns="http://www.w3.org/2000/svg" xmlns:xlink="http://www.w3.org/1999/xlink" contentScriptType="application/ecmascript" contentStyleType="text/css" height="189px" preserveAspectRatio="none" style="width:299px;height:189px;background:#777777;" version="1.1" viewBox="0 0 299 189" width="299px" zoomAndPan="magnify"><defs><filter height="300%" id="f1elov5t9yyty9" width="300%" x="-1" y="-1"><feGaussianBlur result="blurOut" stdDeviation="2.0"/><feColorMatrix in="blurOut" result="blurOut2" type="matrix" values="0 0 0 0 0 0 0 0 0 0 0 0 0 0 0 0 0 0 .4 0"/><feOffset dx="4.0" dy="4.0" in="blurOut2" result="blurOut3"/><feBlend in="SourceGraphic" in2="blurOut3" mode="normal"/></filter></defs><g><!--MD5=[d0da0a299942266ebd64acf2b2e95fa4]
class Subject--><rect fill="#2E2E2E" filter="url(#f1elov5t9yyty9)" height="54.8047" id="Subject" style="stroke: #1B1B1B; stroke-width: 1.5;" width="89" x="103.5" y="8"/><ellipse cx="124.95" cy="21" fill="#A9DCDF" rx="8" ry="8" style="stroke: #1B1B1B; stroke-width: 1.0;"/><path d="M128.8563,24.5 L126.7313,24.5 L126.1688,22.8906 L123.2156,22.8906 L122.6531,24.5 L120.575,24.5 L123.5281,16.5 L125.9031,16.5 L128.8563,24.5 Z M125.6688,21.4219 L124.7,18.5469 L123.7156,21.4219 L125.6688,21.4219 Z "/><text fill="#FFFFFF" font-family="Verdana" font-size="11" font-style="italic" lengthAdjust="spacingAndGlyphs" textLength="42" x="138.05" y="25.3748">Subject</text><line style="stroke: #1B1B1B; stroke-width: 1.5;" x1="104.5" x2="191.5" y1="34" y2="34"/><line style="stroke: #1B1B1B; stroke-width: 1.5;" x1="104.5" x2="191.5" y1="42" y2="42"/><ellipse cx="114.5" cy="53" fill="#84BE84" rx="3" ry="3" style="stroke: #038048; stroke-width: 1.0;"/><text fill="#AAAAAA" font-family="sans-serif" font-size="11" font-style="italic" lengthAdjust="spacingAndGlyphs" textLength="66" x="120.5" y="56.2104">do_action();</text><!--MD5=[449b3045b33c31979c3bb324a2b48d70]
class RealSubject--><rect fill="#2E2E2E" filter="url(#f1elov5t9yyty9)" height="54.8047" id="RealSubject" style="stroke: #1B1B1B; stroke-width: 1.5;" width="94" x="6" y="124"/><ellipse cx="18" cy="137" fill="#BB6600" rx="8" ry="8" style="stroke: #1B1B1B; stroke-width: 1.0;"/><path d="M18.6406,141.1563 Q17.75,141.1563 16.9844,140.8906 Q16.2344,140.625 15.6875,140.1094 Q15.1563,139.5938 14.8438,138.8125 Q14.5469,138.0313 14.5469,137.0156 Q14.5469,136.0625 14.8281,135.2969 Q15.125,134.5156 15.6719,133.9531 Q16.1875,133.4219 16.9531,133.1406 Q17.7344,132.8438 18.6406,132.8438 Q19.1406,132.8438 19.5469,132.9063 Q19.9531,132.9531 20.2969,133.0469 Q20.6563,133.1563 20.9531,133.2813 Q21.25,133.4063 21.4688,133.5156 L21.4688,135.4531 L21.2344,135.4531 Q21.0781,135.3281 20.8438,135.1563 Q20.625,134.9688 20.3281,134.7969 Q20.0313,134.625 19.6875,134.5156 Q19.3438,134.3906 18.9531,134.3906 Q18.5156,134.3906 18.125,134.5313 Q17.7344,134.6563 17.4063,134.9844 Q17.0938,135.2813 16.8906,135.7969 Q16.7031,136.2969 16.7031,137.0156 Q16.7031,137.7656 16.9063,138.2813 Q17.125,138.7813 17.4375,139.0625 Q17.7656,139.3594 18.1719,139.4844 Q18.5781,139.6094 18.9688,139.6094 Q19.3438,139.6094 19.7031,139.5 Q20.0781,139.3906 20.3906,139.1875 Q20.6563,139.0469 20.875,138.875 Q21.1094,138.6875 21.25,138.5625 L21.4688,138.5625 L21.4688,140.4688 Q21.1719,140.6094 20.8906,140.7344 Q20.625,140.8438 20.3125,140.9219 Q19.9219,141.0313 19.5781,141.0938 Q19.2344,141.1563 18.6406,141.1563 Z "/><text fill="#FFFFFF" font-family="Verdana" font-size="11" lengthAdjust="spacingAndGlyphs" textLength="68" x="29" y="141.3748">RealSubject</text><line style="stroke: #1B1B1B; stroke-width: 1.5;" x1="7" x2="99" y1="150" y2="150"/><line style="stroke: #1B1B1B; stroke-width: 1.5;" x1="7" x2="99" y1="158" y2="158"/><ellipse cx="17" cy="169" fill="#84BE84" rx="3" ry="3" style="stroke: #038048; stroke-width: 1.0;"/><text fill="#AAAAAA" font-family="sans-serif" font-size="11" lengthAdjust="spacingAndGlyphs" textLength="66" x="23" y="172.2104">do_action();</text><!--MD5=[f7109e258b7e3e4bb390e34b115b99ce]
class Proxy--><rect fill="#2E2E2E" filter="url(#f1elov5t9yyty9)" height="54.8047" id="Proxy" style="stroke: #1B1B1B; stroke-width: 1.5;" width="89" x="199.5" y="124"/><ellipse cx="225" cy="137" fill="#BB6600" rx="8" ry="8" style="stroke: #1B1B1B; stroke-width: 1.0;"/><path d="M225.6406,141.1563 Q224.75,141.1563 223.9844,140.8906 Q223.2344,140.625 222.6875,140.1094 Q222.1563,139.5938 221.8438,138.8125 Q221.5469,138.0313 221.5469,137.0156 Q221.5469,136.0625 221.8281,135.2969 Q222.125,134.5156 222.6719,133.9531 Q223.1875,133.4219 223.9531,133.1406 Q224.7344,132.8438 225.6406,132.8438 Q226.1406,132.8438 226.5469,132.9063 Q226.9531,132.9531 227.2969,133.0469 Q227.6563,133.1563 227.9531,133.2813 Q228.25,133.4063 228.4688,133.5156 L228.4688,135.4531 L228.2344,135.4531 Q228.0781,135.3281 227.8438,135.1563 Q227.625,134.9688 227.3281,134.7969 Q227.0313,134.625 226.6875,134.5156 Q226.3438,134.3906 225.9531,134.3906 Q225.5156,134.3906 225.125,134.5313 Q224.7344,134.6563 224.4063,134.9844 Q224.0938,135.2813 223.8906,135.7969 Q223.7031,136.2969 223.7031,137.0156 Q223.7031,137.7656 223.9063,138.2813 Q224.125,138.7813 224.4375,139.0625 Q224.7656,139.3594 225.1719,139.4844 Q225.5781,139.6094 225.9688,139.6094 Q226.3438,139.6094 226.7031,139.5 Q227.0781,139.3906 227.3906,139.1875 Q227.6563,139.0469 227.875,138.875 Q228.1094,138.6875 228.25,138.5625 L228.4688,138.5625 L228.4688,140.4688 Q228.1719,140.6094 227.8906,140.7344 Q227.625,140.8438 227.3125,140.9219 Q226.9219,141.0313 226.5781,141.0938 Q226.2344,141.1563 225.6406,141.1563 Z "/><text fill="#FFFFFF" font-family="Verdana" font-size="11" lengthAdjust="spacingAndGlyphs" textLength="33" x="239" y="141.3748">Proxy</text><line style="stroke: #1B1B1B; stroke-width: 1.5;" x1="200.5" x2="287.5" y1="150" y2="150"/><line style="stroke: #1B1B1B; stroke-width: 1.5;" x1="200.5" x2="287.5" y1="158" y2="158"/><ellipse cx="210.5" cy="169" fill="#84BE84" rx="3" ry="3" style="stroke: #038048; stroke-width: 1.0;"/><text fill="#AAAAAA" font-family="sans-serif" font-size="11" lengthAdjust="spacingAndGlyphs" textLength="66" x="216.5" y="172.2104">do_action();</text><!--MD5=[0ba5ee7700168656dc1b457c6fe9fdac]
entity Client--><rect fill="#556B2F" filter="url(#f1elov5t9yyty9)" height="33.3687" style="stroke: #1B1B1B; stroke-width: 1.5;" width="53" x="227.5" y="19"/><text fill="#FFFFFF" font-family="Verdana" font-size="11" lengthAdjust="spacingAndGlyphs" textLength="33" x="237.5" y="40.0591">Client</text><!--MD5=[d82a894eabac74d08dfc5396e0fd572d]
reverse link Subject to Client--><path d="M197.84,35.5 C207.62,35.5 217.4,35.5 227.19,35.5 " fill="none" id="Subject&lt;-Client" style="stroke: #FFFFFF; stroke-width: 1.0;"/><polygon fill="#FFFFFF" points="192.72,35.5,201.72,39.5,197.72,35.5,201.72,31.5,192.72,35.5" style="stroke: #FFFFFF; stroke-width: 1.0;"/><!--MD5=[d47c67f0c46790a0239e176d4e556341]
reverse link Subject to RealSubject--><path d="M112.73,78.83 C100.13,93.94 86.31,110.53 75.13,123.94 " fill="none" id="Subject&lt;-RealSubject" style="stroke: #FFFFFF; stroke-width: 1.0;"/><polygon fill="none" points="107.55,74.11,125.73,63.23,118.3,83.07,107.55,74.11" style="stroke: #FFFFFF; stroke-width: 1.0;"/><!--MD5=[3c3c3ce047c26dc485554d65ad2bca9c]
reverse link Subject to Proxy--><path d="M183.64,78.83 C196.37,93.94 210.34,110.53 221.63,123.94 " fill="none" id="Subject&lt;-Proxy" style="stroke: #FFFFFF; stroke-width: 1.0;"/><polygon fill="none" points="178.04,83.04,170.51,63.23,188.74,74.02,178.04,83.04" style="stroke: #FFFFFF; stroke-width: 1.0;"/><!--MD5=[b996b55dbb33adfe80b254548a748d40]
reverse link RealSubject to Proxy--><path d="M105.26,151.5 C134.73,151.5 171.16,151.5 199.3,151.5 " fill="none" id="RealSubject&lt;-Proxy" style="stroke: #FFFFFF; stroke-width: 1.0;"/><polygon fill="#FFFFFF" points="100.21,151.5,109.21,155.5,105.21,151.5,109.21,147.5,100.21,151.5" style="stroke: #FFFFFF; stroke-width: 1.0;"/><text fill="#BBBBBB" font-family="Verdana" font-size="11" lengthAdjust="spacingAndGlyphs" textLength="63" x="118.25" y="145.5591">«delegate»</text><!--MD5=[95182753e702fb92bdec607e9fbc8ec3]
@startuml proxy_pattern

!define DARKORANGE
!includeurl https://raw.githubusercontent.com/Drakemor/RedDress-PlantUML/master/style.puml

abstract class Subject {
    + {abstract} do_action();
}

class RealSubject {
    + do_action();
}

class Proxy {
    + do_action();
}

allow_mixing
rectangle Client #DarkOliveGreen

Client -left-> Subject
Subject <|- - RealSubject
Subject <|- - Proxy
RealSubject <-left- Proxy : <<delegate>>

@enduml

@startuml proxy_pattern










skinparam stereotypeCBackgroundColor BB6600



skinparam backgroundColor 777







skinparam circledCharacter {
  radius 8
  fontSize 11
  fontName Verdana
}

skinparam class {
    backgroundColor 2e2e2e
  borderColor 1b1b1b
    fontColor fff
  fontName Verdana
  fontSize 11
  stereotypeFontColor aaa
  stereotypeFontSize 11
    arrowColor fff
  arrowFontName Verdana
  arrowFontColor bbb
  arrowFontSize 11

  attributeFontColor aaa
  attributeFontSize 11
  attributeIconSize 11
}


skinparam actor {
    backgroundColor BB6600
  borderColor 662200
    fontColor fff
  fontName Verdana
  fontSize 11
  stereotypeFontColor aaa
  stereotypeFontSize 11
}

skinparam participant {
    backgroundColor 2e2e2e
  borderColor 1b1b1b
    fontColor fff
  fontName Verdana
  fontSize 11
  stereotypeFontColor aaa
  stereotypeFontSize 11
}

skinparam collections {
    backgroundColor 2e2e2e
  borderColor 1b1b1b
    fontColor fff
  fontName Verdana
  fontSize 11
  stereotypeFontColor aaa
  stereotypeFontSize 11
}

skinparam SequenceBox{
    backgroundColor 575757
  borderColor 767676
    fontColor fff
  fontName Verdana
  fontSize 11
  stereotypeFontColor aaa
  stereotypeFontSize 11
}


skinparam interface {
    backgroundColor BB6600
  borderColor 662200
    fontColor fff
  fontName Verdana
  fontSize 11
  stereotypeFontColor aaa
  stereotypeFontSize 11
}

skinparam component {
    backgroundColor 2e2e2e
  borderColor 1b1b1b
    fontColor fff
  fontName Verdana
  fontSize 11
  stereotypeFontColor aaa
  stereotypeFontSize 11
}

skinparam node {
    backgroundColor 2e2e2e
  borderColor 1b1b1b
    fontColor fff
  fontName Verdana
  fontSize 11
  stereotypeFontColor aaa
  stereotypeFontSize 11
}

skinparam database {
    backgroundColor 2e2e2e
  borderColor 1b1b1b
    fontColor fff
  fontName Verdana
  fontSize 11
  stereotypeFontColor aaa
  stereotypeFontSize 11
}

skinparam queue {
    backgroundColor 2e2e2e
  borderColor 1b1b1b
    fontColor fff
  fontName Verdana
  fontSize 11
  stereotypeFontColor aaa
  stereotypeFontSize 11
}


skinparam usecase {
    backgroundColor 2e2e2e
  borderColor 1b1b1b
    fontColor fff
  fontName Verdana
  fontSize 11
  stereotypeFontColor aaa
  stereotypeFontSize 11
    arrowColor fff
  arrowFontName Verdana
  arrowFontColor bbb
  arrowFontSize 11
}

skinparam activity {
    backgroundColor 2e2e2e
  borderColor 1b1b1b
    fontColor fff
  fontName Verdana
  fontSize 11
  stereotypeFontColor aaa
  stereotypeFontSize 11
    arrowColor fff
  arrowFontName Verdana
  arrowFontColor bbb
  arrowFontSize 11
}

skinparam sequence {
    fontColor fff
  fontName Verdana
  fontSize 11
  stereotypeFontColor aaa
  stereotypeFontSize 11
    arrowColor fff
  arrowFontName Verdana
  arrowFontColor bbb
  arrowFontSize 11

  lifeLineBorderColor BB6600
  lifeLineBackgroundColor 575757
}

skinparam boundary {
    backgroundColor BB6600
  borderColor 662200
    fontColor fff
  fontName Verdana
  fontSize 11
  stereotypeFontColor aaa
  stereotypeFontSize 11
}

skinparam control {
    backgroundColor BB6600
  borderColor 662200
    fontColor fff
  fontName Verdana
  fontSize 11
  stereotypeFontColor aaa
  stereotypeFontSize 11
}

skinparam entity {
    backgroundColor BB6600
  borderColor 662200
    fontColor fff
  fontName Verdana
  fontSize 11
  stereotypeFontColor aaa
  stereotypeFontSize 11
}


skinparam state {
    backgroundColor 2e2e2e
  borderColor 1b1b1b
    fontColor fff
  fontName Verdana
  fontSize 11
  stereotypeFontColor aaa
  stereotypeFontSize 11
    arrowColor fff
  arrowFontName Verdana
  arrowFontColor bbb
  arrowFontSize 11
  startColor BB6600
  endColor 662200
}


skinparam object {
    backgroundColor 2e2e2e
  borderColor 1b1b1b
    fontColor fff
  fontName Verdana
  fontSize 11
  stereotypeFontColor aaa
  stereotypeFontSize 11
    arrowColor fff
  arrowFontName Verdana
  arrowFontColor bbb
  arrowFontSize 11
}


skinparam note {
    backgroundColor BB6600
  borderColor 662200
    fontColor fff
  fontName Verdana
  fontSize 11
  stereotypeFontColor aaa
  stereotypeFontSize 11
}

skinparam cloud {
    backgroundColor 2e2e2e
  borderColor 1b1b1b
    fontColor fff
  fontName Verdana
  fontSize 11
  stereotypeFontColor aaa
  stereotypeFontSize 11
    arrowColor fff
  arrowFontName Verdana
  arrowFontColor bbb
  arrowFontSize 11
}

skinparam rectangle {
    backgroundColor 2e2e2e
  borderColor 1b1b1b
    fontColor fff
  fontName Verdana
  fontSize 11
  stereotypeFontColor aaa
  stereotypeFontSize 11
}

skinparam storage {
    backgroundColor 2e2e2e
  borderColor 1b1b1b
    fontColor fff
  fontName Verdana
  fontSize 11
  stereotypeFontColor aaa
  stereotypeFontSize 11
}


abstract class Subject {
    + {abstract} do_action();
}

class RealSubject {
    + do_action();
}

class Proxy {
    + do_action();
}

allow_mixing
rectangle Client #DarkOliveGreen

Client -left-> Subject
Subject <|- - RealSubject
Subject <|- - Proxy
RealSubject <-left- Proxy : <<delegate>>

@enduml

PlantUML version 1.2020.10(Sun May 17 15:05:57 IST 2020)
(GPL source distribution)
Java Runtime: OpenJDK Runtime Environment
JVM: OpenJDK 64-Bit Server VM
Java Version: 11.0.8+10-post-Ubuntu-0ubuntu120.04
Operating System: Linux
Default Encoding: UTF-8
Language: en
Country: IN
--></g></svg>