<?xml version="1.0" encoding="UTF-8" standalone="no"?><svg xmlns="http://www.w3.org/2000/svg" xmlns:xlink="http://www.w3.org/1999/xlink" contentScriptType="application/ecmascript" contentStyleType="text/css" height="209px" preserveAspectRatio="none" style="width:317px;height:209px;background:#777777;" version="1.1" viewBox="0 0 317 209" width="317px" zoomAndPan="magnify"><defs><filter height="300%" id="f1rk5qnw9bm3ha" width="300%" x="-1" y="-1"><feGaussianBlur result="blurOut" stdDeviation="2.0"/><feColorMatrix in="blurOut" result="blurOut2" type="matrix" values="0 0 0 0 0 0 0 0 0 0 0 0 0 0 0 0 0 0 .4 0"/><feOffset dx="4.0" dy="4.0" in="blurOut2" result="blurOut3"/><feBlend in="SourceGraphic" in2="blurOut3" mode="normal"/></filter></defs><g><!--MD5=[d0da0a299942266ebd64acf2b2e95fa4]
class Subject--><rect fill="#2E2E2E" filter="url(#f1rk5qnw9bm3ha)" height="64.978" id="Subject" style="stroke: #1B1B1B; stroke-width: 1.5;" width="89" x="108.5" y="8"/><ellipse cx="128.6" cy="26.0867" fill="#A9DCDF" rx="8" ry="8" style="stroke: #1B1B1B; stroke-width: 1.0;"/><path d="M132.5063,29.5867 L130.3813,29.5867 L129.8188,27.9773 L126.8656,27.9773 L126.3031,29.5867 L124.225,29.5867 L127.1781,21.5867 L129.5531,21.5867 L132.5063,29.5867 Z M129.3188,26.5085 L128.35,23.6335 L127.3656,26.5085 L129.3188,26.5085 Z "/><text fill="#AAAAAA" font-family="sans-serif" font-size="11" font-style="italic" lengthAdjust="spacingAndGlyphs" textLength="49" x="139.4" y="23.2104">«Image»</text><text fill="#FFFFFF" font-family="Verdana" font-size="11" font-style="italic" lengthAdjust="spacingAndGlyphs" textLength="42" x="142.9" y="36.8638">Subject</text><line style="stroke: #1B1B1B; stroke-width: 1.5;" x1="109.5" x2="196.5" y1="44.1733" y2="44.1733"/><line style="stroke: #1B1B1B; stroke-width: 1.5;" x1="109.5" x2="196.5" y1="52.1733" y2="52.1733"/><ellipse cx="119.5" cy="63.1733" fill="#84BE84" rx="3" ry="3" style="stroke: #038048; stroke-width: 1.0;"/><text fill="#AAAAAA" font-family="sans-serif" font-size="11" font-style="italic" lengthAdjust="spacingAndGlyphs" textLength="66" x="125.5" y="66.3838">do_action();</text><!--MD5=[449b3045b33c31979c3bb324a2b48d70]
class RealSubject--><rect fill="#2E2E2E" filter="url(#f1rk5qnw9bm3ha)" height="64.978" id="RealSubject" style="stroke: #1B1B1B; stroke-width: 1.5;" width="96" x="6" y="134"/><ellipse cx="18" cy="152.0867" fill="#BB6600" rx="8" ry="8" style="stroke: #1B1B1B; stroke-width: 1.0;"/><path d="M18.6406,156.2429 Q17.75,156.2429 16.9844,155.9773 Q16.2344,155.7117 15.6875,155.196 Q15.1563,154.6804 14.8438,153.8992 Q14.5469,153.1179 14.5469,152.1023 Q14.5469,151.1492 14.8281,150.3835 Q15.125,149.6023 15.6719,149.0398 Q16.1875,148.5085 16.9531,148.2273 Q17.7344,147.9304 18.6406,147.9304 Q19.1406,147.9304 19.5469,147.9929 Q19.9531,148.0398 20.2969,148.1335 Q20.6563,148.2429 20.9531,148.3679 Q21.25,148.4929 21.4688,148.6023 L21.4688,150.5398 L21.2344,150.5398 Q21.0781,150.4148 20.8438,150.2429 Q20.625,150.0554 20.3281,149.8835 Q20.0313,149.7117 19.6875,149.6023 Q19.3438,149.4773 18.9531,149.4773 Q18.5156,149.4773 18.125,149.6179 Q17.7344,149.7429 17.4063,150.071 Q17.0938,150.3679 16.8906,150.8835 Q16.7031,151.3835 16.7031,152.1023 Q16.7031,152.8523 16.9063,153.3679 Q17.125,153.8679 17.4375,154.1492 Q17.7656,154.446 18.1719,154.571 Q18.5781,154.696 18.9688,154.696 Q19.3438,154.696 19.7031,154.5867 Q20.0781,154.4773 20.3906,154.2742 Q20.6563,154.1335 20.875,153.9617 Q21.1094,153.7742 21.25,153.6492 L21.4688,153.6492 L21.4688,155.5554 Q21.1719,155.696 20.8906,155.821 Q20.625,155.9304 20.3125,156.0085 Q19.9219,156.1179 19.5781,156.1804 Q19.2344,156.2429 18.6406,156.2429 Z "/><text fill="#AAAAAA" font-family="sans-serif" font-size="11" font-style="italic" lengthAdjust="spacingAndGlyphs" textLength="74" x="27" y="149.2104">«RealImage»</text><text fill="#FFFFFF" font-family="Verdana" font-size="11" lengthAdjust="spacingAndGlyphs" textLength="68" x="30" y="162.8638">RealSubject</text><line style="stroke: #1B1B1B; stroke-width: 1.5;" x1="7" x2="101" y1="170.1733" y2="170.1733"/><line style="stroke: #1B1B1B; stroke-width: 1.5;" x1="7" x2="101" y1="178.1733" y2="178.1733"/><ellipse cx="17" cy="189.1733" fill="#84BE84" rx="3" ry="3" style="stroke: #038048; stroke-width: 1.0;"/><text fill="#AAAAAA" font-family="sans-serif" font-size="11" lengthAdjust="spacingAndGlyphs" textLength="66" x="23" y="192.3838">do_action();</text><!--MD5=[f7109e258b7e3e4bb390e34b115b99ce]
class Proxy--><rect fill="#2E2E2E" filter="url(#f1rk5qnw9bm3ha)" height="64.978" id="Proxy" style="stroke: #1B1B1B; stroke-width: 1.5;" width="104" x="202" y="134"/><ellipse cx="214" cy="152.0867" fill="#BB6600" rx="8" ry="8" style="stroke: #1B1B1B; stroke-width: 1.0;"/><path d="M214.6406,156.2429 Q213.75,156.2429 212.9844,155.9773 Q212.2344,155.7117 211.6875,155.196 Q211.1563,154.6804 210.8438,153.8992 Q210.5469,153.1179 210.5469,152.1023 Q210.5469,151.1492 210.8281,150.3835 Q211.125,149.6023 211.6719,149.0398 Q212.1875,148.5085 212.9531,148.2273 Q213.7344,147.9304 214.6406,147.9304 Q215.1406,147.9304 215.5469,147.9929 Q215.9531,148.0398 216.2969,148.1335 Q216.6563,148.2429 216.9531,148.3679 Q217.25,148.4929 217.4688,148.6023 L217.4688,150.5398 L217.2344,150.5398 Q217.0781,150.4148 216.8438,150.2429 Q216.625,150.0554 216.3281,149.8835 Q216.0313,149.7117 215.6875,149.6023 Q215.3438,149.4773 214.9531,149.4773 Q214.5156,149.4773 214.125,149.6179 Q213.7344,149.7429 213.4063,150.071 Q213.0938,150.3679 212.8906,150.8835 Q212.7031,151.3835 212.7031,152.1023 Q212.7031,152.8523 212.9063,153.3679 Q213.125,153.8679 213.4375,154.1492 Q213.7656,154.446 214.1719,154.571 Q214.5781,154.696 214.9688,154.696 Q215.3438,154.696 215.7031,154.5867 Q216.0781,154.4773 216.3906,154.2742 Q216.6563,154.1335 216.875,153.9617 Q217.1094,153.7742 217.25,153.6492 L217.4688,153.6492 L217.4688,155.5554 Q217.1719,155.696 216.8906,155.821 Q216.625,155.9304 216.3125,156.0085 Q215.9219,156.1179 215.5781,156.1804 Q215.2344,156.2429 214.6406,156.2429 Z "/><text fill="#AAAAAA" font-family="sans-serif" font-size="11" font-style="italic" lengthAdjust="spacingAndGlyphs" textLength="82" x="223" y="149.2104">«ProxyImage»</text><text fill="#FFFFFF" font-family="Verdana" font-size="11" lengthAdjust="spacingAndGlyphs" textLength="33" x="247.5" y="162.8638">Proxy</text><line style="stroke: #1B1B1B; stroke-width: 1.5;" x1="203" x2="305" y1="170.1733" y2="170.1733"/><line style="stroke: #1B1B1B; stroke-width: 1.5;" x1="203" x2="305" y1="178.1733" y2="178.1733"/><ellipse cx="213" cy="189.1733" fill="#84BE84" rx="3" ry="3" style="stroke: #038048; stroke-width: 1.0;"/><text fill="#AAAAAA" font-family="sans-serif" font-size="11" lengthAdjust="spacingAndGlyphs" textLength="66" x="219" y="192.3838">do_action();</text><!--MD5=[0ba5ee7700168656dc1b457c6fe9fdac]
entity Client--><rect fill="#556B2F" filter="url(#f1rk5qnw9bm3ha)" height="33.3687" style="stroke: #1B1B1B; stroke-width: 1.5;" width="53" x="232.5" y="24"/><text fill="#FFFFFF" font-family="Verdana" font-size="11" lengthAdjust="spacingAndGlyphs" textLength="33" x="242.5" y="45.0591">Client</text><!--MD5=[d82a894eabac74d08dfc5396e0fd572d]
reverse link Subject to Client--><path d="M202.84,40.5 C212.62,40.5 222.4,40.5 232.19,40.5 " fill="none" id="Subject&lt;-Client" style="stroke: #FFFFFF; stroke-width: 1.0;"/><polygon fill="#FFFFFF" points="197.72,40.5,206.72,44.5,202.72,40.5,206.72,36.5,197.72,40.5" style="stroke: #FFFFFF; stroke-width: 1.0;"/><!--MD5=[d47c67f0c46790a0239e176d4e556341]
reverse link Subject to RealSubject--><path d="M115.21,88.83 C103.16,103.92 90.12,120.25 79.19,133.95 " fill="none" id="Subject&lt;-RealSubject" style="stroke: #FFFFFF; stroke-width: 1.0;"/><polygon fill="none" points="109.81,84.37,127.76,73.11,120.75,93.11,109.81,84.37" style="stroke: #FFFFFF; stroke-width: 1.0;"/><!--MD5=[3c3c3ce047c26dc485554d65ad2bca9c]
reverse link Subject to Proxy--><path d="M191.55,88.83 C203.85,103.92 217.15,120.25 228.3,133.95 " fill="none" id="Subject&lt;-Proxy" style="stroke: #FFFFFF; stroke-width: 1.0;"/><polygon fill="none" points="185.95,93.04,178.75,73.11,196.81,84.2,185.95,93.04" style="stroke: #FFFFFF; stroke-width: 1.0;"/><!--MD5=[b996b55dbb33adfe80b254548a748d40]
reverse link RealSubject to Proxy--><path d="M107.16,166.5 C136.42,166.5 172.58,166.5 201.7,166.5 " fill="none" id="RealSubject&lt;-Proxy" style="stroke: #FFFFFF; stroke-width: 1.0;"/><polygon fill="#FFFFFF" points="102.16,166.5,111.16,170.5,107.16,166.5,111.16,162.5,102.16,166.5" style="stroke: #FFFFFF; stroke-width: 1.0;"/><text fill="#BBBBBB" font-family="Verdana" font-size="11" lengthAdjust="spacingAndGlyphs" textLength="63" x="120.5" y="160.5591">«delegate»</text><!--MD5=[1d7608a2b558834e7b6d0275903f5ce8]
@startuml proxy_pattern

!define DARKORANGE
!includeurl https://raw.githubusercontent.com/Drakemor/RedDress-PlantUML/master/style.puml

abstract class Subject <<Image>>{
    + {abstract} do_action();
}

class RealSubject <<RealImage>>{
    + do_action();
}

class Proxy <<ProxyImage>>{
    + do_action();
}

allow_mixing
rectangle Client #DarkOliveGreen

Client -left-> Subject
Subject <|- - RealSubject
Subject <|- - Proxy
RealSubject <-left- Proxy : <<delegate>>

@enduml

@startuml proxy_pattern










skinparam stereotypeCBackgroundColor BB6600



skinparam backgroundColor 777







skinparam circledCharacter {
  radius 8
  fontSize 11
  fontName Verdana
}

skinparam class {
    backgroundColor 2e2e2e
  borderColor 1b1b1b
    fontColor fff
  fontName Verdana
  fontSize 11
  stereotypeFontColor aaa
  stereotypeFontSize 11
    arrowColor fff
  arrowFontName Verdana
  arrowFontColor bbb
  arrowFontSize 11

  attributeFontColor aaa
  attributeFontSize 11
  attributeIconSize 11
}


skinparam actor {
    backgroundColor BB6600
  borderColor 662200
    fontColor fff
  fontName Verdana
  fontSize 11
  stereotypeFontColor aaa
  stereotypeFontSize 11
}

skinparam participant {
    backgroundColor 2e2e2e
  borderColor 1b1b1b
    fontColor fff
  fontName Verdana
  fontSize 11
  stereotypeFontColor aaa
  stereotypeFontSize 11
}

skinparam collections {
    backgroundColor 2e2e2e
  borderColor 1b1b1b
    fontColor fff
  fontName Verdana
  fontSize 11
  stereotypeFontColor aaa
  stereotypeFontSize 11
}

skinparam SequenceBox{
    backgroundColor 575757
  borderColor 767676
    fontColor fff
  fontName Verdana
  fontSize 11
  stereotypeFontColor aaa
  stereotypeFontSize 11
}


skinparam interface {
    backgroundColor BB6600
  borderColor 662200
    fontColor fff
  fontName Verdana
  fontSize 11
  stereotypeFontColor aaa
  stereotypeFontSize 11
}

skinparam component {
    backgroundColor 2e2e2e
  borderColor 1b1b1b
    fontColor fff
  fontName Verdana
  fontSize 11
  stereotypeFontColor aaa
  stereotypeFontSize 11
}

skinparam node {
    backgroundColor 2e2e2e
  borderColor 1b1b1b
    fontColor fff
  fontName Verdana
  fontSize 11
  stereotypeFontColor aaa
  stereotypeFontSize 11
}

skinparam database {
    backgroundColor 2e2e2e
  borderColor 1b1b1b
    fontColor fff
  fontName Verdana
  fontSize 11
  stereotypeFontColor aaa
  stereotypeFontSize 11
}

skinparam queue {
    backgroundColor 2e2e2e
  borderColor 1b1b1b
    fontColor fff
  fontName Verdana
  fontSize 11
  stereotypeFontColor aaa
  stereotypeFontSize 11
}


skinparam usecase {
    backgroundColor 2e2e2e
  borderColor 1b1b1b
    fontColor fff
  fontName Verdana
  fontSize 11
  stereotypeFontColor aaa
  stereotypeFontSize 11
    arrowColor fff
  arrowFontName Verdana
  arrowFontColor bbb
  arrowFontSize 11
}

skinparam activity {
    backgroundColor 2e2e2e
  borderColor 1b1b1b
    fontColor fff
  fontName Verdana
  fontSize 11
  stereotypeFontColor aaa
  stereotypeFontSize 11
    arrowColor fff
  arrowFontName Verdana
  arrowFontColor bbb
  arrowFontSize 11
}

skinparam sequence {
    fontColor fff
  fontName Verdana
  fontSize 11
  stereotypeFontColor aaa
  stereotypeFontSize 11
    arrowColor fff
  arrowFontName Verdana
  arrowFontColor bbb
  arrowFontSize 11

  lifeLineBorderColor BB6600
  lifeLineBackgroundColor 575757
}

skinparam boundary {
    backgroundColor BB6600
  borderColor 662200
    fontColor fff
  fontName Verdana
  fontSize 11
  stereotypeFontColor aaa
  stereotypeFontSize 11
}

skinparam control {
    backgroundColor BB6600
  borderColor 662200
    fontColor fff
  fontName Verdana
  fontSize 11
  stereotypeFontColor aaa
  stereotypeFontSize 11
}

skinparam entity {
    backgroundColor BB6600
  borderColor 662200
    fontColor fff
  fontName Verdana
  fontSize 11
  stereotypeFontColor aaa
  stereotypeFontSize 11
}


skinparam state {
    backgroundColor 2e2e2e
  borderColor 1b1b1b
    fontColor fff
  fontName Verdana
  fontSize 11
  stereotypeFontColor aaa
  stereotypeFontSize 11
    arrowColor fff
  arrowFontName Verdana
  arrowFontColor bbb
  arrowFontSize 11
  startColor BB6600
  endColor 662200
}


skinparam object {
    backgroundColor 2e2e2e
  borderColor 1b1b1b
    fontColor fff
  fontName Verdana
  fontSize 11
  stereotypeFontColor aaa
  stereotypeFontSize 11
    arrowColor fff
  arrowFontName Verdana
  arrowFontColor bbb
  arrowFontSize 11
}


skinparam note {
    backgroundColor BB6600
  borderColor 662200
    fontColor fff
  fontName Verdana
  fontSize 11
  stereotypeFontColor aaa
  stereotypeFontSize 11
}

skinparam cloud {
    backgroundColor 2e2e2e
  borderColor 1b1b1b
    fontColor fff
  fontName Verdana
  fontSize 11
  stereotypeFontColor aaa
  stereotypeFontSize 11
    arrowColor fff
  arrowFontName Verdana
  arrowFontColor bbb
  arrowFontSize 11
}

skinparam rectangle {
    backgroundColor 2e2e2e
  borderColor 1b1b1b
    fontColor fff
  fontName Verdana
  fontSize 11
  stereotypeFontColor aaa
  stereotypeFontSize 11
}

skinparam storage {
    backgroundColor 2e2e2e
  borderColor 1b1b1b
    fontColor fff
  fontName Verdana
  fontSize 11
  stereotypeFontColor aaa
  stereotypeFontSize 11
}


abstract class Subject <<Image>>{
    + {abstract} do_action();
}

class RealSubject <<RealImage>>{
    + do_action();
}

class Proxy <<ProxyImage>>{
    + do_action();
}

allow_mixing
rectangle Client #DarkOliveGreen

Client -left-> Subject
Subject <|- - RealSubject
Subject <|- - Proxy
RealSubject <-left- Proxy : <<delegate>>

@enduml

PlantUML version 1.2020.10(Sun May 17 15:05:57 IST 2020)
(GPL source distribution)
Java Runtime: OpenJDK Runtime Environment
JVM: OpenJDK 64-Bit Server VM
Java Version: 11.0.8+10-post-Ubuntu-0ubuntu120.04
Operating System: Linux
Default Encoding: UTF-8
Language: en
Country: IN
--></g></svg>