<?xml version="1.0" encoding="UTF-8" standalone="no"?><svg xmlns="http://www.w3.org/2000/svg" xmlns:xlink="http://www.w3.org/1999/xlink" contentScriptType="application/ecmascript" contentStyleType="text/css" height="329px" preserveAspectRatio="none" style="width:554px;height:329px;background:#777777;" version="1.1" viewBox="0 0 554 329" width="554px" zoomAndPan="magnify"><defs><filter height="300%" id="f1i666bugh6voa" width="300%" x="-1" y="-1"><feGaussianBlur result="blurOut" stdDeviation="2.0"/><feColorMatrix in="blurOut" result="blurOut2" type="matrix" values="0 0 0 0 0 0 0 0 0 0 0 0 0 0 0 0 0 0 .4 0"/><feOffset dx="4.0" dy="4.0" in="blurOut2" result="blurOut3"/><feBlend in="SourceGraphic" in2="blurOut3" mode="normal"/></filter></defs><g><!--MD5=[5d9edbb45bfc6c9406373e5148cd1c88]
class IterableCollection--><rect fill="#2E2E2E" filter="url(#f1i666bugh6voa)" height="64.978" id="IterableCollection" style="stroke: #1B1B1B; stroke-width: 1.5;" width="126" x="160" y="108.5"/><ellipse cx="172" cy="126.5867" fill="#A9DCDF" rx="8" ry="8" style="stroke: #1B1B1B; stroke-width: 1.0;"/><path d="M175.9063,130.0867 L173.7813,130.0867 L173.2188,128.4773 L170.2656,128.4773 L169.7031,130.0867 L167.625,130.0867 L170.5781,122.0867 L172.9531,122.0867 L175.9063,130.0867 Z M172.7188,127.0085 L171.75,124.1335 L170.7656,127.0085 L172.7188,127.0085 Z "/><text fill="#AAAAAA" font-family="sans-serif" font-size="11" font-style="italic" lengthAdjust="spacingAndGlyphs" textLength="103" x="181.5" y="123.7104">«SongsCollection»</text><text fill="#FFFFFF" font-family="Verdana" font-size="11" font-style="italic" lengthAdjust="spacingAndGlyphs" textLength="100" x="183" y="137.3638">IterableCollection</text><line style="stroke: #1B1B1B; stroke-width: 1.5;" x1="161" x2="285" y1="144.6733" y2="144.6733"/><line style="stroke: #1B1B1B; stroke-width: 1.5;" x1="161" x2="285" y1="152.6733" y2="152.6733"/><ellipse cx="171" cy="163.6733" fill="#84BE84" rx="3" ry="3" style="stroke: #038048; stroke-width: 1.0;"/><text fill="#AAAAAA" font-family="sans-serif" font-size="11" font-style="italic" lengthAdjust="spacingAndGlyphs" textLength="96" x="177" y="166.8838">create_iterator();</text><!--MD5=[023ecf6702e3ca2ce47ae747eafb20f1]
class Iterator--><rect fill="#2E2E2E" filter="url(#f1i666bugh6voa)" height="77.7827" id="Iterator" style="stroke: #1B1B1B; stroke-width: 1.5;" width="86" x="342" y="102"/><ellipse cx="357.6" cy="120.0867" fill="#A9DCDF" rx="8" ry="8" style="stroke: #1B1B1B; stroke-width: 1.0;"/><path d="M361.5063,123.5867 L359.3813,123.5867 L358.8188,121.9773 L355.8656,121.9773 L355.3031,123.5867 L353.225,123.5867 L356.1781,115.5867 L358.5531,115.5867 L361.5063,123.5867 Z M358.3188,120.5085 L357.35,117.6335 L356.3656,120.5085 L358.3188,120.5085 Z "/><text fill="#AAAAAA" font-family="sans-serif" font-size="11" font-style="italic" lengthAdjust="spacingAndGlyphs" textLength="56" x="367.4" y="117.2104">«Iterator»</text><text fill="#FFFFFF" font-family="Verdana" font-size="11" font-style="italic" lengthAdjust="spacingAndGlyphs" textLength="44" x="373.4" y="130.8638">Iterator</text><line style="stroke: #1B1B1B; stroke-width: 1.5;" x1="343" x2="427" y1="138.1733" y2="138.1733"/><line style="stroke: #1B1B1B; stroke-width: 1.5;" x1="343" x2="427" y1="146.1733" y2="146.1733"/><ellipse cx="353" cy="157.1733" fill="#84BE84" rx="3" ry="3" style="stroke: #038048; stroke-width: 1.0;"/><text fill="#AAAAAA" font-family="sans-serif" font-size="11" font-style="italic" lengthAdjust="spacingAndGlyphs" textLength="63" x="359" y="160.3838">has_next();</text><ellipse cx="353" cy="169.978" fill="#84BE84" rx="3" ry="3" style="stroke: #038048; stroke-width: 1.0;"/><text fill="#AAAAAA" font-family="sans-serif" font-size="11" font-style="italic" lengthAdjust="spacingAndGlyphs" textLength="37" x="359" y="173.1885">next();</text><!--MD5=[a6c3bffdca62bd8b66083785b8b3a889]
class ConcreateCollection--><rect fill="#2E2E2E" filter="url(#f1i666bugh6voa)" height="64.978" id="ConcreateCollection" style="stroke: #1B1B1B; stroke-width: 1.5;" width="178" x="6" y="247.5"/><ellipse cx="18" cy="265.5867" fill="#BB6600" rx="8" ry="8" style="stroke: #1B1B1B; stroke-width: 1.0;"/><path d="M18.6406,269.7429 Q17.75,269.7429 16.9844,269.4773 Q16.2344,269.2117 15.6875,268.696 Q15.1563,268.1804 14.8438,267.3992 Q14.5469,266.6179 14.5469,265.6023 Q14.5469,264.6492 14.8281,263.8835 Q15.125,263.1023 15.6719,262.5398 Q16.1875,262.0085 16.9531,261.7273 Q17.7344,261.4304 18.6406,261.4304 Q19.1406,261.4304 19.5469,261.4929 Q19.9531,261.5398 20.2969,261.6335 Q20.6563,261.7429 20.9531,261.8679 Q21.25,261.9929 21.4688,262.1023 L21.4688,264.0398 L21.2344,264.0398 Q21.0781,263.9148 20.8438,263.7429 Q20.625,263.5554 20.3281,263.3835 Q20.0313,263.2117 19.6875,263.1023 Q19.3438,262.9773 18.9531,262.9773 Q18.5156,262.9773 18.125,263.1179 Q17.7344,263.2429 17.4063,263.571 Q17.0938,263.8679 16.8906,264.3835 Q16.7031,264.8835 16.7031,265.6023 Q16.7031,266.3523 16.9063,266.8679 Q17.125,267.3679 17.4375,267.6492 Q17.7656,267.946 18.1719,268.071 Q18.5781,268.196 18.9688,268.196 Q19.3438,268.196 19.7031,268.0867 Q20.0781,267.9773 20.3906,267.7742 Q20.6563,267.6335 20.875,267.4617 Q21.1094,267.2742 21.25,267.1492 L21.4688,267.1492 L21.4688,269.0554 Q21.1719,269.196 20.8906,269.321 Q20.625,269.4304 20.3125,269.5085 Q19.9219,269.6179 19.5781,269.6804 Q19.2344,269.7429 18.6406,269.7429 Z "/><text fill="#AAAAAA" font-family="sans-serif" font-size="11" font-style="italic" lengthAdjust="spacingAndGlyphs" textLength="156" x="27" y="262.7104">«SongsOf80s, SongsOf90s»</text><text fill="#FFFFFF" font-family="Verdana" font-size="11" lengthAdjust="spacingAndGlyphs" textLength="115" x="47.5" y="276.3638">ConcreateCollection</text><line style="stroke: #1B1B1B; stroke-width: 1.5;" x1="7" x2="183" y1="283.6733" y2="283.6733"/><line style="stroke: #1B1B1B; stroke-width: 1.5;" x1="7" x2="183" y1="291.6733" y2="291.6733"/><ellipse cx="17" cy="302.6733" fill="#84BE84" rx="3" ry="3" style="stroke: #038048; stroke-width: 1.0;"/><text fill="#AAAAAA" font-family="sans-serif" font-size="11" lengthAdjust="spacingAndGlyphs" textLength="96" x="23" y="305.8838">create_iterator();</text><!--MD5=[78d40d8566a036527f78884972139e1a]
class ConcreateIterator--><rect fill="#2E2E2E" filter="url(#f1i666bugh6voa)" height="77.7827" id="ConcreateIterator" style="stroke: #1B1B1B; stroke-width: 1.5;" width="272" x="271" y="241"/><ellipse cx="283" cy="259.0867" fill="#BB6600" rx="8" ry="8" style="stroke: #1B1B1B; stroke-width: 1.0;"/><path d="M283.6406,263.2429 Q282.75,263.2429 281.9844,262.9773 Q281.2344,262.7117 280.6875,262.196 Q280.1563,261.6804 279.8438,260.8992 Q279.5469,260.1179 279.5469,259.1023 Q279.5469,258.1492 279.8281,257.3835 Q280.125,256.6023 280.6719,256.0398 Q281.1875,255.5085 281.9531,255.2273 Q282.7344,254.9304 283.6406,254.9304 Q284.1406,254.9304 284.5469,254.9929 Q284.9531,255.0398 285.2969,255.1335 Q285.6563,255.2429 285.9531,255.3679 Q286.25,255.4929 286.4688,255.6023 L286.4688,257.5398 L286.2344,257.5398 Q286.0781,257.4148 285.8438,257.2429 Q285.625,257.0554 285.3281,256.8835 Q285.0313,256.7117 284.6875,256.6023 Q284.3438,256.4773 283.9531,256.4773 Q283.5156,256.4773 283.125,256.6179 Q282.7344,256.7429 282.4063,257.071 Q282.0938,257.3679 281.8906,257.8835 Q281.7031,258.3835 281.7031,259.1023 Q281.7031,259.8523 281.9063,260.3679 Q282.125,260.8679 282.4375,261.1492 Q282.7656,261.446 283.1719,261.571 Q283.5781,261.696 283.9688,261.696 Q284.3438,261.696 284.7031,261.5867 Q285.0781,261.4773 285.3906,261.2742 Q285.6563,261.1335 285.875,260.9617 Q286.1094,260.7742 286.25,260.6492 L286.4688,260.6492 L286.4688,262.5554 Q286.1719,262.696 285.8906,262.821 Q285.625,262.9304 285.3125,263.0085 Q284.9219,263.1179 284.5781,263.1804 Q284.2344,263.2429 283.6406,263.2429 Z "/><text fill="#AAAAAA" font-family="sans-serif" font-size="11" font-style="italic" lengthAdjust="spacingAndGlyphs" textLength="250" x="292" y="256.2104">«StaticArrayIterator, DynamicArrayIterator»</text><text fill="#FFFFFF" font-family="Verdana" font-size="11" lengthAdjust="spacingAndGlyphs" textLength="103" x="365.5" y="269.8638">ConcreateIterator</text><line style="stroke: #1B1B1B; stroke-width: 1.5;" x1="272" x2="542" y1="277.1733" y2="277.1733"/><line style="stroke: #1B1B1B; stroke-width: 1.5;" x1="272" x2="542" y1="285.1733" y2="285.1733"/><ellipse cx="282" cy="296.1733" fill="#84BE84" rx="3" ry="3" style="stroke: #038048; stroke-width: 1.0;"/><text fill="#AAAAAA" font-family="sans-serif" font-size="11" lengthAdjust="spacingAndGlyphs" textLength="63" x="288" y="299.3838">has_next();</text><ellipse cx="282" cy="308.978" fill="#84BE84" rx="3" ry="3" style="stroke: #038048; stroke-width: 1.0;"/><text fill="#AAAAAA" font-family="sans-serif" font-size="11" lengthAdjust="spacingAndGlyphs" textLength="36" x="288" y="312.1885">next();</text><!--MD5=[0ba5ee7700168656dc1b457c6fe9fdac]
entity Client--><rect fill="#556B2F" filter="url(#f1i666bugh6voa)" height="33.3687" style="stroke: #1B1B1B; stroke-width: 1.5;" width="53" x="266.5" y="8"/><text fill="#FFFFFF" font-family="Verdana" font-size="11" lengthAdjust="spacingAndGlyphs" textLength="33" x="276.5" y="29.0591">Client</text><!--MD5=[5c309fc28eed347b9cf4ee8d19adf0a8]
link Client to IterableCollection--><path d="M283.27,41.42 C273.45,57.48 257.94,82.84 245.12,103.82 " fill="none" id="Client-&gt;IterableCollection" style="stroke: #FFFFFF; stroke-width: 1.0;"/><polygon fill="#FFFFFF" points="242.43,108.22,250.54,102.6317,245.0401,103.9554,243.7165,98.4555,242.43,108.22" style="stroke: #FFFFFF; stroke-width: 1.0;"/><!--MD5=[cdf31114c0a9b73670b48f28c83c0040]
link Client to Iterator--><path d="M305.79,41.42 C317.36,55.82 334.93,77.68 350.58,97.16 " fill="none" id="Client-&gt;Iterator" style="stroke: #FFFFFF; stroke-width: 1.0;"/><polygon fill="#FFFFFF" points="354.09,101.53,351.5785,92.0068,350.9613,97.6298,345.3382,97.0127,354.09,101.53" style="stroke: #FFFFFF; stroke-width: 1.0;"/><!--MD5=[51f0e153541a254e5b895457fafb5a2f]
reverse link IterableCollection to ConcreateCollection--><path d="M179.45,188.61 C161.35,207.98 140.82,229.96 124.53,247.4 " fill="none" id="IterableCollection&lt;-ConcreateCollection" style="stroke: #FFFFFF; stroke-width: 1.0;"/><polygon fill="none" points="174.54,183.61,193.31,173.77,184.77,193.17,174.54,183.61" style="stroke: #FFFFFF; stroke-width: 1.0;"/><!--MD5=[d720798e3690dfbe6195bcbefd365182]
reverse link Iterator to ConcreateIterator--><path d="M394.34,200.16 C396.53,213.82 398.82,228.03 400.83,240.57 " fill="none" id="Iterator&lt;-ConcreateIterator" style="stroke: #FFFFFF; stroke-width: 1.0;"/><polygon fill="none" points="387.39,201.02,391.13,180.16,401.21,198.8,387.39,201.02" style="stroke: #FFFFFF; stroke-width: 1.0;"/><!--MD5=[7069f253823efcb9ce42b3090c4ca3e5]
reverse link ConcreateIterator to ConcreateCollection--><path d="M265.59,280 C237.98,280 209.75,280 184.41,280 " fill="none" id="ConcreateIterator&lt;-ConcreateCollection" style="stroke: #FFFFFF; stroke-width: 1.0; stroke-dasharray: 7.0,7.0;"/><polygon fill="#FFFFFF" points="270.74,280,261.74,276,265.74,280,261.74,284,270.74,280" style="stroke: #FFFFFF; stroke-width: 1.0;"/><text fill="#BBBBBB" font-family="Verdana" font-size="11" lengthAdjust="spacingAndGlyphs" textLength="50" x="202.5" y="274.0591">«create»</text><!--MD5=[65eb0893d97f6b0744c4bb4a95ab8106]
reverse link ConcreateCollection to ConcreateIterator--><path d="M189.24,282.61 C197.27,282.77 205.28,282.9 213,283 C231.69,283.24 251.4,283.23 270.8,283.08 " fill="none" id="ConcreateCollection&lt;-ConcreateIterator" style="stroke: #FFFFFF; stroke-width: 1.0;"/><polygon fill="#FFFFFF" points="184.23,282.51,193.1362,286.7146,189.2287,282.6243,193.3191,278.7167,184.23,282.51" style="stroke: #FFFFFF; stroke-width: 1.0;"/><!--MD5=[023b5ff284a088805c09127a04c304ac]
@startuml iterator

!define DARKORANGE
!includeurl https://raw.githubusercontent.com/Drakemor/RedDress-PlantUML/master/style.puml

abstract class IterableCollection <<SongsCollection>> {
    + {abstract} create_iterator();
}

abstract class Iterator <<Iterator>> {
    + {abstract} has_next();
    + {abstract} next();
}

class ConcreateCollection <<SongsOf80s, SongsOf90s>>{
    + create_iterator();
}

class ConcreateIterator <<StaticArrayIterator, DynamicArrayIterator>>{
    + has_next();
    + next();
}


allow_mixing
rectangle Client #DarkOliveGreen
Client - -> IterableCollection
Client - -> Iterator

IterableCollection <|- - ConcreateCollection
Iterator <|- - ConcreateIterator
ConcreateCollection .left.> ConcreateIterator : <<create>>
ConcreateCollection <- - ConcreateIterator
@enduml

@startuml iterator










skinparam stereotypeCBackgroundColor BB6600



skinparam backgroundColor 777







skinparam circledCharacter {
  radius 8
  fontSize 11
  fontName Verdana
}

skinparam class {
    backgroundColor 2e2e2e
  borderColor 1b1b1b
    fontColor fff
  fontName Verdana
  fontSize 11
  stereotypeFontColor aaa
  stereotypeFontSize 11
    arrowColor fff
  arrowFontName Verdana
  arrowFontColor bbb
  arrowFontSize 11

  attributeFontColor aaa
  attributeFontSize 11
  attributeIconSize 11
}


skinparam actor {
    backgroundColor BB6600
  borderColor 662200
    fontColor fff
  fontName Verdana
  fontSize 11
  stereotypeFontColor aaa
  stereotypeFontSize 11
}

skinparam participant {
    backgroundColor 2e2e2e
  borderColor 1b1b1b
    fontColor fff
  fontName Verdana
  fontSize 11
  stereotypeFontColor aaa
  stereotypeFontSize 11
}

skinparam collections {
    backgroundColor 2e2e2e
  borderColor 1b1b1b
    fontColor fff
  fontName Verdana
  fontSize 11
  stereotypeFontColor aaa
  stereotypeFontSize 11
}

skinparam SequenceBox{
    backgroundColor 575757
  borderColor 767676
    fontColor fff
  fontName Verdana
  fontSize 11
  stereotypeFontColor aaa
  stereotypeFontSize 11
}


skinparam interface {
    backgroundColor BB6600
  borderColor 662200
    fontColor fff
  fontName Verdana
  fontSize 11
  stereotypeFontColor aaa
  stereotypeFontSize 11
}

skinparam component {
    backgroundColor 2e2e2e
  borderColor 1b1b1b
    fontColor fff
  fontName Verdana
  fontSize 11
  stereotypeFontColor aaa
  stereotypeFontSize 11
}

skinparam node {
    backgroundColor 2e2e2e
  borderColor 1b1b1b
    fontColor fff
  fontName Verdana
  fontSize 11
  stereotypeFontColor aaa
  stereotypeFontSize 11
}

skinparam database {
    backgroundColor 2e2e2e
  borderColor 1b1b1b
    fontColor fff
  fontName Verdana
  fontSize 11
  stereotypeFontColor aaa
  stereotypeFontSize 11
}

skinparam queue {
    backgroundColor 2e2e2e
  borderColor 1b1b1b
    fontColor fff
  fontName Verdana
  fontSize 11
  stereotypeFontColor aaa
  stereotypeFontSize 11
}


skinparam usecase {
    backgroundColor 2e2e2e
  borderColor 1b1b1b
    fontColor fff
  fontName Verdana
  fontSize 11
  stereotypeFontColor aaa
  stereotypeFontSize 11
    arrowColor fff
  arrowFontName Verdana
  arrowFontColor bbb
  arrowFontSize 11
}

skinparam activity {
    backgroundColor 2e2e2e
  borderColor 1b1b1b
    fontColor fff
  fontName Verdana
  fontSize 11
  stereotypeFontColor aaa
  stereotypeFontSize 11
    arrowColor fff
  arrowFontName Verdana
  arrowFontColor bbb
  arrowFontSize 11
}

skinparam sequence {
    fontColor fff
  fontName Verdana
  fontSize 11
  stereotypeFontColor aaa
  stereotypeFontSize 11
    arrowColor fff
  arrowFontName Verdana
  arrowFontColor bbb
  arrowFontSize 11

  lifeLineBorderColor BB6600
  lifeLineBackgroundColor 575757
}

skinparam boundary {
    backgroundColor BB6600
  borderColor 662200
    fontColor fff
  fontName Verdana
  fontSize 11
  stereotypeFontColor aaa
  stereotypeFontSize 11
}

skinparam control {
    backgroundColor BB6600
  borderColor 662200
    fontColor fff
  fontName Verdana
  fontSize 11
  stereotypeFontColor aaa
  stereotypeFontSize 11
}

skinparam entity {
    backgroundColor BB6600
  borderColor 662200
    fontColor fff
  fontName Verdana
  fontSize 11
  stereotypeFontColor aaa
  stereotypeFontSize 11
}


skinparam state {
    backgroundColor 2e2e2e
  borderColor 1b1b1b
    fontColor fff
  fontName Verdana
  fontSize 11
  stereotypeFontColor aaa
  stereotypeFontSize 11
    arrowColor fff
  arrowFontName Verdana
  arrowFontColor bbb
  arrowFontSize 11
  startColor BB6600
  endColor 662200
}


skinparam object {
    backgroundColor 2e2e2e
  borderColor 1b1b1b
    fontColor fff
  fontName Verdana
  fontSize 11
  stereotypeFontColor aaa
  stereotypeFontSize 11
    arrowColor fff
  arrowFontName Verdana
  arrowFontColor bbb
  arrowFontSize 11
}


skinparam note {
    backgroundColor BB6600
  borderColor 662200
    fontColor fff
  fontName Verdana
  fontSize 11
  stereotypeFontColor aaa
  stereotypeFontSize 11
}

skinparam cloud {
    backgroundColor 2e2e2e
  borderColor 1b1b1b
    fontColor fff
  fontName Verdana
  fontSize 11
  stereotypeFontColor aaa
  stereotypeFontSize 11
    arrowColor fff
  arrowFontName Verdana
  arrowFontColor bbb
  arrowFontSize 11
}

skinparam rectangle {
    backgroundColor 2e2e2e
  borderColor 1b1b1b
    fontColor fff
  fontName Verdana
  fontSize 11
  stereotypeFontColor aaa
  stereotypeFontSize 11
}

skinparam storage {
    backgroundColor 2e2e2e
  borderColor 1b1b1b
    fontColor fff
  fontName Verdana
  fontSize 11
  stereotypeFontColor aaa
  stereotypeFontSize 11
}


abstract class IterableCollection <<SongsCollection>> {
    + {abstract} create_iterator();
}

abstract class Iterator <<Iterator>> {
    + {abstract} has_next();
    + {abstract} next();
}

class ConcreateCollection <<SongsOf80s, SongsOf90s>>{
    + create_iterator();
}

class ConcreateIterator <<StaticArrayIterator, DynamicArrayIterator>>{
    + has_next();
    + next();
}


allow_mixing
rectangle Client #DarkOliveGreen
Client - -> IterableCollection
Client - -> Iterator

IterableCollection <|- - ConcreateCollection
Iterator <|- - ConcreateIterator
ConcreateCollection .left.> ConcreateIterator : <<create>>
ConcreateCollection <- - ConcreateIterator
@enduml

PlantUML version 1.2020.10(Sun May 17 15:05:57 IST 2020)
(GPL source distribution)
Java Runtime: OpenJDK Runtime Environment
JVM: OpenJDK 64-Bit Server VM
Java Version: 11.0.8+10-post-Ubuntu-0ubuntu120.04
Operating System: Linux
Default Encoding: UTF-8
Language: en
Country: IN
--></g></svg>